M48
METRIC,TZ
T1C0.400
T2C1.000
T3C1.016
%
G90
G05
T1
X142494Y-89281
X143676Y-105195
X144018Y-94869
X144886Y-87905
X145034Y-96393
X145034Y-104013
X146050Y-80137
X146050Y-98933
X146050Y-105029
X146156Y-86847
X146558Y-114173
X146558Y-118237
X147486Y-110021
X147574Y-78613
X147574Y-100457
X148590Y-111633
X149098Y-89281
X154178Y-118237
X156718Y-93853
X158242Y-106553
X160274Y-104013
X161798Y-114173
X162306Y-84709
X162306Y-109093
X164846Y-85217
X164846Y-111633
T2
X174498Y-81661
X174498Y-84201
T3
X129794Y-75565
X132334Y-75565
X134874Y-75565
X137414Y-75565
X138938Y-123825
X139954Y-75565
X141478Y-123825
X142494Y-75565
X144018Y-123825
X145034Y-75565
X146558Y-123825
X147574Y-75565
X149098Y-123825
X150114Y-75565
X151638Y-123825
X152654Y-75565
X154178Y-123825
X156718Y-75565
X156718Y-123825
X159258Y-75565
X161798Y-75565
X161798Y-123825
X164338Y-75565
X164338Y-123825
X166878Y-75565
X166878Y-123825
X169418Y-75565
X169418Y-123825
X171958Y-75565
X171958Y-123825
X174498Y-75565
X174498Y-91313
X174498Y-93853
X174498Y-96393
X174498Y-98933
X174498Y-101473
X174498Y-104013
X174498Y-106553
X174498Y-109093
X174498Y-111633
X174498Y-114173
X174498Y-123825
T0
M30
