G04 #@! TF.GenerationSoftware,KiCad,Pcbnew,(5.1.9-0-10_14)*
G04 #@! TF.CreationDate,2021-01-31T13:48:18+01:00*
G04 #@! TF.ProjectId,SX1280-Shield,53583132-3830-42d5-9368-69656c642e6b,rev?*
G04 #@! TF.SameCoordinates,Original*
G04 #@! TF.FileFunction,Copper,L2,Bot*
G04 #@! TF.FilePolarity,Positive*
%FSLAX46Y46*%
G04 Gerber Fmt 4.6, Leading zero omitted, Abs format (unit mm)*
G04 Created by KiCad (PCBNEW (5.1.9-0-10_14)) date 2021-01-31 13:48:18*
%MOMM*%
%LPD*%
G01*
G04 APERTURE LIST*
G04 #@! TA.AperFunction,ComponentPad*
%ADD10O,1.700000X1.700000*%
G04 #@! TD*
G04 #@! TA.AperFunction,ComponentPad*
%ADD11R,1.700000X1.700000*%
G04 #@! TD*
G04 #@! TA.AperFunction,ComponentPad*
%ADD12O,2.032000X1.727200*%
G04 #@! TD*
G04 #@! TA.AperFunction,ComponentPad*
%ADD13O,1.727200X2.032000*%
G04 #@! TD*
G04 #@! TA.AperFunction,ViaPad*
%ADD14C,0.600000*%
G04 #@! TD*
G04 #@! TA.AperFunction,Conductor*
%ADD15C,0.500000*%
G04 #@! TD*
G04 #@! TA.AperFunction,Conductor*
%ADD16C,0.250000*%
G04 #@! TD*
G04 #@! TA.AperFunction,Conductor*
%ADD17C,0.254000*%
G04 #@! TD*
G04 #@! TA.AperFunction,Conductor*
%ADD18C,0.100000*%
G04 #@! TD*
G04 APERTURE END LIST*
D10*
X174498000Y-84201000D03*
D11*
X174498000Y-81661000D03*
D12*
X174498000Y-114173000D03*
X174498000Y-111633000D03*
X174498000Y-109093000D03*
X174498000Y-106553000D03*
X174498000Y-104013000D03*
X174498000Y-101473000D03*
X174498000Y-98933000D03*
X174498000Y-96393000D03*
X174498000Y-93853000D03*
X174498000Y-91313000D03*
D13*
X138938000Y-123825000D03*
X141478000Y-123825000D03*
X144018000Y-123825000D03*
X146558000Y-123825000D03*
X149098000Y-123825000D03*
X151638000Y-123825000D03*
X154178000Y-123825000D03*
X156718000Y-123825000D03*
X161798000Y-123825000D03*
X164338000Y-123825000D03*
X166878000Y-123825000D03*
X169418000Y-123825000D03*
X171958000Y-123825000D03*
X174498000Y-123825000D03*
X129794000Y-75565000D03*
X132334000Y-75565000D03*
X134874000Y-75565000D03*
X137414000Y-75565000D03*
X139954000Y-75565000D03*
X142494000Y-75565000D03*
X145034000Y-75565000D03*
X147574000Y-75565000D03*
X150114000Y-75565000D03*
X152654000Y-75565000D03*
X156718000Y-75565000D03*
X159258000Y-75565000D03*
X161798000Y-75565000D03*
X164338000Y-75565000D03*
X166878000Y-75565000D03*
X169418000Y-75565000D03*
X171958000Y-75565000D03*
X174498000Y-75565000D03*
D14*
X149098000Y-89281000D03*
X142494000Y-89281000D03*
X146558000Y-118237000D03*
X154178000Y-118237000D03*
X147486000Y-110021000D03*
X162306000Y-84709000D03*
X162306000Y-109093000D03*
X146050000Y-105029000D03*
X158242000Y-106553000D03*
X145034000Y-104013000D03*
X160274000Y-104013000D03*
X147574000Y-100457000D03*
X147574000Y-78613000D03*
X146050000Y-98933000D03*
X146050000Y-80137000D03*
X146156000Y-86847000D03*
X145034000Y-96393000D03*
X144886000Y-87905000D03*
X156718000Y-93853000D03*
X144018000Y-94869000D03*
X161798000Y-114173000D03*
X146558000Y-114173000D03*
X143676000Y-105195000D03*
X148590000Y-111633000D03*
X164846000Y-111633000D03*
X164846000Y-85217000D03*
D15*
X174498000Y-91313000D02*
X152654000Y-91313000D01*
X152654000Y-91313000D02*
X150622000Y-89281000D01*
X150622000Y-89281000D02*
X149098000Y-89281000D01*
X149098000Y-89281000D02*
X142494000Y-89281000D01*
X146558000Y-118237000D02*
X154178000Y-118237000D01*
D16*
X174498000Y-81661000D02*
X165354000Y-81661000D01*
X165354000Y-81661000D02*
X162306000Y-84709000D01*
X174498000Y-109093000D02*
X162306000Y-109093000D01*
X161290000Y-110109000D02*
X147574000Y-110109000D01*
X162306000Y-109093000D02*
X161290000Y-110109000D01*
X154178000Y-106553000D02*
X152654000Y-105029000D01*
X152654000Y-105029000D02*
X146050000Y-105029000D01*
X158242000Y-106553000D02*
X154178000Y-106553000D01*
X174498000Y-106553000D02*
X158242000Y-106553000D01*
X154178000Y-104013000D02*
X152654000Y-102489000D01*
X152654000Y-102489000D02*
X146558000Y-102489000D01*
X146558000Y-102489000D02*
X145034000Y-104013000D01*
X160274000Y-104013000D02*
X154178000Y-104013000D01*
X174498000Y-104013000D02*
X160274000Y-104013000D01*
X174498000Y-101473000D02*
X154178000Y-101473000D01*
X154178000Y-101473000D02*
X153162000Y-100457000D01*
X153162000Y-100457000D02*
X147574000Y-100457000D01*
X144018000Y-78613000D02*
X142494000Y-75565000D01*
X147574000Y-78613000D02*
X144018000Y-78613000D01*
X146050000Y-98933000D02*
X174498000Y-98933000D01*
X146156000Y-80243000D02*
X146050000Y-80137000D01*
X146156000Y-86847000D02*
X146156000Y-80243000D01*
X145034000Y-96393000D02*
X174498000Y-96393000D01*
X139954000Y-82168998D02*
X139954000Y-75565000D01*
X144886000Y-87905000D02*
X139954000Y-82168998D01*
X156718000Y-93853000D02*
X174498000Y-93853000D01*
X156718000Y-93853000D02*
X152146000Y-93853000D01*
X152146000Y-93853000D02*
X151130000Y-94869000D01*
X151130000Y-94869000D02*
X144018000Y-94869000D01*
X174498000Y-114173000D02*
X161798000Y-114173000D01*
X161798000Y-114173000D02*
X146558000Y-114173000D01*
X143676000Y-111291000D02*
X146558000Y-114173000D01*
X143676000Y-105195000D02*
X143676000Y-111291000D01*
X174498000Y-111633000D02*
X148590000Y-111633000D01*
X174498000Y-84201000D02*
X171450000Y-84201000D01*
X165862000Y-84201000D02*
X171450000Y-84201000D01*
X164846000Y-85217000D02*
X165862000Y-84201000D01*
D17*
X176328001Y-74843093D02*
X176328000Y-85944123D01*
X176328000Y-85944124D01*
X176328001Y-123790123D01*
X176328000Y-125655000D01*
X126948000Y-125655000D01*
X126948000Y-123598982D01*
X137439400Y-123598982D01*
X137439400Y-124051019D01*
X137461084Y-124271177D01*
X137546775Y-124553664D01*
X137685931Y-124814006D01*
X137873203Y-125042197D01*
X138101395Y-125229469D01*
X138361737Y-125368625D01*
X138644224Y-125454316D01*
X138938000Y-125483251D01*
X139231777Y-125454316D01*
X139514264Y-125368625D01*
X139774606Y-125229469D01*
X140002797Y-125042197D01*
X140190069Y-124814006D01*
X140208000Y-124780459D01*
X140225931Y-124814006D01*
X140413203Y-125042197D01*
X140641395Y-125229469D01*
X140901737Y-125368625D01*
X141184224Y-125454316D01*
X141478000Y-125483251D01*
X141771777Y-125454316D01*
X142054264Y-125368625D01*
X142314606Y-125229469D01*
X142542797Y-125042197D01*
X142730069Y-124814006D01*
X142748000Y-124780459D01*
X142765931Y-124814006D01*
X142953203Y-125042197D01*
X143181395Y-125229469D01*
X143441737Y-125368625D01*
X143724224Y-125454316D01*
X144018000Y-125483251D01*
X144311777Y-125454316D01*
X144594264Y-125368625D01*
X144854606Y-125229469D01*
X145082797Y-125042197D01*
X145270069Y-124814006D01*
X145288000Y-124780459D01*
X145305931Y-124814006D01*
X145493203Y-125042197D01*
X145721395Y-125229469D01*
X145981737Y-125368625D01*
X146264224Y-125454316D01*
X146558000Y-125483251D01*
X146851777Y-125454316D01*
X147134264Y-125368625D01*
X147394606Y-125229469D01*
X147622797Y-125042197D01*
X147810069Y-124814006D01*
X147828000Y-124780459D01*
X147845931Y-124814006D01*
X148033203Y-125042197D01*
X148261395Y-125229469D01*
X148521737Y-125368625D01*
X148804224Y-125454316D01*
X149098000Y-125483251D01*
X149391777Y-125454316D01*
X149674264Y-125368625D01*
X149934606Y-125229469D01*
X150162797Y-125042197D01*
X150350069Y-124814006D01*
X150371424Y-124774053D01*
X150519514Y-124976729D01*
X150735965Y-125175733D01*
X150987081Y-125328686D01*
X151263211Y-125429709D01*
X151278974Y-125432358D01*
X151511000Y-125311217D01*
X151511000Y-123952000D01*
X151765000Y-123952000D01*
X151765000Y-125311217D01*
X151997026Y-125432358D01*
X152012789Y-125429709D01*
X152288919Y-125328686D01*
X152540035Y-125175733D01*
X152756486Y-124976729D01*
X152908000Y-124769367D01*
X153059514Y-124976729D01*
X153275965Y-125175733D01*
X153527081Y-125328686D01*
X153803211Y-125429709D01*
X153818974Y-125432358D01*
X154051000Y-125311217D01*
X154051000Y-123952000D01*
X151765000Y-123952000D01*
X151511000Y-123952000D01*
X151491000Y-123952000D01*
X151491000Y-123698000D01*
X151511000Y-123698000D01*
X151511000Y-122338783D01*
X151765000Y-122338783D01*
X151765000Y-123698000D01*
X154051000Y-123698000D01*
X154051000Y-122338783D01*
X154305000Y-122338783D01*
X154305000Y-123698000D01*
X154325000Y-123698000D01*
X154325000Y-123952000D01*
X154305000Y-123952000D01*
X154305000Y-125311217D01*
X154537026Y-125432358D01*
X154552789Y-125429709D01*
X154828919Y-125328686D01*
X155080035Y-125175733D01*
X155296486Y-124976729D01*
X155444576Y-124774053D01*
X155465931Y-124814006D01*
X155653203Y-125042197D01*
X155881395Y-125229469D01*
X156141737Y-125368625D01*
X156424224Y-125454316D01*
X156718000Y-125483251D01*
X157011777Y-125454316D01*
X157294264Y-125368625D01*
X157554606Y-125229469D01*
X157782797Y-125042197D01*
X157970069Y-124814006D01*
X158109225Y-124553663D01*
X158194916Y-124271176D01*
X158216600Y-124051018D01*
X158216600Y-123598982D01*
X160299400Y-123598982D01*
X160299400Y-124051019D01*
X160321084Y-124271177D01*
X160406775Y-124553664D01*
X160545931Y-124814006D01*
X160733203Y-125042197D01*
X160961395Y-125229469D01*
X161221737Y-125368625D01*
X161504224Y-125454316D01*
X161798000Y-125483251D01*
X162091777Y-125454316D01*
X162374264Y-125368625D01*
X162634606Y-125229469D01*
X162862797Y-125042197D01*
X163050069Y-124814006D01*
X163068000Y-124780459D01*
X163085931Y-124814006D01*
X163273203Y-125042197D01*
X163501395Y-125229469D01*
X163761737Y-125368625D01*
X164044224Y-125454316D01*
X164338000Y-125483251D01*
X164631777Y-125454316D01*
X164914264Y-125368625D01*
X165174606Y-125229469D01*
X165402797Y-125042197D01*
X165590069Y-124814006D01*
X165608000Y-124780459D01*
X165625931Y-124814006D01*
X165813203Y-125042197D01*
X166041395Y-125229469D01*
X166301737Y-125368625D01*
X166584224Y-125454316D01*
X166878000Y-125483251D01*
X167171777Y-125454316D01*
X167454264Y-125368625D01*
X167714606Y-125229469D01*
X167942797Y-125042197D01*
X168130069Y-124814006D01*
X168148000Y-124780459D01*
X168165931Y-124814006D01*
X168353203Y-125042197D01*
X168581395Y-125229469D01*
X168841737Y-125368625D01*
X169124224Y-125454316D01*
X169418000Y-125483251D01*
X169711777Y-125454316D01*
X169994264Y-125368625D01*
X170254606Y-125229469D01*
X170482797Y-125042197D01*
X170670069Y-124814006D01*
X170688000Y-124780459D01*
X170705931Y-124814006D01*
X170893203Y-125042197D01*
X171121395Y-125229469D01*
X171381737Y-125368625D01*
X171664224Y-125454316D01*
X171958000Y-125483251D01*
X172251777Y-125454316D01*
X172534264Y-125368625D01*
X172794606Y-125229469D01*
X173022797Y-125042197D01*
X173210069Y-124814006D01*
X173228000Y-124780459D01*
X173245931Y-124814006D01*
X173433203Y-125042197D01*
X173661395Y-125229469D01*
X173921737Y-125368625D01*
X174204224Y-125454316D01*
X174498000Y-125483251D01*
X174791777Y-125454316D01*
X175074264Y-125368625D01*
X175334606Y-125229469D01*
X175562797Y-125042197D01*
X175750069Y-124814006D01*
X175889225Y-124553663D01*
X175974916Y-124271176D01*
X175996600Y-124051018D01*
X175996600Y-123598981D01*
X175974916Y-123378823D01*
X175889225Y-123096336D01*
X175750069Y-122835994D01*
X175562797Y-122607803D01*
X175334605Y-122420531D01*
X175074263Y-122281375D01*
X174791776Y-122195684D01*
X174498000Y-122166749D01*
X174204223Y-122195684D01*
X173921736Y-122281375D01*
X173661394Y-122420531D01*
X173433203Y-122607803D01*
X173245931Y-122835995D01*
X173228000Y-122869541D01*
X173210069Y-122835994D01*
X173022797Y-122607803D01*
X172794605Y-122420531D01*
X172534263Y-122281375D01*
X172251776Y-122195684D01*
X171958000Y-122166749D01*
X171664223Y-122195684D01*
X171381736Y-122281375D01*
X171121394Y-122420531D01*
X170893203Y-122607803D01*
X170705931Y-122835995D01*
X170688000Y-122869541D01*
X170670069Y-122835994D01*
X170482797Y-122607803D01*
X170254605Y-122420531D01*
X169994263Y-122281375D01*
X169711776Y-122195684D01*
X169418000Y-122166749D01*
X169124223Y-122195684D01*
X168841736Y-122281375D01*
X168581394Y-122420531D01*
X168353203Y-122607803D01*
X168165931Y-122835995D01*
X168148000Y-122869541D01*
X168130069Y-122835994D01*
X167942797Y-122607803D01*
X167714605Y-122420531D01*
X167454263Y-122281375D01*
X167171776Y-122195684D01*
X166878000Y-122166749D01*
X166584223Y-122195684D01*
X166301736Y-122281375D01*
X166041394Y-122420531D01*
X165813203Y-122607803D01*
X165625931Y-122835995D01*
X165608000Y-122869541D01*
X165590069Y-122835994D01*
X165402797Y-122607803D01*
X165174605Y-122420531D01*
X164914263Y-122281375D01*
X164631776Y-122195684D01*
X164338000Y-122166749D01*
X164044223Y-122195684D01*
X163761736Y-122281375D01*
X163501394Y-122420531D01*
X163273203Y-122607803D01*
X163085931Y-122835995D01*
X163068000Y-122869541D01*
X163050069Y-122835994D01*
X162862797Y-122607803D01*
X162634605Y-122420531D01*
X162374263Y-122281375D01*
X162091776Y-122195684D01*
X161798000Y-122166749D01*
X161504223Y-122195684D01*
X161221736Y-122281375D01*
X160961394Y-122420531D01*
X160733203Y-122607803D01*
X160545931Y-122835995D01*
X160406775Y-123096337D01*
X160321084Y-123378824D01*
X160299400Y-123598982D01*
X158216600Y-123598982D01*
X158216600Y-123598981D01*
X158194916Y-123378823D01*
X158109225Y-123096336D01*
X157970069Y-122835994D01*
X157782797Y-122607803D01*
X157554605Y-122420531D01*
X157294263Y-122281375D01*
X157011776Y-122195684D01*
X156718000Y-122166749D01*
X156424223Y-122195684D01*
X156141736Y-122281375D01*
X155881394Y-122420531D01*
X155653203Y-122607803D01*
X155465931Y-122835995D01*
X155444576Y-122875947D01*
X155296486Y-122673271D01*
X155080035Y-122474267D01*
X154828919Y-122321314D01*
X154552789Y-122220291D01*
X154537026Y-122217642D01*
X154305000Y-122338783D01*
X154051000Y-122338783D01*
X153818974Y-122217642D01*
X153803211Y-122220291D01*
X153527081Y-122321314D01*
X153275965Y-122474267D01*
X153059514Y-122673271D01*
X152908000Y-122880633D01*
X152756486Y-122673271D01*
X152540035Y-122474267D01*
X152288919Y-122321314D01*
X152012789Y-122220291D01*
X151997026Y-122217642D01*
X151765000Y-122338783D01*
X151511000Y-122338783D01*
X151278974Y-122217642D01*
X151263211Y-122220291D01*
X150987081Y-122321314D01*
X150735965Y-122474267D01*
X150519514Y-122673271D01*
X150371424Y-122875947D01*
X150350069Y-122835994D01*
X150162797Y-122607803D01*
X149934605Y-122420531D01*
X149674263Y-122281375D01*
X149391776Y-122195684D01*
X149098000Y-122166749D01*
X148804223Y-122195684D01*
X148521736Y-122281375D01*
X148261394Y-122420531D01*
X148033203Y-122607803D01*
X147845931Y-122835995D01*
X147828000Y-122869541D01*
X147810069Y-122835994D01*
X147622797Y-122607803D01*
X147394605Y-122420531D01*
X147134263Y-122281375D01*
X146851776Y-122195684D01*
X146558000Y-122166749D01*
X146264223Y-122195684D01*
X145981736Y-122281375D01*
X145721394Y-122420531D01*
X145493203Y-122607803D01*
X145305931Y-122835995D01*
X145288000Y-122869541D01*
X145270069Y-122835994D01*
X145082797Y-122607803D01*
X144854605Y-122420531D01*
X144594263Y-122281375D01*
X144311776Y-122195684D01*
X144018000Y-122166749D01*
X143724223Y-122195684D01*
X143441736Y-122281375D01*
X143181394Y-122420531D01*
X142953203Y-122607803D01*
X142765931Y-122835995D01*
X142748000Y-122869541D01*
X142730069Y-122835994D01*
X142542797Y-122607803D01*
X142314605Y-122420531D01*
X142054263Y-122281375D01*
X141771776Y-122195684D01*
X141478000Y-122166749D01*
X141184223Y-122195684D01*
X140901736Y-122281375D01*
X140641394Y-122420531D01*
X140413203Y-122607803D01*
X140225931Y-122835995D01*
X140208000Y-122869541D01*
X140190069Y-122835994D01*
X140002797Y-122607803D01*
X139774605Y-122420531D01*
X139514263Y-122281375D01*
X139231776Y-122195684D01*
X138938000Y-122166749D01*
X138644223Y-122195684D01*
X138361736Y-122281375D01*
X138101394Y-122420531D01*
X137873203Y-122607803D01*
X137685931Y-122835995D01*
X137546775Y-123096337D01*
X137461084Y-123378824D01*
X137439400Y-123598982D01*
X126948000Y-123598982D01*
X126948000Y-118144911D01*
X145623000Y-118144911D01*
X145623000Y-118329089D01*
X145658932Y-118509729D01*
X145729414Y-118679889D01*
X145831738Y-118833028D01*
X145961972Y-118963262D01*
X146115111Y-119065586D01*
X146285271Y-119136068D01*
X146465911Y-119172000D01*
X146650089Y-119172000D01*
X146830729Y-119136068D01*
X146864692Y-119122000D01*
X153871308Y-119122000D01*
X153905271Y-119136068D01*
X154085911Y-119172000D01*
X154270089Y-119172000D01*
X154450729Y-119136068D01*
X154620889Y-119065586D01*
X154774028Y-118963262D01*
X154904262Y-118833028D01*
X155006586Y-118679889D01*
X155077068Y-118509729D01*
X155113000Y-118329089D01*
X155113000Y-118144911D01*
X155077068Y-117964271D01*
X155006586Y-117794111D01*
X154904262Y-117640972D01*
X154774028Y-117510738D01*
X154620889Y-117408414D01*
X154450729Y-117337932D01*
X154270089Y-117302000D01*
X154085911Y-117302000D01*
X153905271Y-117337932D01*
X153871308Y-117352000D01*
X146864692Y-117352000D01*
X146830729Y-117337932D01*
X146650089Y-117302000D01*
X146465911Y-117302000D01*
X146285271Y-117337932D01*
X146115111Y-117408414D01*
X145961972Y-117510738D01*
X145831738Y-117640972D01*
X145729414Y-117794111D01*
X145658932Y-117964271D01*
X145623000Y-118144911D01*
X126948000Y-118144911D01*
X126948000Y-115316000D01*
X135890000Y-115316000D01*
X135914776Y-115313560D01*
X135938601Y-115306333D01*
X135960557Y-115294597D01*
X135979803Y-115278803D01*
X135995597Y-115259557D01*
X136007333Y-115237601D01*
X136014560Y-115213776D01*
X136017000Y-115189000D01*
X136017000Y-105102911D01*
X142741000Y-105102911D01*
X142741000Y-105287089D01*
X142776932Y-105467729D01*
X142847414Y-105637889D01*
X142916000Y-105740536D01*
X142916001Y-111253668D01*
X142912324Y-111291000D01*
X142926998Y-111439985D01*
X142970454Y-111583246D01*
X143041026Y-111715276D01*
X143095774Y-111781986D01*
X143136000Y-111831001D01*
X143164998Y-111854799D01*
X145634848Y-114324650D01*
X145658932Y-114445729D01*
X145729414Y-114615889D01*
X145831738Y-114769028D01*
X145961972Y-114899262D01*
X146115111Y-115001586D01*
X146285271Y-115072068D01*
X146465911Y-115108000D01*
X146650089Y-115108000D01*
X146830729Y-115072068D01*
X147000889Y-115001586D01*
X147103535Y-114933000D01*
X161252465Y-114933000D01*
X161355111Y-115001586D01*
X161525271Y-115072068D01*
X161705911Y-115108000D01*
X161890089Y-115108000D01*
X162070729Y-115072068D01*
X162240889Y-115001586D01*
X162343535Y-114933000D01*
X173052584Y-114933000D01*
X173093531Y-115009606D01*
X173280803Y-115237797D01*
X173508994Y-115425069D01*
X173769336Y-115564225D01*
X174051823Y-115649916D01*
X174271981Y-115671600D01*
X174724019Y-115671600D01*
X174944177Y-115649916D01*
X175226664Y-115564225D01*
X175487006Y-115425069D01*
X175715197Y-115237797D01*
X175902469Y-115009606D01*
X176041625Y-114749264D01*
X176127316Y-114466777D01*
X176156251Y-114173000D01*
X176127316Y-113879223D01*
X176041625Y-113596736D01*
X175902469Y-113336394D01*
X175715197Y-113108203D01*
X175487006Y-112920931D01*
X175453460Y-112903000D01*
X175487006Y-112885069D01*
X175715197Y-112697797D01*
X175902469Y-112469606D01*
X176041625Y-112209264D01*
X176127316Y-111926777D01*
X176156251Y-111633000D01*
X176127316Y-111339223D01*
X176041625Y-111056736D01*
X175902469Y-110796394D01*
X175715197Y-110568203D01*
X175487006Y-110380931D01*
X175453460Y-110363000D01*
X175487006Y-110345069D01*
X175715197Y-110157797D01*
X175902469Y-109929606D01*
X176041625Y-109669264D01*
X176127316Y-109386777D01*
X176156251Y-109093000D01*
X176127316Y-108799223D01*
X176041625Y-108516736D01*
X175902469Y-108256394D01*
X175715197Y-108028203D01*
X175487006Y-107840931D01*
X175453460Y-107823000D01*
X175487006Y-107805069D01*
X175715197Y-107617797D01*
X175902469Y-107389606D01*
X176041625Y-107129264D01*
X176127316Y-106846777D01*
X176156251Y-106553000D01*
X176127316Y-106259223D01*
X176041625Y-105976736D01*
X175902469Y-105716394D01*
X175715197Y-105488203D01*
X175487006Y-105300931D01*
X175453460Y-105283000D01*
X175487006Y-105265069D01*
X175715197Y-105077797D01*
X175902469Y-104849606D01*
X176041625Y-104589264D01*
X176127316Y-104306777D01*
X176156251Y-104013000D01*
X176127316Y-103719223D01*
X176041625Y-103436736D01*
X175902469Y-103176394D01*
X175715197Y-102948203D01*
X175487006Y-102760931D01*
X175453460Y-102743000D01*
X175487006Y-102725069D01*
X175715197Y-102537797D01*
X175902469Y-102309606D01*
X176041625Y-102049264D01*
X176127316Y-101766777D01*
X176156251Y-101473000D01*
X176127316Y-101179223D01*
X176041625Y-100896736D01*
X175902469Y-100636394D01*
X175715197Y-100408203D01*
X175487006Y-100220931D01*
X175453460Y-100203000D01*
X175487006Y-100185069D01*
X175715197Y-99997797D01*
X175902469Y-99769606D01*
X176041625Y-99509264D01*
X176127316Y-99226777D01*
X176156251Y-98933000D01*
X176127316Y-98639223D01*
X176041625Y-98356736D01*
X175902469Y-98096394D01*
X175715197Y-97868203D01*
X175487006Y-97680931D01*
X175453460Y-97663000D01*
X175487006Y-97645069D01*
X175715197Y-97457797D01*
X175902469Y-97229606D01*
X176041625Y-96969264D01*
X176127316Y-96686777D01*
X176156251Y-96393000D01*
X176127316Y-96099223D01*
X176041625Y-95816736D01*
X175902469Y-95556394D01*
X175715197Y-95328203D01*
X175487006Y-95140931D01*
X175453460Y-95123000D01*
X175487006Y-95105069D01*
X175715197Y-94917797D01*
X175902469Y-94689606D01*
X176041625Y-94429264D01*
X176127316Y-94146777D01*
X176156251Y-93853000D01*
X176127316Y-93559223D01*
X176041625Y-93276736D01*
X175902469Y-93016394D01*
X175715197Y-92788203D01*
X175487006Y-92600931D01*
X175447053Y-92579576D01*
X175649729Y-92431486D01*
X175848733Y-92215035D01*
X176001686Y-91963919D01*
X176102709Y-91687789D01*
X176105358Y-91672026D01*
X175984217Y-91440000D01*
X174625000Y-91440000D01*
X174625000Y-91460000D01*
X174371000Y-91460000D01*
X174371000Y-91440000D01*
X173011783Y-91440000D01*
X172890642Y-91672026D01*
X172893291Y-91687789D01*
X172994314Y-91963919D01*
X173147267Y-92215035D01*
X173346271Y-92431486D01*
X173548947Y-92579576D01*
X173508994Y-92600931D01*
X173280803Y-92788203D01*
X173093531Y-93016394D01*
X173052584Y-93093000D01*
X157263535Y-93093000D01*
X157160889Y-93024414D01*
X156990729Y-92953932D01*
X156810089Y-92918000D01*
X156625911Y-92918000D01*
X156445271Y-92953932D01*
X156275111Y-93024414D01*
X156172465Y-93093000D01*
X152183322Y-93093000D01*
X152146000Y-93089324D01*
X152108677Y-93093000D01*
X152108667Y-93093000D01*
X151997014Y-93103997D01*
X151853753Y-93147454D01*
X151721723Y-93218026D01*
X151638083Y-93286668D01*
X151605999Y-93312999D01*
X151582201Y-93341997D01*
X150815199Y-94109000D01*
X144563535Y-94109000D01*
X144460889Y-94040414D01*
X144290729Y-93969932D01*
X144110089Y-93934000D01*
X143925911Y-93934000D01*
X143745271Y-93969932D01*
X143575111Y-94040414D01*
X143421972Y-94142738D01*
X143291738Y-94272972D01*
X143189414Y-94426111D01*
X143118932Y-94596271D01*
X143083000Y-94776911D01*
X143083000Y-94961089D01*
X143118932Y-95141729D01*
X143189414Y-95311889D01*
X143291738Y-95465028D01*
X143421972Y-95595262D01*
X143575111Y-95697586D01*
X143745271Y-95768068D01*
X143925911Y-95804000D01*
X144110089Y-95804000D01*
X144290729Y-95768068D01*
X144369107Y-95735603D01*
X144307738Y-95796972D01*
X144205414Y-95950111D01*
X144134932Y-96120271D01*
X144099000Y-96300911D01*
X144099000Y-96485089D01*
X144134932Y-96665729D01*
X144205414Y-96835889D01*
X144307738Y-96989028D01*
X144437972Y-97119262D01*
X144591111Y-97221586D01*
X144761271Y-97292068D01*
X144941911Y-97328000D01*
X145126089Y-97328000D01*
X145306729Y-97292068D01*
X145476889Y-97221586D01*
X145579535Y-97153000D01*
X173052584Y-97153000D01*
X173093531Y-97229606D01*
X173280803Y-97457797D01*
X173508994Y-97645069D01*
X173542540Y-97663000D01*
X173508994Y-97680931D01*
X173280803Y-97868203D01*
X173093531Y-98096394D01*
X173052584Y-98173000D01*
X146595535Y-98173000D01*
X146492889Y-98104414D01*
X146322729Y-98033932D01*
X146142089Y-97998000D01*
X145957911Y-97998000D01*
X145777271Y-98033932D01*
X145607111Y-98104414D01*
X145453972Y-98206738D01*
X145323738Y-98336972D01*
X145221414Y-98490111D01*
X145150932Y-98660271D01*
X145115000Y-98840911D01*
X145115000Y-99025089D01*
X145150932Y-99205729D01*
X145221414Y-99375889D01*
X145323738Y-99529028D01*
X145453972Y-99659262D01*
X145607111Y-99761586D01*
X145777271Y-99832068D01*
X145957911Y-99868000D01*
X146142089Y-99868000D01*
X146322729Y-99832068D01*
X146492889Y-99761586D01*
X146595535Y-99693000D01*
X147034451Y-99693000D01*
X146977972Y-99730738D01*
X146847738Y-99860972D01*
X146745414Y-100014111D01*
X146674932Y-100184271D01*
X146639000Y-100364911D01*
X146639000Y-100549089D01*
X146674932Y-100729729D01*
X146745414Y-100899889D01*
X146847738Y-101053028D01*
X146977972Y-101183262D01*
X147131111Y-101285586D01*
X147301271Y-101356068D01*
X147481911Y-101392000D01*
X147666089Y-101392000D01*
X147846729Y-101356068D01*
X148016889Y-101285586D01*
X148119535Y-101217000D01*
X152847199Y-101217000D01*
X153614201Y-101984003D01*
X153637999Y-102013001D01*
X153666997Y-102036799D01*
X153753723Y-102107974D01*
X153885753Y-102178546D01*
X154029014Y-102222003D01*
X154140667Y-102233000D01*
X154140677Y-102233000D01*
X154178000Y-102236676D01*
X154215322Y-102233000D01*
X173052584Y-102233000D01*
X173093531Y-102309606D01*
X173280803Y-102537797D01*
X173508994Y-102725069D01*
X173542540Y-102743000D01*
X173508994Y-102760931D01*
X173280803Y-102948203D01*
X173093531Y-103176394D01*
X173052584Y-103253000D01*
X160819535Y-103253000D01*
X160716889Y-103184414D01*
X160546729Y-103113932D01*
X160366089Y-103078000D01*
X160181911Y-103078000D01*
X160001271Y-103113932D01*
X159831111Y-103184414D01*
X159728465Y-103253000D01*
X154492803Y-103253000D01*
X153217803Y-101978002D01*
X153194001Y-101948999D01*
X153078276Y-101854026D01*
X152946247Y-101783454D01*
X152802986Y-101739997D01*
X152691333Y-101729000D01*
X152691322Y-101729000D01*
X152654000Y-101725324D01*
X152616678Y-101729000D01*
X146595322Y-101729000D01*
X146557999Y-101725324D01*
X146520676Y-101729000D01*
X146520667Y-101729000D01*
X146409014Y-101739997D01*
X146265753Y-101783454D01*
X146133724Y-101854026D01*
X146133722Y-101854027D01*
X146133723Y-101854027D01*
X146046996Y-101925201D01*
X146046992Y-101925205D01*
X146017999Y-101948999D01*
X145994205Y-101977992D01*
X144882351Y-103089847D01*
X144761271Y-103113932D01*
X144591111Y-103184414D01*
X144437972Y-103286738D01*
X144307738Y-103416972D01*
X144205414Y-103570111D01*
X144134932Y-103740271D01*
X144099000Y-103920911D01*
X144099000Y-104105089D01*
X144134932Y-104285729D01*
X144187281Y-104412112D01*
X144118889Y-104366414D01*
X143948729Y-104295932D01*
X143768089Y-104260000D01*
X143583911Y-104260000D01*
X143403271Y-104295932D01*
X143233111Y-104366414D01*
X143079972Y-104468738D01*
X142949738Y-104598972D01*
X142847414Y-104752111D01*
X142776932Y-104922271D01*
X142741000Y-105102911D01*
X136017000Y-105102911D01*
X136017000Y-90953974D01*
X172890642Y-90953974D01*
X173011783Y-91186000D01*
X174371000Y-91186000D01*
X174371000Y-89972075D01*
X174625000Y-89972075D01*
X174625000Y-91186000D01*
X175984217Y-91186000D01*
X176105358Y-90953974D01*
X176102709Y-90938211D01*
X176001686Y-90662081D01*
X175848733Y-90410965D01*
X175649729Y-90194514D01*
X175412321Y-90021046D01*
X175145633Y-89897227D01*
X174859914Y-89827815D01*
X174625000Y-89972075D01*
X174371000Y-89972075D01*
X174136086Y-89827815D01*
X173850367Y-89897227D01*
X173583679Y-90021046D01*
X173346271Y-90194514D01*
X173147267Y-90410965D01*
X172994314Y-90662081D01*
X172893291Y-90938211D01*
X172890642Y-90953974D01*
X136017000Y-90953974D01*
X136017000Y-84201000D01*
X136014560Y-84176224D01*
X136007333Y-84152399D01*
X135995597Y-84130443D01*
X135979803Y-84111197D01*
X135960557Y-84095403D01*
X135938601Y-84083667D01*
X135914776Y-84076440D01*
X135890000Y-84074000D01*
X126948000Y-84074000D01*
X126948000Y-75338982D01*
X128295400Y-75338982D01*
X128295400Y-75791019D01*
X128317084Y-76011177D01*
X128402775Y-76293664D01*
X128541931Y-76554006D01*
X128729203Y-76782197D01*
X128957395Y-76969469D01*
X129217737Y-77108625D01*
X129500224Y-77194316D01*
X129794000Y-77223251D01*
X130087777Y-77194316D01*
X130370264Y-77108625D01*
X130630606Y-76969469D01*
X130858797Y-76782197D01*
X131046069Y-76554006D01*
X131064000Y-76520459D01*
X131081931Y-76554006D01*
X131269203Y-76782197D01*
X131497395Y-76969469D01*
X131757737Y-77108625D01*
X132040224Y-77194316D01*
X132334000Y-77223251D01*
X132627777Y-77194316D01*
X132910264Y-77108625D01*
X133170606Y-76969469D01*
X133398797Y-76782197D01*
X133586069Y-76554006D01*
X133604000Y-76520459D01*
X133621931Y-76554006D01*
X133809203Y-76782197D01*
X134037395Y-76969469D01*
X134297737Y-77108625D01*
X134580224Y-77194316D01*
X134874000Y-77223251D01*
X135167777Y-77194316D01*
X135450264Y-77108625D01*
X135710606Y-76969469D01*
X135938797Y-76782197D01*
X136126069Y-76554006D01*
X136144000Y-76520459D01*
X136161931Y-76554006D01*
X136349203Y-76782197D01*
X136577395Y-76969469D01*
X136837737Y-77108625D01*
X137120224Y-77194316D01*
X137414000Y-77223251D01*
X137707777Y-77194316D01*
X137990264Y-77108625D01*
X138250606Y-76969469D01*
X138478797Y-76782197D01*
X138666069Y-76554006D01*
X138684000Y-76520459D01*
X138701931Y-76554006D01*
X138889203Y-76782197D01*
X139117395Y-76969469D01*
X139194001Y-77010416D01*
X139194000Y-82102945D01*
X139192483Y-82111606D01*
X139194000Y-82177684D01*
X139194000Y-82206330D01*
X139194858Y-82215036D01*
X139195919Y-82261273D01*
X139202177Y-82289351D01*
X139204997Y-82317983D01*
X139218423Y-82362243D01*
X139228486Y-82407394D01*
X139240103Y-82433714D01*
X139248454Y-82461244D01*
X139270262Y-82502044D01*
X139288937Y-82544354D01*
X139305463Y-82567899D01*
X139319026Y-82593273D01*
X139348370Y-82629029D01*
X139353392Y-82636184D01*
X139372051Y-82657885D01*
X139413999Y-82708999D01*
X139420799Y-82714580D01*
X143951000Y-87983284D01*
X143951000Y-87997089D01*
X143986932Y-88177729D01*
X144057414Y-88347889D01*
X144159738Y-88501028D01*
X144289972Y-88631262D01*
X144443111Y-88733586D01*
X144613271Y-88804068D01*
X144793911Y-88840000D01*
X144978089Y-88840000D01*
X145158729Y-88804068D01*
X145328889Y-88733586D01*
X145482028Y-88631262D01*
X145612262Y-88501028D01*
X145714586Y-88347889D01*
X145785068Y-88177729D01*
X145821000Y-87997089D01*
X145821000Y-87812911D01*
X145800919Y-87711957D01*
X145883271Y-87746068D01*
X146063911Y-87782000D01*
X146248089Y-87782000D01*
X146428729Y-87746068D01*
X146598889Y-87675586D01*
X146752028Y-87573262D01*
X146882262Y-87443028D01*
X146984586Y-87289889D01*
X147055068Y-87119729D01*
X147091000Y-86939089D01*
X147091000Y-86754911D01*
X147055068Y-86574271D01*
X146984586Y-86404111D01*
X146916000Y-86301465D01*
X146916000Y-84616911D01*
X161371000Y-84616911D01*
X161371000Y-84801089D01*
X161406932Y-84981729D01*
X161477414Y-85151889D01*
X161579738Y-85305028D01*
X161709972Y-85435262D01*
X161863111Y-85537586D01*
X162033271Y-85608068D01*
X162213911Y-85644000D01*
X162398089Y-85644000D01*
X162578729Y-85608068D01*
X162748889Y-85537586D01*
X162902028Y-85435262D01*
X163032262Y-85305028D01*
X163134586Y-85151889D01*
X163205068Y-84981729D01*
X163229153Y-84860648D01*
X165668802Y-82421000D01*
X173009928Y-82421000D01*
X173009928Y-82511000D01*
X173022188Y-82635482D01*
X173058498Y-82755180D01*
X173117463Y-82865494D01*
X173196815Y-82962185D01*
X173293506Y-83041537D01*
X173403820Y-83100502D01*
X173476380Y-83122513D01*
X173344525Y-83254368D01*
X173219822Y-83441000D01*
X165899322Y-83441000D01*
X165862000Y-83437324D01*
X165824677Y-83441000D01*
X165824667Y-83441000D01*
X165713014Y-83451997D01*
X165569753Y-83495454D01*
X165437723Y-83566026D01*
X165354083Y-83634668D01*
X165321999Y-83660999D01*
X165298201Y-83689997D01*
X164694351Y-84293847D01*
X164573271Y-84317932D01*
X164403111Y-84388414D01*
X164249972Y-84490738D01*
X164119738Y-84620972D01*
X164017414Y-84774111D01*
X163946932Y-84944271D01*
X163911000Y-85124911D01*
X163911000Y-85309089D01*
X163946932Y-85489729D01*
X164017414Y-85659889D01*
X164119738Y-85813028D01*
X164249972Y-85943262D01*
X164403111Y-86045586D01*
X164573271Y-86116068D01*
X164753911Y-86152000D01*
X164938089Y-86152000D01*
X165118729Y-86116068D01*
X165288889Y-86045586D01*
X165442028Y-85943262D01*
X165572262Y-85813028D01*
X165674586Y-85659889D01*
X165745068Y-85489729D01*
X165769153Y-85368649D01*
X166176802Y-84961000D01*
X173219822Y-84961000D01*
X173344525Y-85147632D01*
X173551368Y-85354475D01*
X173794589Y-85516990D01*
X174064842Y-85628932D01*
X174351740Y-85686000D01*
X174644260Y-85686000D01*
X174931158Y-85628932D01*
X175201411Y-85516990D01*
X175444632Y-85354475D01*
X175651475Y-85147632D01*
X175813990Y-84904411D01*
X175925932Y-84634158D01*
X175983000Y-84347260D01*
X175983000Y-84054740D01*
X175925932Y-83767842D01*
X175813990Y-83497589D01*
X175651475Y-83254368D01*
X175519620Y-83122513D01*
X175592180Y-83100502D01*
X175702494Y-83041537D01*
X175799185Y-82962185D01*
X175878537Y-82865494D01*
X175937502Y-82755180D01*
X175973812Y-82635482D01*
X175986072Y-82511000D01*
X175986072Y-80811000D01*
X175973812Y-80686518D01*
X175937502Y-80566820D01*
X175878537Y-80456506D01*
X175799185Y-80359815D01*
X175702494Y-80280463D01*
X175592180Y-80221498D01*
X175472482Y-80185188D01*
X175348000Y-80172928D01*
X173648000Y-80172928D01*
X173523518Y-80185188D01*
X173403820Y-80221498D01*
X173293506Y-80280463D01*
X173196815Y-80359815D01*
X173117463Y-80456506D01*
X173058498Y-80566820D01*
X173022188Y-80686518D01*
X173009928Y-80811000D01*
X173009928Y-80901000D01*
X165391323Y-80901000D01*
X165354000Y-80897324D01*
X165316677Y-80901000D01*
X165316667Y-80901000D01*
X165205014Y-80911997D01*
X165061753Y-80955454D01*
X164929723Y-81026026D01*
X164873704Y-81072000D01*
X164813999Y-81120999D01*
X164790201Y-81149997D01*
X162154352Y-83785847D01*
X162033271Y-83809932D01*
X161863111Y-83880414D01*
X161709972Y-83982738D01*
X161579738Y-84112972D01*
X161477414Y-84266111D01*
X161406932Y-84436271D01*
X161371000Y-84616911D01*
X146916000Y-84616911D01*
X146916000Y-80489563D01*
X146949068Y-80409729D01*
X146985000Y-80229089D01*
X146985000Y-80044911D01*
X146949068Y-79864271D01*
X146878586Y-79694111D01*
X146776262Y-79540972D01*
X146646028Y-79410738D01*
X146589549Y-79373000D01*
X147028465Y-79373000D01*
X147131111Y-79441586D01*
X147301271Y-79512068D01*
X147481911Y-79548000D01*
X147666089Y-79548000D01*
X147846729Y-79512068D01*
X148016889Y-79441586D01*
X148170028Y-79339262D01*
X148300262Y-79209028D01*
X148402586Y-79055889D01*
X148473068Y-78885729D01*
X148509000Y-78705089D01*
X148509000Y-78520911D01*
X148473068Y-78340271D01*
X148402586Y-78170111D01*
X148300262Y-78016972D01*
X148170028Y-77886738D01*
X148016889Y-77784414D01*
X147846729Y-77713932D01*
X147666089Y-77678000D01*
X147481911Y-77678000D01*
X147301271Y-77713932D01*
X147131111Y-77784414D01*
X147028465Y-77853000D01*
X144487705Y-77853000D01*
X143925954Y-76729498D01*
X143969203Y-76782197D01*
X144197395Y-76969469D01*
X144457737Y-77108625D01*
X144740224Y-77194316D01*
X145034000Y-77223251D01*
X145327777Y-77194316D01*
X145610264Y-77108625D01*
X145870606Y-76969469D01*
X146098797Y-76782197D01*
X146286069Y-76554006D01*
X146304000Y-76520459D01*
X146321931Y-76554006D01*
X146509203Y-76782197D01*
X146737395Y-76969469D01*
X146997737Y-77108625D01*
X147280224Y-77194316D01*
X147574000Y-77223251D01*
X147867777Y-77194316D01*
X148150264Y-77108625D01*
X148410606Y-76969469D01*
X148638797Y-76782197D01*
X148826069Y-76554006D01*
X148844000Y-76520459D01*
X148861931Y-76554006D01*
X149049203Y-76782197D01*
X149277395Y-76969469D01*
X149537737Y-77108625D01*
X149820224Y-77194316D01*
X150114000Y-77223251D01*
X150407777Y-77194316D01*
X150690264Y-77108625D01*
X150950606Y-76969469D01*
X151178797Y-76782197D01*
X151366069Y-76554006D01*
X151384000Y-76520459D01*
X151401931Y-76554006D01*
X151589203Y-76782197D01*
X151817395Y-76969469D01*
X152077737Y-77108625D01*
X152360224Y-77194316D01*
X152654000Y-77223251D01*
X152947777Y-77194316D01*
X153230264Y-77108625D01*
X153490606Y-76969469D01*
X153718797Y-76782197D01*
X153906069Y-76554006D01*
X154045225Y-76293663D01*
X154130916Y-76011176D01*
X154152600Y-75791018D01*
X154152600Y-75338982D01*
X155219400Y-75338982D01*
X155219400Y-75791019D01*
X155241084Y-76011177D01*
X155326775Y-76293664D01*
X155465931Y-76554006D01*
X155653203Y-76782197D01*
X155881395Y-76969469D01*
X156141737Y-77108625D01*
X156424224Y-77194316D01*
X156718000Y-77223251D01*
X157011777Y-77194316D01*
X157294264Y-77108625D01*
X157554606Y-76969469D01*
X157782797Y-76782197D01*
X157970069Y-76554006D01*
X157988000Y-76520459D01*
X158005931Y-76554006D01*
X158193203Y-76782197D01*
X158421395Y-76969469D01*
X158681737Y-77108625D01*
X158964224Y-77194316D01*
X159258000Y-77223251D01*
X159551777Y-77194316D01*
X159834264Y-77108625D01*
X160094606Y-76969469D01*
X160322797Y-76782197D01*
X160510069Y-76554006D01*
X160528000Y-76520459D01*
X160545931Y-76554006D01*
X160733203Y-76782197D01*
X160961395Y-76969469D01*
X161221737Y-77108625D01*
X161504224Y-77194316D01*
X161798000Y-77223251D01*
X162091777Y-77194316D01*
X162374264Y-77108625D01*
X162634606Y-76969469D01*
X162862797Y-76782197D01*
X163050069Y-76554006D01*
X163068000Y-76520459D01*
X163085931Y-76554006D01*
X163273203Y-76782197D01*
X163501395Y-76969469D01*
X163761737Y-77108625D01*
X164044224Y-77194316D01*
X164338000Y-77223251D01*
X164631777Y-77194316D01*
X164914264Y-77108625D01*
X165174606Y-76969469D01*
X165402797Y-76782197D01*
X165590069Y-76554006D01*
X165608000Y-76520459D01*
X165625931Y-76554006D01*
X165813203Y-76782197D01*
X166041395Y-76969469D01*
X166301737Y-77108625D01*
X166584224Y-77194316D01*
X166878000Y-77223251D01*
X167171777Y-77194316D01*
X167454264Y-77108625D01*
X167714606Y-76969469D01*
X167942797Y-76782197D01*
X168130069Y-76554006D01*
X168148000Y-76520459D01*
X168165931Y-76554006D01*
X168353203Y-76782197D01*
X168581395Y-76969469D01*
X168841737Y-77108625D01*
X169124224Y-77194316D01*
X169418000Y-77223251D01*
X169711777Y-77194316D01*
X169994264Y-77108625D01*
X170254606Y-76969469D01*
X170482797Y-76782197D01*
X170670069Y-76554006D01*
X170688000Y-76520459D01*
X170705931Y-76554006D01*
X170893203Y-76782197D01*
X171121395Y-76969469D01*
X171381737Y-77108625D01*
X171664224Y-77194316D01*
X171958000Y-77223251D01*
X172251777Y-77194316D01*
X172534264Y-77108625D01*
X172794606Y-76969469D01*
X173022797Y-76782197D01*
X173210069Y-76554006D01*
X173228000Y-76520459D01*
X173245931Y-76554006D01*
X173433203Y-76782197D01*
X173661395Y-76969469D01*
X173921737Y-77108625D01*
X174204224Y-77194316D01*
X174498000Y-77223251D01*
X174791777Y-77194316D01*
X175074264Y-77108625D01*
X175334606Y-76969469D01*
X175562797Y-76782197D01*
X175750069Y-76554006D01*
X175889225Y-76293663D01*
X175974916Y-76011176D01*
X175996600Y-75791018D01*
X175996600Y-75338981D01*
X175974916Y-75118823D01*
X175889225Y-74836336D01*
X175750069Y-74575994D01*
X175562797Y-74347803D01*
X175334605Y-74160531D01*
X175074263Y-74021375D01*
X174791776Y-73935684D01*
X174498000Y-73906749D01*
X174204223Y-73935684D01*
X173921736Y-74021375D01*
X173661394Y-74160531D01*
X173433203Y-74347803D01*
X173245931Y-74575995D01*
X173228000Y-74609541D01*
X173210069Y-74575994D01*
X173022797Y-74347803D01*
X172794605Y-74160531D01*
X172534263Y-74021375D01*
X172251776Y-73935684D01*
X171958000Y-73906749D01*
X171664223Y-73935684D01*
X171381736Y-74021375D01*
X171121394Y-74160531D01*
X170893203Y-74347803D01*
X170705931Y-74575995D01*
X170688000Y-74609541D01*
X170670069Y-74575994D01*
X170482797Y-74347803D01*
X170254605Y-74160531D01*
X169994263Y-74021375D01*
X169711776Y-73935684D01*
X169418000Y-73906749D01*
X169124223Y-73935684D01*
X168841736Y-74021375D01*
X168581394Y-74160531D01*
X168353203Y-74347803D01*
X168165931Y-74575995D01*
X168148000Y-74609541D01*
X168130069Y-74575994D01*
X167942797Y-74347803D01*
X167714605Y-74160531D01*
X167454263Y-74021375D01*
X167171776Y-73935684D01*
X166878000Y-73906749D01*
X166584223Y-73935684D01*
X166301736Y-74021375D01*
X166041394Y-74160531D01*
X165813203Y-74347803D01*
X165625931Y-74575995D01*
X165608000Y-74609541D01*
X165590069Y-74575994D01*
X165402797Y-74347803D01*
X165174605Y-74160531D01*
X164914263Y-74021375D01*
X164631776Y-73935684D01*
X164338000Y-73906749D01*
X164044223Y-73935684D01*
X163761736Y-74021375D01*
X163501394Y-74160531D01*
X163273203Y-74347803D01*
X163085931Y-74575995D01*
X163068000Y-74609541D01*
X163050069Y-74575994D01*
X162862797Y-74347803D01*
X162634605Y-74160531D01*
X162374263Y-74021375D01*
X162091776Y-73935684D01*
X161798000Y-73906749D01*
X161504223Y-73935684D01*
X161221736Y-74021375D01*
X160961394Y-74160531D01*
X160733203Y-74347803D01*
X160545931Y-74575995D01*
X160528000Y-74609541D01*
X160510069Y-74575994D01*
X160322797Y-74347803D01*
X160094605Y-74160531D01*
X159834263Y-74021375D01*
X159551776Y-73935684D01*
X159258000Y-73906749D01*
X158964223Y-73935684D01*
X158681736Y-74021375D01*
X158421394Y-74160531D01*
X158193203Y-74347803D01*
X158005931Y-74575995D01*
X157988000Y-74609541D01*
X157970069Y-74575994D01*
X157782797Y-74347803D01*
X157554605Y-74160531D01*
X157294263Y-74021375D01*
X157011776Y-73935684D01*
X156718000Y-73906749D01*
X156424223Y-73935684D01*
X156141736Y-74021375D01*
X155881394Y-74160531D01*
X155653203Y-74347803D01*
X155465931Y-74575995D01*
X155326775Y-74836337D01*
X155241084Y-75118824D01*
X155219400Y-75338982D01*
X154152600Y-75338982D01*
X154152600Y-75338981D01*
X154130916Y-75118823D01*
X154045225Y-74836336D01*
X153906069Y-74575994D01*
X153718797Y-74347803D01*
X153490605Y-74160531D01*
X153230263Y-74021375D01*
X152947776Y-73935684D01*
X152654000Y-73906749D01*
X152360223Y-73935684D01*
X152077736Y-74021375D01*
X151817394Y-74160531D01*
X151589203Y-74347803D01*
X151401931Y-74575995D01*
X151384000Y-74609541D01*
X151366069Y-74575994D01*
X151178797Y-74347803D01*
X150950605Y-74160531D01*
X150690263Y-74021375D01*
X150407776Y-73935684D01*
X150114000Y-73906749D01*
X149820223Y-73935684D01*
X149537736Y-74021375D01*
X149277394Y-74160531D01*
X149049203Y-74347803D01*
X148861931Y-74575995D01*
X148844000Y-74609541D01*
X148826069Y-74575994D01*
X148638797Y-74347803D01*
X148410605Y-74160531D01*
X148150263Y-74021375D01*
X147867776Y-73935684D01*
X147574000Y-73906749D01*
X147280223Y-73935684D01*
X146997736Y-74021375D01*
X146737394Y-74160531D01*
X146509203Y-74347803D01*
X146321931Y-74575995D01*
X146304000Y-74609541D01*
X146286069Y-74575994D01*
X146098797Y-74347803D01*
X145870605Y-74160531D01*
X145610263Y-74021375D01*
X145327776Y-73935684D01*
X145034000Y-73906749D01*
X144740223Y-73935684D01*
X144457736Y-74021375D01*
X144197394Y-74160531D01*
X143969203Y-74347803D01*
X143781931Y-74575995D01*
X143764000Y-74609541D01*
X143746069Y-74575994D01*
X143558797Y-74347803D01*
X143330605Y-74160531D01*
X143070263Y-74021375D01*
X142787776Y-73935684D01*
X142494000Y-73906749D01*
X142200223Y-73935684D01*
X141917736Y-74021375D01*
X141657394Y-74160531D01*
X141429203Y-74347803D01*
X141241931Y-74575995D01*
X141224000Y-74609541D01*
X141206069Y-74575994D01*
X141018797Y-74347803D01*
X140790605Y-74160531D01*
X140530263Y-74021375D01*
X140247776Y-73935684D01*
X139954000Y-73906749D01*
X139660223Y-73935684D01*
X139377736Y-74021375D01*
X139117394Y-74160531D01*
X138889203Y-74347803D01*
X138701931Y-74575995D01*
X138684000Y-74609541D01*
X138666069Y-74575994D01*
X138478797Y-74347803D01*
X138250605Y-74160531D01*
X137990263Y-74021375D01*
X137707776Y-73935684D01*
X137414000Y-73906749D01*
X137120223Y-73935684D01*
X136837736Y-74021375D01*
X136577394Y-74160531D01*
X136349203Y-74347803D01*
X136161931Y-74575995D01*
X136144000Y-74609541D01*
X136126069Y-74575994D01*
X135938797Y-74347803D01*
X135710605Y-74160531D01*
X135450263Y-74021375D01*
X135167776Y-73935684D01*
X134874000Y-73906749D01*
X134580223Y-73935684D01*
X134297736Y-74021375D01*
X134037394Y-74160531D01*
X133809203Y-74347803D01*
X133621931Y-74575995D01*
X133604000Y-74609541D01*
X133586069Y-74575994D01*
X133398797Y-74347803D01*
X133170605Y-74160531D01*
X132910263Y-74021375D01*
X132627776Y-73935684D01*
X132334000Y-73906749D01*
X132040223Y-73935684D01*
X131757736Y-74021375D01*
X131497394Y-74160531D01*
X131269203Y-74347803D01*
X131081931Y-74575995D01*
X131064000Y-74609541D01*
X131046069Y-74575994D01*
X130858797Y-74347803D01*
X130630605Y-74160531D01*
X130370263Y-74021375D01*
X130087776Y-73935684D01*
X129794000Y-73906749D01*
X129500223Y-73935684D01*
X129217736Y-74021375D01*
X128957394Y-74160531D01*
X128729203Y-74347803D01*
X128541931Y-74575995D01*
X128402775Y-74836337D01*
X128317084Y-75118824D01*
X128295400Y-75338982D01*
X126948000Y-75338982D01*
X126948000Y-73735000D01*
X175219909Y-73735000D01*
X176328001Y-74843093D01*
G04 #@! TA.AperFunction,Conductor*
D18*
G36*
X176328001Y-74843093D02*
G01*
X176328000Y-85944123D01*
X176328000Y-85944124D01*
X176328001Y-123790123D01*
X176328000Y-125655000D01*
X126948000Y-125655000D01*
X126948000Y-123598982D01*
X137439400Y-123598982D01*
X137439400Y-124051019D01*
X137461084Y-124271177D01*
X137546775Y-124553664D01*
X137685931Y-124814006D01*
X137873203Y-125042197D01*
X138101395Y-125229469D01*
X138361737Y-125368625D01*
X138644224Y-125454316D01*
X138938000Y-125483251D01*
X139231777Y-125454316D01*
X139514264Y-125368625D01*
X139774606Y-125229469D01*
X140002797Y-125042197D01*
X140190069Y-124814006D01*
X140208000Y-124780459D01*
X140225931Y-124814006D01*
X140413203Y-125042197D01*
X140641395Y-125229469D01*
X140901737Y-125368625D01*
X141184224Y-125454316D01*
X141478000Y-125483251D01*
X141771777Y-125454316D01*
X142054264Y-125368625D01*
X142314606Y-125229469D01*
X142542797Y-125042197D01*
X142730069Y-124814006D01*
X142748000Y-124780459D01*
X142765931Y-124814006D01*
X142953203Y-125042197D01*
X143181395Y-125229469D01*
X143441737Y-125368625D01*
X143724224Y-125454316D01*
X144018000Y-125483251D01*
X144311777Y-125454316D01*
X144594264Y-125368625D01*
X144854606Y-125229469D01*
X145082797Y-125042197D01*
X145270069Y-124814006D01*
X145288000Y-124780459D01*
X145305931Y-124814006D01*
X145493203Y-125042197D01*
X145721395Y-125229469D01*
X145981737Y-125368625D01*
X146264224Y-125454316D01*
X146558000Y-125483251D01*
X146851777Y-125454316D01*
X147134264Y-125368625D01*
X147394606Y-125229469D01*
X147622797Y-125042197D01*
X147810069Y-124814006D01*
X147828000Y-124780459D01*
X147845931Y-124814006D01*
X148033203Y-125042197D01*
X148261395Y-125229469D01*
X148521737Y-125368625D01*
X148804224Y-125454316D01*
X149098000Y-125483251D01*
X149391777Y-125454316D01*
X149674264Y-125368625D01*
X149934606Y-125229469D01*
X150162797Y-125042197D01*
X150350069Y-124814006D01*
X150371424Y-124774053D01*
X150519514Y-124976729D01*
X150735965Y-125175733D01*
X150987081Y-125328686D01*
X151263211Y-125429709D01*
X151278974Y-125432358D01*
X151511000Y-125311217D01*
X151511000Y-123952000D01*
X151765000Y-123952000D01*
X151765000Y-125311217D01*
X151997026Y-125432358D01*
X152012789Y-125429709D01*
X152288919Y-125328686D01*
X152540035Y-125175733D01*
X152756486Y-124976729D01*
X152908000Y-124769367D01*
X153059514Y-124976729D01*
X153275965Y-125175733D01*
X153527081Y-125328686D01*
X153803211Y-125429709D01*
X153818974Y-125432358D01*
X154051000Y-125311217D01*
X154051000Y-123952000D01*
X151765000Y-123952000D01*
X151511000Y-123952000D01*
X151491000Y-123952000D01*
X151491000Y-123698000D01*
X151511000Y-123698000D01*
X151511000Y-122338783D01*
X151765000Y-122338783D01*
X151765000Y-123698000D01*
X154051000Y-123698000D01*
X154051000Y-122338783D01*
X154305000Y-122338783D01*
X154305000Y-123698000D01*
X154325000Y-123698000D01*
X154325000Y-123952000D01*
X154305000Y-123952000D01*
X154305000Y-125311217D01*
X154537026Y-125432358D01*
X154552789Y-125429709D01*
X154828919Y-125328686D01*
X155080035Y-125175733D01*
X155296486Y-124976729D01*
X155444576Y-124774053D01*
X155465931Y-124814006D01*
X155653203Y-125042197D01*
X155881395Y-125229469D01*
X156141737Y-125368625D01*
X156424224Y-125454316D01*
X156718000Y-125483251D01*
X157011777Y-125454316D01*
X157294264Y-125368625D01*
X157554606Y-125229469D01*
X157782797Y-125042197D01*
X157970069Y-124814006D01*
X158109225Y-124553663D01*
X158194916Y-124271176D01*
X158216600Y-124051018D01*
X158216600Y-123598982D01*
X160299400Y-123598982D01*
X160299400Y-124051019D01*
X160321084Y-124271177D01*
X160406775Y-124553664D01*
X160545931Y-124814006D01*
X160733203Y-125042197D01*
X160961395Y-125229469D01*
X161221737Y-125368625D01*
X161504224Y-125454316D01*
X161798000Y-125483251D01*
X162091777Y-125454316D01*
X162374264Y-125368625D01*
X162634606Y-125229469D01*
X162862797Y-125042197D01*
X163050069Y-124814006D01*
X163068000Y-124780459D01*
X163085931Y-124814006D01*
X163273203Y-125042197D01*
X163501395Y-125229469D01*
X163761737Y-125368625D01*
X164044224Y-125454316D01*
X164338000Y-125483251D01*
X164631777Y-125454316D01*
X164914264Y-125368625D01*
X165174606Y-125229469D01*
X165402797Y-125042197D01*
X165590069Y-124814006D01*
X165608000Y-124780459D01*
X165625931Y-124814006D01*
X165813203Y-125042197D01*
X166041395Y-125229469D01*
X166301737Y-125368625D01*
X166584224Y-125454316D01*
X166878000Y-125483251D01*
X167171777Y-125454316D01*
X167454264Y-125368625D01*
X167714606Y-125229469D01*
X167942797Y-125042197D01*
X168130069Y-124814006D01*
X168148000Y-124780459D01*
X168165931Y-124814006D01*
X168353203Y-125042197D01*
X168581395Y-125229469D01*
X168841737Y-125368625D01*
X169124224Y-125454316D01*
X169418000Y-125483251D01*
X169711777Y-125454316D01*
X169994264Y-125368625D01*
X170254606Y-125229469D01*
X170482797Y-125042197D01*
X170670069Y-124814006D01*
X170688000Y-124780459D01*
X170705931Y-124814006D01*
X170893203Y-125042197D01*
X171121395Y-125229469D01*
X171381737Y-125368625D01*
X171664224Y-125454316D01*
X171958000Y-125483251D01*
X172251777Y-125454316D01*
X172534264Y-125368625D01*
X172794606Y-125229469D01*
X173022797Y-125042197D01*
X173210069Y-124814006D01*
X173228000Y-124780459D01*
X173245931Y-124814006D01*
X173433203Y-125042197D01*
X173661395Y-125229469D01*
X173921737Y-125368625D01*
X174204224Y-125454316D01*
X174498000Y-125483251D01*
X174791777Y-125454316D01*
X175074264Y-125368625D01*
X175334606Y-125229469D01*
X175562797Y-125042197D01*
X175750069Y-124814006D01*
X175889225Y-124553663D01*
X175974916Y-124271176D01*
X175996600Y-124051018D01*
X175996600Y-123598981D01*
X175974916Y-123378823D01*
X175889225Y-123096336D01*
X175750069Y-122835994D01*
X175562797Y-122607803D01*
X175334605Y-122420531D01*
X175074263Y-122281375D01*
X174791776Y-122195684D01*
X174498000Y-122166749D01*
X174204223Y-122195684D01*
X173921736Y-122281375D01*
X173661394Y-122420531D01*
X173433203Y-122607803D01*
X173245931Y-122835995D01*
X173228000Y-122869541D01*
X173210069Y-122835994D01*
X173022797Y-122607803D01*
X172794605Y-122420531D01*
X172534263Y-122281375D01*
X172251776Y-122195684D01*
X171958000Y-122166749D01*
X171664223Y-122195684D01*
X171381736Y-122281375D01*
X171121394Y-122420531D01*
X170893203Y-122607803D01*
X170705931Y-122835995D01*
X170688000Y-122869541D01*
X170670069Y-122835994D01*
X170482797Y-122607803D01*
X170254605Y-122420531D01*
X169994263Y-122281375D01*
X169711776Y-122195684D01*
X169418000Y-122166749D01*
X169124223Y-122195684D01*
X168841736Y-122281375D01*
X168581394Y-122420531D01*
X168353203Y-122607803D01*
X168165931Y-122835995D01*
X168148000Y-122869541D01*
X168130069Y-122835994D01*
X167942797Y-122607803D01*
X167714605Y-122420531D01*
X167454263Y-122281375D01*
X167171776Y-122195684D01*
X166878000Y-122166749D01*
X166584223Y-122195684D01*
X166301736Y-122281375D01*
X166041394Y-122420531D01*
X165813203Y-122607803D01*
X165625931Y-122835995D01*
X165608000Y-122869541D01*
X165590069Y-122835994D01*
X165402797Y-122607803D01*
X165174605Y-122420531D01*
X164914263Y-122281375D01*
X164631776Y-122195684D01*
X164338000Y-122166749D01*
X164044223Y-122195684D01*
X163761736Y-122281375D01*
X163501394Y-122420531D01*
X163273203Y-122607803D01*
X163085931Y-122835995D01*
X163068000Y-122869541D01*
X163050069Y-122835994D01*
X162862797Y-122607803D01*
X162634605Y-122420531D01*
X162374263Y-122281375D01*
X162091776Y-122195684D01*
X161798000Y-122166749D01*
X161504223Y-122195684D01*
X161221736Y-122281375D01*
X160961394Y-122420531D01*
X160733203Y-122607803D01*
X160545931Y-122835995D01*
X160406775Y-123096337D01*
X160321084Y-123378824D01*
X160299400Y-123598982D01*
X158216600Y-123598982D01*
X158216600Y-123598981D01*
X158194916Y-123378823D01*
X158109225Y-123096336D01*
X157970069Y-122835994D01*
X157782797Y-122607803D01*
X157554605Y-122420531D01*
X157294263Y-122281375D01*
X157011776Y-122195684D01*
X156718000Y-122166749D01*
X156424223Y-122195684D01*
X156141736Y-122281375D01*
X155881394Y-122420531D01*
X155653203Y-122607803D01*
X155465931Y-122835995D01*
X155444576Y-122875947D01*
X155296486Y-122673271D01*
X155080035Y-122474267D01*
X154828919Y-122321314D01*
X154552789Y-122220291D01*
X154537026Y-122217642D01*
X154305000Y-122338783D01*
X154051000Y-122338783D01*
X153818974Y-122217642D01*
X153803211Y-122220291D01*
X153527081Y-122321314D01*
X153275965Y-122474267D01*
X153059514Y-122673271D01*
X152908000Y-122880633D01*
X152756486Y-122673271D01*
X152540035Y-122474267D01*
X152288919Y-122321314D01*
X152012789Y-122220291D01*
X151997026Y-122217642D01*
X151765000Y-122338783D01*
X151511000Y-122338783D01*
X151278974Y-122217642D01*
X151263211Y-122220291D01*
X150987081Y-122321314D01*
X150735965Y-122474267D01*
X150519514Y-122673271D01*
X150371424Y-122875947D01*
X150350069Y-122835994D01*
X150162797Y-122607803D01*
X149934605Y-122420531D01*
X149674263Y-122281375D01*
X149391776Y-122195684D01*
X149098000Y-122166749D01*
X148804223Y-122195684D01*
X148521736Y-122281375D01*
X148261394Y-122420531D01*
X148033203Y-122607803D01*
X147845931Y-122835995D01*
X147828000Y-122869541D01*
X147810069Y-122835994D01*
X147622797Y-122607803D01*
X147394605Y-122420531D01*
X147134263Y-122281375D01*
X146851776Y-122195684D01*
X146558000Y-122166749D01*
X146264223Y-122195684D01*
X145981736Y-122281375D01*
X145721394Y-122420531D01*
X145493203Y-122607803D01*
X145305931Y-122835995D01*
X145288000Y-122869541D01*
X145270069Y-122835994D01*
X145082797Y-122607803D01*
X144854605Y-122420531D01*
X144594263Y-122281375D01*
X144311776Y-122195684D01*
X144018000Y-122166749D01*
X143724223Y-122195684D01*
X143441736Y-122281375D01*
X143181394Y-122420531D01*
X142953203Y-122607803D01*
X142765931Y-122835995D01*
X142748000Y-122869541D01*
X142730069Y-122835994D01*
X142542797Y-122607803D01*
X142314605Y-122420531D01*
X142054263Y-122281375D01*
X141771776Y-122195684D01*
X141478000Y-122166749D01*
X141184223Y-122195684D01*
X140901736Y-122281375D01*
X140641394Y-122420531D01*
X140413203Y-122607803D01*
X140225931Y-122835995D01*
X140208000Y-122869541D01*
X140190069Y-122835994D01*
X140002797Y-122607803D01*
X139774605Y-122420531D01*
X139514263Y-122281375D01*
X139231776Y-122195684D01*
X138938000Y-122166749D01*
X138644223Y-122195684D01*
X138361736Y-122281375D01*
X138101394Y-122420531D01*
X137873203Y-122607803D01*
X137685931Y-122835995D01*
X137546775Y-123096337D01*
X137461084Y-123378824D01*
X137439400Y-123598982D01*
X126948000Y-123598982D01*
X126948000Y-118144911D01*
X145623000Y-118144911D01*
X145623000Y-118329089D01*
X145658932Y-118509729D01*
X145729414Y-118679889D01*
X145831738Y-118833028D01*
X145961972Y-118963262D01*
X146115111Y-119065586D01*
X146285271Y-119136068D01*
X146465911Y-119172000D01*
X146650089Y-119172000D01*
X146830729Y-119136068D01*
X146864692Y-119122000D01*
X153871308Y-119122000D01*
X153905271Y-119136068D01*
X154085911Y-119172000D01*
X154270089Y-119172000D01*
X154450729Y-119136068D01*
X154620889Y-119065586D01*
X154774028Y-118963262D01*
X154904262Y-118833028D01*
X155006586Y-118679889D01*
X155077068Y-118509729D01*
X155113000Y-118329089D01*
X155113000Y-118144911D01*
X155077068Y-117964271D01*
X155006586Y-117794111D01*
X154904262Y-117640972D01*
X154774028Y-117510738D01*
X154620889Y-117408414D01*
X154450729Y-117337932D01*
X154270089Y-117302000D01*
X154085911Y-117302000D01*
X153905271Y-117337932D01*
X153871308Y-117352000D01*
X146864692Y-117352000D01*
X146830729Y-117337932D01*
X146650089Y-117302000D01*
X146465911Y-117302000D01*
X146285271Y-117337932D01*
X146115111Y-117408414D01*
X145961972Y-117510738D01*
X145831738Y-117640972D01*
X145729414Y-117794111D01*
X145658932Y-117964271D01*
X145623000Y-118144911D01*
X126948000Y-118144911D01*
X126948000Y-115316000D01*
X135890000Y-115316000D01*
X135914776Y-115313560D01*
X135938601Y-115306333D01*
X135960557Y-115294597D01*
X135979803Y-115278803D01*
X135995597Y-115259557D01*
X136007333Y-115237601D01*
X136014560Y-115213776D01*
X136017000Y-115189000D01*
X136017000Y-105102911D01*
X142741000Y-105102911D01*
X142741000Y-105287089D01*
X142776932Y-105467729D01*
X142847414Y-105637889D01*
X142916000Y-105740536D01*
X142916001Y-111253668D01*
X142912324Y-111291000D01*
X142926998Y-111439985D01*
X142970454Y-111583246D01*
X143041026Y-111715276D01*
X143095774Y-111781986D01*
X143136000Y-111831001D01*
X143164998Y-111854799D01*
X145634848Y-114324650D01*
X145658932Y-114445729D01*
X145729414Y-114615889D01*
X145831738Y-114769028D01*
X145961972Y-114899262D01*
X146115111Y-115001586D01*
X146285271Y-115072068D01*
X146465911Y-115108000D01*
X146650089Y-115108000D01*
X146830729Y-115072068D01*
X147000889Y-115001586D01*
X147103535Y-114933000D01*
X161252465Y-114933000D01*
X161355111Y-115001586D01*
X161525271Y-115072068D01*
X161705911Y-115108000D01*
X161890089Y-115108000D01*
X162070729Y-115072068D01*
X162240889Y-115001586D01*
X162343535Y-114933000D01*
X173052584Y-114933000D01*
X173093531Y-115009606D01*
X173280803Y-115237797D01*
X173508994Y-115425069D01*
X173769336Y-115564225D01*
X174051823Y-115649916D01*
X174271981Y-115671600D01*
X174724019Y-115671600D01*
X174944177Y-115649916D01*
X175226664Y-115564225D01*
X175487006Y-115425069D01*
X175715197Y-115237797D01*
X175902469Y-115009606D01*
X176041625Y-114749264D01*
X176127316Y-114466777D01*
X176156251Y-114173000D01*
X176127316Y-113879223D01*
X176041625Y-113596736D01*
X175902469Y-113336394D01*
X175715197Y-113108203D01*
X175487006Y-112920931D01*
X175453460Y-112903000D01*
X175487006Y-112885069D01*
X175715197Y-112697797D01*
X175902469Y-112469606D01*
X176041625Y-112209264D01*
X176127316Y-111926777D01*
X176156251Y-111633000D01*
X176127316Y-111339223D01*
X176041625Y-111056736D01*
X175902469Y-110796394D01*
X175715197Y-110568203D01*
X175487006Y-110380931D01*
X175453460Y-110363000D01*
X175487006Y-110345069D01*
X175715197Y-110157797D01*
X175902469Y-109929606D01*
X176041625Y-109669264D01*
X176127316Y-109386777D01*
X176156251Y-109093000D01*
X176127316Y-108799223D01*
X176041625Y-108516736D01*
X175902469Y-108256394D01*
X175715197Y-108028203D01*
X175487006Y-107840931D01*
X175453460Y-107823000D01*
X175487006Y-107805069D01*
X175715197Y-107617797D01*
X175902469Y-107389606D01*
X176041625Y-107129264D01*
X176127316Y-106846777D01*
X176156251Y-106553000D01*
X176127316Y-106259223D01*
X176041625Y-105976736D01*
X175902469Y-105716394D01*
X175715197Y-105488203D01*
X175487006Y-105300931D01*
X175453460Y-105283000D01*
X175487006Y-105265069D01*
X175715197Y-105077797D01*
X175902469Y-104849606D01*
X176041625Y-104589264D01*
X176127316Y-104306777D01*
X176156251Y-104013000D01*
X176127316Y-103719223D01*
X176041625Y-103436736D01*
X175902469Y-103176394D01*
X175715197Y-102948203D01*
X175487006Y-102760931D01*
X175453460Y-102743000D01*
X175487006Y-102725069D01*
X175715197Y-102537797D01*
X175902469Y-102309606D01*
X176041625Y-102049264D01*
X176127316Y-101766777D01*
X176156251Y-101473000D01*
X176127316Y-101179223D01*
X176041625Y-100896736D01*
X175902469Y-100636394D01*
X175715197Y-100408203D01*
X175487006Y-100220931D01*
X175453460Y-100203000D01*
X175487006Y-100185069D01*
X175715197Y-99997797D01*
X175902469Y-99769606D01*
X176041625Y-99509264D01*
X176127316Y-99226777D01*
X176156251Y-98933000D01*
X176127316Y-98639223D01*
X176041625Y-98356736D01*
X175902469Y-98096394D01*
X175715197Y-97868203D01*
X175487006Y-97680931D01*
X175453460Y-97663000D01*
X175487006Y-97645069D01*
X175715197Y-97457797D01*
X175902469Y-97229606D01*
X176041625Y-96969264D01*
X176127316Y-96686777D01*
X176156251Y-96393000D01*
X176127316Y-96099223D01*
X176041625Y-95816736D01*
X175902469Y-95556394D01*
X175715197Y-95328203D01*
X175487006Y-95140931D01*
X175453460Y-95123000D01*
X175487006Y-95105069D01*
X175715197Y-94917797D01*
X175902469Y-94689606D01*
X176041625Y-94429264D01*
X176127316Y-94146777D01*
X176156251Y-93853000D01*
X176127316Y-93559223D01*
X176041625Y-93276736D01*
X175902469Y-93016394D01*
X175715197Y-92788203D01*
X175487006Y-92600931D01*
X175447053Y-92579576D01*
X175649729Y-92431486D01*
X175848733Y-92215035D01*
X176001686Y-91963919D01*
X176102709Y-91687789D01*
X176105358Y-91672026D01*
X175984217Y-91440000D01*
X174625000Y-91440000D01*
X174625000Y-91460000D01*
X174371000Y-91460000D01*
X174371000Y-91440000D01*
X173011783Y-91440000D01*
X172890642Y-91672026D01*
X172893291Y-91687789D01*
X172994314Y-91963919D01*
X173147267Y-92215035D01*
X173346271Y-92431486D01*
X173548947Y-92579576D01*
X173508994Y-92600931D01*
X173280803Y-92788203D01*
X173093531Y-93016394D01*
X173052584Y-93093000D01*
X157263535Y-93093000D01*
X157160889Y-93024414D01*
X156990729Y-92953932D01*
X156810089Y-92918000D01*
X156625911Y-92918000D01*
X156445271Y-92953932D01*
X156275111Y-93024414D01*
X156172465Y-93093000D01*
X152183322Y-93093000D01*
X152146000Y-93089324D01*
X152108677Y-93093000D01*
X152108667Y-93093000D01*
X151997014Y-93103997D01*
X151853753Y-93147454D01*
X151721723Y-93218026D01*
X151638083Y-93286668D01*
X151605999Y-93312999D01*
X151582201Y-93341997D01*
X150815199Y-94109000D01*
X144563535Y-94109000D01*
X144460889Y-94040414D01*
X144290729Y-93969932D01*
X144110089Y-93934000D01*
X143925911Y-93934000D01*
X143745271Y-93969932D01*
X143575111Y-94040414D01*
X143421972Y-94142738D01*
X143291738Y-94272972D01*
X143189414Y-94426111D01*
X143118932Y-94596271D01*
X143083000Y-94776911D01*
X143083000Y-94961089D01*
X143118932Y-95141729D01*
X143189414Y-95311889D01*
X143291738Y-95465028D01*
X143421972Y-95595262D01*
X143575111Y-95697586D01*
X143745271Y-95768068D01*
X143925911Y-95804000D01*
X144110089Y-95804000D01*
X144290729Y-95768068D01*
X144369107Y-95735603D01*
X144307738Y-95796972D01*
X144205414Y-95950111D01*
X144134932Y-96120271D01*
X144099000Y-96300911D01*
X144099000Y-96485089D01*
X144134932Y-96665729D01*
X144205414Y-96835889D01*
X144307738Y-96989028D01*
X144437972Y-97119262D01*
X144591111Y-97221586D01*
X144761271Y-97292068D01*
X144941911Y-97328000D01*
X145126089Y-97328000D01*
X145306729Y-97292068D01*
X145476889Y-97221586D01*
X145579535Y-97153000D01*
X173052584Y-97153000D01*
X173093531Y-97229606D01*
X173280803Y-97457797D01*
X173508994Y-97645069D01*
X173542540Y-97663000D01*
X173508994Y-97680931D01*
X173280803Y-97868203D01*
X173093531Y-98096394D01*
X173052584Y-98173000D01*
X146595535Y-98173000D01*
X146492889Y-98104414D01*
X146322729Y-98033932D01*
X146142089Y-97998000D01*
X145957911Y-97998000D01*
X145777271Y-98033932D01*
X145607111Y-98104414D01*
X145453972Y-98206738D01*
X145323738Y-98336972D01*
X145221414Y-98490111D01*
X145150932Y-98660271D01*
X145115000Y-98840911D01*
X145115000Y-99025089D01*
X145150932Y-99205729D01*
X145221414Y-99375889D01*
X145323738Y-99529028D01*
X145453972Y-99659262D01*
X145607111Y-99761586D01*
X145777271Y-99832068D01*
X145957911Y-99868000D01*
X146142089Y-99868000D01*
X146322729Y-99832068D01*
X146492889Y-99761586D01*
X146595535Y-99693000D01*
X147034451Y-99693000D01*
X146977972Y-99730738D01*
X146847738Y-99860972D01*
X146745414Y-100014111D01*
X146674932Y-100184271D01*
X146639000Y-100364911D01*
X146639000Y-100549089D01*
X146674932Y-100729729D01*
X146745414Y-100899889D01*
X146847738Y-101053028D01*
X146977972Y-101183262D01*
X147131111Y-101285586D01*
X147301271Y-101356068D01*
X147481911Y-101392000D01*
X147666089Y-101392000D01*
X147846729Y-101356068D01*
X148016889Y-101285586D01*
X148119535Y-101217000D01*
X152847199Y-101217000D01*
X153614201Y-101984003D01*
X153637999Y-102013001D01*
X153666997Y-102036799D01*
X153753723Y-102107974D01*
X153885753Y-102178546D01*
X154029014Y-102222003D01*
X154140667Y-102233000D01*
X154140677Y-102233000D01*
X154178000Y-102236676D01*
X154215322Y-102233000D01*
X173052584Y-102233000D01*
X173093531Y-102309606D01*
X173280803Y-102537797D01*
X173508994Y-102725069D01*
X173542540Y-102743000D01*
X173508994Y-102760931D01*
X173280803Y-102948203D01*
X173093531Y-103176394D01*
X173052584Y-103253000D01*
X160819535Y-103253000D01*
X160716889Y-103184414D01*
X160546729Y-103113932D01*
X160366089Y-103078000D01*
X160181911Y-103078000D01*
X160001271Y-103113932D01*
X159831111Y-103184414D01*
X159728465Y-103253000D01*
X154492803Y-103253000D01*
X153217803Y-101978002D01*
X153194001Y-101948999D01*
X153078276Y-101854026D01*
X152946247Y-101783454D01*
X152802986Y-101739997D01*
X152691333Y-101729000D01*
X152691322Y-101729000D01*
X152654000Y-101725324D01*
X152616678Y-101729000D01*
X146595322Y-101729000D01*
X146557999Y-101725324D01*
X146520676Y-101729000D01*
X146520667Y-101729000D01*
X146409014Y-101739997D01*
X146265753Y-101783454D01*
X146133724Y-101854026D01*
X146133722Y-101854027D01*
X146133723Y-101854027D01*
X146046996Y-101925201D01*
X146046992Y-101925205D01*
X146017999Y-101948999D01*
X145994205Y-101977992D01*
X144882351Y-103089847D01*
X144761271Y-103113932D01*
X144591111Y-103184414D01*
X144437972Y-103286738D01*
X144307738Y-103416972D01*
X144205414Y-103570111D01*
X144134932Y-103740271D01*
X144099000Y-103920911D01*
X144099000Y-104105089D01*
X144134932Y-104285729D01*
X144187281Y-104412112D01*
X144118889Y-104366414D01*
X143948729Y-104295932D01*
X143768089Y-104260000D01*
X143583911Y-104260000D01*
X143403271Y-104295932D01*
X143233111Y-104366414D01*
X143079972Y-104468738D01*
X142949738Y-104598972D01*
X142847414Y-104752111D01*
X142776932Y-104922271D01*
X142741000Y-105102911D01*
X136017000Y-105102911D01*
X136017000Y-90953974D01*
X172890642Y-90953974D01*
X173011783Y-91186000D01*
X174371000Y-91186000D01*
X174371000Y-89972075D01*
X174625000Y-89972075D01*
X174625000Y-91186000D01*
X175984217Y-91186000D01*
X176105358Y-90953974D01*
X176102709Y-90938211D01*
X176001686Y-90662081D01*
X175848733Y-90410965D01*
X175649729Y-90194514D01*
X175412321Y-90021046D01*
X175145633Y-89897227D01*
X174859914Y-89827815D01*
X174625000Y-89972075D01*
X174371000Y-89972075D01*
X174136086Y-89827815D01*
X173850367Y-89897227D01*
X173583679Y-90021046D01*
X173346271Y-90194514D01*
X173147267Y-90410965D01*
X172994314Y-90662081D01*
X172893291Y-90938211D01*
X172890642Y-90953974D01*
X136017000Y-90953974D01*
X136017000Y-84201000D01*
X136014560Y-84176224D01*
X136007333Y-84152399D01*
X135995597Y-84130443D01*
X135979803Y-84111197D01*
X135960557Y-84095403D01*
X135938601Y-84083667D01*
X135914776Y-84076440D01*
X135890000Y-84074000D01*
X126948000Y-84074000D01*
X126948000Y-75338982D01*
X128295400Y-75338982D01*
X128295400Y-75791019D01*
X128317084Y-76011177D01*
X128402775Y-76293664D01*
X128541931Y-76554006D01*
X128729203Y-76782197D01*
X128957395Y-76969469D01*
X129217737Y-77108625D01*
X129500224Y-77194316D01*
X129794000Y-77223251D01*
X130087777Y-77194316D01*
X130370264Y-77108625D01*
X130630606Y-76969469D01*
X130858797Y-76782197D01*
X131046069Y-76554006D01*
X131064000Y-76520459D01*
X131081931Y-76554006D01*
X131269203Y-76782197D01*
X131497395Y-76969469D01*
X131757737Y-77108625D01*
X132040224Y-77194316D01*
X132334000Y-77223251D01*
X132627777Y-77194316D01*
X132910264Y-77108625D01*
X133170606Y-76969469D01*
X133398797Y-76782197D01*
X133586069Y-76554006D01*
X133604000Y-76520459D01*
X133621931Y-76554006D01*
X133809203Y-76782197D01*
X134037395Y-76969469D01*
X134297737Y-77108625D01*
X134580224Y-77194316D01*
X134874000Y-77223251D01*
X135167777Y-77194316D01*
X135450264Y-77108625D01*
X135710606Y-76969469D01*
X135938797Y-76782197D01*
X136126069Y-76554006D01*
X136144000Y-76520459D01*
X136161931Y-76554006D01*
X136349203Y-76782197D01*
X136577395Y-76969469D01*
X136837737Y-77108625D01*
X137120224Y-77194316D01*
X137414000Y-77223251D01*
X137707777Y-77194316D01*
X137990264Y-77108625D01*
X138250606Y-76969469D01*
X138478797Y-76782197D01*
X138666069Y-76554006D01*
X138684000Y-76520459D01*
X138701931Y-76554006D01*
X138889203Y-76782197D01*
X139117395Y-76969469D01*
X139194001Y-77010416D01*
X139194000Y-82102945D01*
X139192483Y-82111606D01*
X139194000Y-82177684D01*
X139194000Y-82206330D01*
X139194858Y-82215036D01*
X139195919Y-82261273D01*
X139202177Y-82289351D01*
X139204997Y-82317983D01*
X139218423Y-82362243D01*
X139228486Y-82407394D01*
X139240103Y-82433714D01*
X139248454Y-82461244D01*
X139270262Y-82502044D01*
X139288937Y-82544354D01*
X139305463Y-82567899D01*
X139319026Y-82593273D01*
X139348370Y-82629029D01*
X139353392Y-82636184D01*
X139372051Y-82657885D01*
X139413999Y-82708999D01*
X139420799Y-82714580D01*
X143951000Y-87983284D01*
X143951000Y-87997089D01*
X143986932Y-88177729D01*
X144057414Y-88347889D01*
X144159738Y-88501028D01*
X144289972Y-88631262D01*
X144443111Y-88733586D01*
X144613271Y-88804068D01*
X144793911Y-88840000D01*
X144978089Y-88840000D01*
X145158729Y-88804068D01*
X145328889Y-88733586D01*
X145482028Y-88631262D01*
X145612262Y-88501028D01*
X145714586Y-88347889D01*
X145785068Y-88177729D01*
X145821000Y-87997089D01*
X145821000Y-87812911D01*
X145800919Y-87711957D01*
X145883271Y-87746068D01*
X146063911Y-87782000D01*
X146248089Y-87782000D01*
X146428729Y-87746068D01*
X146598889Y-87675586D01*
X146752028Y-87573262D01*
X146882262Y-87443028D01*
X146984586Y-87289889D01*
X147055068Y-87119729D01*
X147091000Y-86939089D01*
X147091000Y-86754911D01*
X147055068Y-86574271D01*
X146984586Y-86404111D01*
X146916000Y-86301465D01*
X146916000Y-84616911D01*
X161371000Y-84616911D01*
X161371000Y-84801089D01*
X161406932Y-84981729D01*
X161477414Y-85151889D01*
X161579738Y-85305028D01*
X161709972Y-85435262D01*
X161863111Y-85537586D01*
X162033271Y-85608068D01*
X162213911Y-85644000D01*
X162398089Y-85644000D01*
X162578729Y-85608068D01*
X162748889Y-85537586D01*
X162902028Y-85435262D01*
X163032262Y-85305028D01*
X163134586Y-85151889D01*
X163205068Y-84981729D01*
X163229153Y-84860648D01*
X165668802Y-82421000D01*
X173009928Y-82421000D01*
X173009928Y-82511000D01*
X173022188Y-82635482D01*
X173058498Y-82755180D01*
X173117463Y-82865494D01*
X173196815Y-82962185D01*
X173293506Y-83041537D01*
X173403820Y-83100502D01*
X173476380Y-83122513D01*
X173344525Y-83254368D01*
X173219822Y-83441000D01*
X165899322Y-83441000D01*
X165862000Y-83437324D01*
X165824677Y-83441000D01*
X165824667Y-83441000D01*
X165713014Y-83451997D01*
X165569753Y-83495454D01*
X165437723Y-83566026D01*
X165354083Y-83634668D01*
X165321999Y-83660999D01*
X165298201Y-83689997D01*
X164694351Y-84293847D01*
X164573271Y-84317932D01*
X164403111Y-84388414D01*
X164249972Y-84490738D01*
X164119738Y-84620972D01*
X164017414Y-84774111D01*
X163946932Y-84944271D01*
X163911000Y-85124911D01*
X163911000Y-85309089D01*
X163946932Y-85489729D01*
X164017414Y-85659889D01*
X164119738Y-85813028D01*
X164249972Y-85943262D01*
X164403111Y-86045586D01*
X164573271Y-86116068D01*
X164753911Y-86152000D01*
X164938089Y-86152000D01*
X165118729Y-86116068D01*
X165288889Y-86045586D01*
X165442028Y-85943262D01*
X165572262Y-85813028D01*
X165674586Y-85659889D01*
X165745068Y-85489729D01*
X165769153Y-85368649D01*
X166176802Y-84961000D01*
X173219822Y-84961000D01*
X173344525Y-85147632D01*
X173551368Y-85354475D01*
X173794589Y-85516990D01*
X174064842Y-85628932D01*
X174351740Y-85686000D01*
X174644260Y-85686000D01*
X174931158Y-85628932D01*
X175201411Y-85516990D01*
X175444632Y-85354475D01*
X175651475Y-85147632D01*
X175813990Y-84904411D01*
X175925932Y-84634158D01*
X175983000Y-84347260D01*
X175983000Y-84054740D01*
X175925932Y-83767842D01*
X175813990Y-83497589D01*
X175651475Y-83254368D01*
X175519620Y-83122513D01*
X175592180Y-83100502D01*
X175702494Y-83041537D01*
X175799185Y-82962185D01*
X175878537Y-82865494D01*
X175937502Y-82755180D01*
X175973812Y-82635482D01*
X175986072Y-82511000D01*
X175986072Y-80811000D01*
X175973812Y-80686518D01*
X175937502Y-80566820D01*
X175878537Y-80456506D01*
X175799185Y-80359815D01*
X175702494Y-80280463D01*
X175592180Y-80221498D01*
X175472482Y-80185188D01*
X175348000Y-80172928D01*
X173648000Y-80172928D01*
X173523518Y-80185188D01*
X173403820Y-80221498D01*
X173293506Y-80280463D01*
X173196815Y-80359815D01*
X173117463Y-80456506D01*
X173058498Y-80566820D01*
X173022188Y-80686518D01*
X173009928Y-80811000D01*
X173009928Y-80901000D01*
X165391323Y-80901000D01*
X165354000Y-80897324D01*
X165316677Y-80901000D01*
X165316667Y-80901000D01*
X165205014Y-80911997D01*
X165061753Y-80955454D01*
X164929723Y-81026026D01*
X164873704Y-81072000D01*
X164813999Y-81120999D01*
X164790201Y-81149997D01*
X162154352Y-83785847D01*
X162033271Y-83809932D01*
X161863111Y-83880414D01*
X161709972Y-83982738D01*
X161579738Y-84112972D01*
X161477414Y-84266111D01*
X161406932Y-84436271D01*
X161371000Y-84616911D01*
X146916000Y-84616911D01*
X146916000Y-80489563D01*
X146949068Y-80409729D01*
X146985000Y-80229089D01*
X146985000Y-80044911D01*
X146949068Y-79864271D01*
X146878586Y-79694111D01*
X146776262Y-79540972D01*
X146646028Y-79410738D01*
X146589549Y-79373000D01*
X147028465Y-79373000D01*
X147131111Y-79441586D01*
X147301271Y-79512068D01*
X147481911Y-79548000D01*
X147666089Y-79548000D01*
X147846729Y-79512068D01*
X148016889Y-79441586D01*
X148170028Y-79339262D01*
X148300262Y-79209028D01*
X148402586Y-79055889D01*
X148473068Y-78885729D01*
X148509000Y-78705089D01*
X148509000Y-78520911D01*
X148473068Y-78340271D01*
X148402586Y-78170111D01*
X148300262Y-78016972D01*
X148170028Y-77886738D01*
X148016889Y-77784414D01*
X147846729Y-77713932D01*
X147666089Y-77678000D01*
X147481911Y-77678000D01*
X147301271Y-77713932D01*
X147131111Y-77784414D01*
X147028465Y-77853000D01*
X144487705Y-77853000D01*
X143925954Y-76729498D01*
X143969203Y-76782197D01*
X144197395Y-76969469D01*
X144457737Y-77108625D01*
X144740224Y-77194316D01*
X145034000Y-77223251D01*
X145327777Y-77194316D01*
X145610264Y-77108625D01*
X145870606Y-76969469D01*
X146098797Y-76782197D01*
X146286069Y-76554006D01*
X146304000Y-76520459D01*
X146321931Y-76554006D01*
X146509203Y-76782197D01*
X146737395Y-76969469D01*
X146997737Y-77108625D01*
X147280224Y-77194316D01*
X147574000Y-77223251D01*
X147867777Y-77194316D01*
X148150264Y-77108625D01*
X148410606Y-76969469D01*
X148638797Y-76782197D01*
X148826069Y-76554006D01*
X148844000Y-76520459D01*
X148861931Y-76554006D01*
X149049203Y-76782197D01*
X149277395Y-76969469D01*
X149537737Y-77108625D01*
X149820224Y-77194316D01*
X150114000Y-77223251D01*
X150407777Y-77194316D01*
X150690264Y-77108625D01*
X150950606Y-76969469D01*
X151178797Y-76782197D01*
X151366069Y-76554006D01*
X151384000Y-76520459D01*
X151401931Y-76554006D01*
X151589203Y-76782197D01*
X151817395Y-76969469D01*
X152077737Y-77108625D01*
X152360224Y-77194316D01*
X152654000Y-77223251D01*
X152947777Y-77194316D01*
X153230264Y-77108625D01*
X153490606Y-76969469D01*
X153718797Y-76782197D01*
X153906069Y-76554006D01*
X154045225Y-76293663D01*
X154130916Y-76011176D01*
X154152600Y-75791018D01*
X154152600Y-75338982D01*
X155219400Y-75338982D01*
X155219400Y-75791019D01*
X155241084Y-76011177D01*
X155326775Y-76293664D01*
X155465931Y-76554006D01*
X155653203Y-76782197D01*
X155881395Y-76969469D01*
X156141737Y-77108625D01*
X156424224Y-77194316D01*
X156718000Y-77223251D01*
X157011777Y-77194316D01*
X157294264Y-77108625D01*
X157554606Y-76969469D01*
X157782797Y-76782197D01*
X157970069Y-76554006D01*
X157988000Y-76520459D01*
X158005931Y-76554006D01*
X158193203Y-76782197D01*
X158421395Y-76969469D01*
X158681737Y-77108625D01*
X158964224Y-77194316D01*
X159258000Y-77223251D01*
X159551777Y-77194316D01*
X159834264Y-77108625D01*
X160094606Y-76969469D01*
X160322797Y-76782197D01*
X160510069Y-76554006D01*
X160528000Y-76520459D01*
X160545931Y-76554006D01*
X160733203Y-76782197D01*
X160961395Y-76969469D01*
X161221737Y-77108625D01*
X161504224Y-77194316D01*
X161798000Y-77223251D01*
X162091777Y-77194316D01*
X162374264Y-77108625D01*
X162634606Y-76969469D01*
X162862797Y-76782197D01*
X163050069Y-76554006D01*
X163068000Y-76520459D01*
X163085931Y-76554006D01*
X163273203Y-76782197D01*
X163501395Y-76969469D01*
X163761737Y-77108625D01*
X164044224Y-77194316D01*
X164338000Y-77223251D01*
X164631777Y-77194316D01*
X164914264Y-77108625D01*
X165174606Y-76969469D01*
X165402797Y-76782197D01*
X165590069Y-76554006D01*
X165608000Y-76520459D01*
X165625931Y-76554006D01*
X165813203Y-76782197D01*
X166041395Y-76969469D01*
X166301737Y-77108625D01*
X166584224Y-77194316D01*
X166878000Y-77223251D01*
X167171777Y-77194316D01*
X167454264Y-77108625D01*
X167714606Y-76969469D01*
X167942797Y-76782197D01*
X168130069Y-76554006D01*
X168148000Y-76520459D01*
X168165931Y-76554006D01*
X168353203Y-76782197D01*
X168581395Y-76969469D01*
X168841737Y-77108625D01*
X169124224Y-77194316D01*
X169418000Y-77223251D01*
X169711777Y-77194316D01*
X169994264Y-77108625D01*
X170254606Y-76969469D01*
X170482797Y-76782197D01*
X170670069Y-76554006D01*
X170688000Y-76520459D01*
X170705931Y-76554006D01*
X170893203Y-76782197D01*
X171121395Y-76969469D01*
X171381737Y-77108625D01*
X171664224Y-77194316D01*
X171958000Y-77223251D01*
X172251777Y-77194316D01*
X172534264Y-77108625D01*
X172794606Y-76969469D01*
X173022797Y-76782197D01*
X173210069Y-76554006D01*
X173228000Y-76520459D01*
X173245931Y-76554006D01*
X173433203Y-76782197D01*
X173661395Y-76969469D01*
X173921737Y-77108625D01*
X174204224Y-77194316D01*
X174498000Y-77223251D01*
X174791777Y-77194316D01*
X175074264Y-77108625D01*
X175334606Y-76969469D01*
X175562797Y-76782197D01*
X175750069Y-76554006D01*
X175889225Y-76293663D01*
X175974916Y-76011176D01*
X175996600Y-75791018D01*
X175996600Y-75338981D01*
X175974916Y-75118823D01*
X175889225Y-74836336D01*
X175750069Y-74575994D01*
X175562797Y-74347803D01*
X175334605Y-74160531D01*
X175074263Y-74021375D01*
X174791776Y-73935684D01*
X174498000Y-73906749D01*
X174204223Y-73935684D01*
X173921736Y-74021375D01*
X173661394Y-74160531D01*
X173433203Y-74347803D01*
X173245931Y-74575995D01*
X173228000Y-74609541D01*
X173210069Y-74575994D01*
X173022797Y-74347803D01*
X172794605Y-74160531D01*
X172534263Y-74021375D01*
X172251776Y-73935684D01*
X171958000Y-73906749D01*
X171664223Y-73935684D01*
X171381736Y-74021375D01*
X171121394Y-74160531D01*
X170893203Y-74347803D01*
X170705931Y-74575995D01*
X170688000Y-74609541D01*
X170670069Y-74575994D01*
X170482797Y-74347803D01*
X170254605Y-74160531D01*
X169994263Y-74021375D01*
X169711776Y-73935684D01*
X169418000Y-73906749D01*
X169124223Y-73935684D01*
X168841736Y-74021375D01*
X168581394Y-74160531D01*
X168353203Y-74347803D01*
X168165931Y-74575995D01*
X168148000Y-74609541D01*
X168130069Y-74575994D01*
X167942797Y-74347803D01*
X167714605Y-74160531D01*
X167454263Y-74021375D01*
X167171776Y-73935684D01*
X166878000Y-73906749D01*
X166584223Y-73935684D01*
X166301736Y-74021375D01*
X166041394Y-74160531D01*
X165813203Y-74347803D01*
X165625931Y-74575995D01*
X165608000Y-74609541D01*
X165590069Y-74575994D01*
X165402797Y-74347803D01*
X165174605Y-74160531D01*
X164914263Y-74021375D01*
X164631776Y-73935684D01*
X164338000Y-73906749D01*
X164044223Y-73935684D01*
X163761736Y-74021375D01*
X163501394Y-74160531D01*
X163273203Y-74347803D01*
X163085931Y-74575995D01*
X163068000Y-74609541D01*
X163050069Y-74575994D01*
X162862797Y-74347803D01*
X162634605Y-74160531D01*
X162374263Y-74021375D01*
X162091776Y-73935684D01*
X161798000Y-73906749D01*
X161504223Y-73935684D01*
X161221736Y-74021375D01*
X160961394Y-74160531D01*
X160733203Y-74347803D01*
X160545931Y-74575995D01*
X160528000Y-74609541D01*
X160510069Y-74575994D01*
X160322797Y-74347803D01*
X160094605Y-74160531D01*
X159834263Y-74021375D01*
X159551776Y-73935684D01*
X159258000Y-73906749D01*
X158964223Y-73935684D01*
X158681736Y-74021375D01*
X158421394Y-74160531D01*
X158193203Y-74347803D01*
X158005931Y-74575995D01*
X157988000Y-74609541D01*
X157970069Y-74575994D01*
X157782797Y-74347803D01*
X157554605Y-74160531D01*
X157294263Y-74021375D01*
X157011776Y-73935684D01*
X156718000Y-73906749D01*
X156424223Y-73935684D01*
X156141736Y-74021375D01*
X155881394Y-74160531D01*
X155653203Y-74347803D01*
X155465931Y-74575995D01*
X155326775Y-74836337D01*
X155241084Y-75118824D01*
X155219400Y-75338982D01*
X154152600Y-75338982D01*
X154152600Y-75338981D01*
X154130916Y-75118823D01*
X154045225Y-74836336D01*
X153906069Y-74575994D01*
X153718797Y-74347803D01*
X153490605Y-74160531D01*
X153230263Y-74021375D01*
X152947776Y-73935684D01*
X152654000Y-73906749D01*
X152360223Y-73935684D01*
X152077736Y-74021375D01*
X151817394Y-74160531D01*
X151589203Y-74347803D01*
X151401931Y-74575995D01*
X151384000Y-74609541D01*
X151366069Y-74575994D01*
X151178797Y-74347803D01*
X150950605Y-74160531D01*
X150690263Y-74021375D01*
X150407776Y-73935684D01*
X150114000Y-73906749D01*
X149820223Y-73935684D01*
X149537736Y-74021375D01*
X149277394Y-74160531D01*
X149049203Y-74347803D01*
X148861931Y-74575995D01*
X148844000Y-74609541D01*
X148826069Y-74575994D01*
X148638797Y-74347803D01*
X148410605Y-74160531D01*
X148150263Y-74021375D01*
X147867776Y-73935684D01*
X147574000Y-73906749D01*
X147280223Y-73935684D01*
X146997736Y-74021375D01*
X146737394Y-74160531D01*
X146509203Y-74347803D01*
X146321931Y-74575995D01*
X146304000Y-74609541D01*
X146286069Y-74575994D01*
X146098797Y-74347803D01*
X145870605Y-74160531D01*
X145610263Y-74021375D01*
X145327776Y-73935684D01*
X145034000Y-73906749D01*
X144740223Y-73935684D01*
X144457736Y-74021375D01*
X144197394Y-74160531D01*
X143969203Y-74347803D01*
X143781931Y-74575995D01*
X143764000Y-74609541D01*
X143746069Y-74575994D01*
X143558797Y-74347803D01*
X143330605Y-74160531D01*
X143070263Y-74021375D01*
X142787776Y-73935684D01*
X142494000Y-73906749D01*
X142200223Y-73935684D01*
X141917736Y-74021375D01*
X141657394Y-74160531D01*
X141429203Y-74347803D01*
X141241931Y-74575995D01*
X141224000Y-74609541D01*
X141206069Y-74575994D01*
X141018797Y-74347803D01*
X140790605Y-74160531D01*
X140530263Y-74021375D01*
X140247776Y-73935684D01*
X139954000Y-73906749D01*
X139660223Y-73935684D01*
X139377736Y-74021375D01*
X139117394Y-74160531D01*
X138889203Y-74347803D01*
X138701931Y-74575995D01*
X138684000Y-74609541D01*
X138666069Y-74575994D01*
X138478797Y-74347803D01*
X138250605Y-74160531D01*
X137990263Y-74021375D01*
X137707776Y-73935684D01*
X137414000Y-73906749D01*
X137120223Y-73935684D01*
X136837736Y-74021375D01*
X136577394Y-74160531D01*
X136349203Y-74347803D01*
X136161931Y-74575995D01*
X136144000Y-74609541D01*
X136126069Y-74575994D01*
X135938797Y-74347803D01*
X135710605Y-74160531D01*
X135450263Y-74021375D01*
X135167776Y-73935684D01*
X134874000Y-73906749D01*
X134580223Y-73935684D01*
X134297736Y-74021375D01*
X134037394Y-74160531D01*
X133809203Y-74347803D01*
X133621931Y-74575995D01*
X133604000Y-74609541D01*
X133586069Y-74575994D01*
X133398797Y-74347803D01*
X133170605Y-74160531D01*
X132910263Y-74021375D01*
X132627776Y-73935684D01*
X132334000Y-73906749D01*
X132040223Y-73935684D01*
X131757736Y-74021375D01*
X131497394Y-74160531D01*
X131269203Y-74347803D01*
X131081931Y-74575995D01*
X131064000Y-74609541D01*
X131046069Y-74575994D01*
X130858797Y-74347803D01*
X130630605Y-74160531D01*
X130370263Y-74021375D01*
X130087776Y-73935684D01*
X129794000Y-73906749D01*
X129500223Y-73935684D01*
X129217736Y-74021375D01*
X128957394Y-74160531D01*
X128729203Y-74347803D01*
X128541931Y-74575995D01*
X128402775Y-74836337D01*
X128317084Y-75118824D01*
X128295400Y-75338982D01*
X126948000Y-75338982D01*
X126948000Y-73735000D01*
X175219909Y-73735000D01*
X176328001Y-74843093D01*
G37*
G04 #@! TD.AperFunction*
M02*
