G04 #@! TF.GenerationSoftware,KiCad,Pcbnew,(5.1.9-0-10_14)*
G04 #@! TF.CreationDate,2021-01-31T13:48:18+01:00*
G04 #@! TF.ProjectId,SX1280-Shield,53583132-3830-42d5-9368-69656c642e6b,rev?*
G04 #@! TF.SameCoordinates,Original*
G04 #@! TF.FileFunction,Copper,L1,Top*
G04 #@! TF.FilePolarity,Positive*
%FSLAX46Y46*%
G04 Gerber Fmt 4.6, Leading zero omitted, Abs format (unit mm)*
G04 Created by KiCad (PCBNEW (5.1.9-0-10_14)) date 2021-01-31 13:48:18*
%MOMM*%
%LPD*%
G01*
G04 APERTURE LIST*
G04 #@! TA.AperFunction,SMDPad,CuDef*
%ADD10R,0.800000X2.000000*%
G04 #@! TD*
G04 #@! TA.AperFunction,ComponentPad*
%ADD11O,1.700000X1.700000*%
G04 #@! TD*
G04 #@! TA.AperFunction,ComponentPad*
%ADD12R,1.700000X1.700000*%
G04 #@! TD*
G04 #@! TA.AperFunction,ComponentPad*
%ADD13O,2.032000X1.727200*%
G04 #@! TD*
G04 #@! TA.AperFunction,ComponentPad*
%ADD14O,1.727200X2.032000*%
G04 #@! TD*
G04 #@! TA.AperFunction,ViaPad*
%ADD15C,0.600000*%
G04 #@! TD*
G04 #@! TA.AperFunction,Conductor*
%ADD16C,0.500000*%
G04 #@! TD*
G04 #@! TA.AperFunction,Conductor*
%ADD17C,0.250000*%
G04 #@! TD*
G04 APERTURE END LIST*
D10*
X150026000Y-92449000D03*
X148756000Y-92449000D03*
X147426000Y-92449000D03*
X146156000Y-92449000D03*
X143616000Y-92449000D03*
X144886000Y-92449000D03*
X142346000Y-92449000D03*
X150026000Y-107549000D03*
X148756000Y-107549000D03*
X147486000Y-107549000D03*
X146216000Y-107549000D03*
X144946000Y-107549000D03*
X143676000Y-107549000D03*
X142406000Y-107549000D03*
D11*
X174498000Y-84201000D03*
D12*
X174498000Y-81661000D03*
D13*
X174498000Y-114173000D03*
X174498000Y-111633000D03*
X174498000Y-109093000D03*
X174498000Y-106553000D03*
X174498000Y-104013000D03*
X174498000Y-101473000D03*
X174498000Y-98933000D03*
X174498000Y-96393000D03*
X174498000Y-93853000D03*
X174498000Y-91313000D03*
D14*
X138938000Y-123825000D03*
X141478000Y-123825000D03*
X144018000Y-123825000D03*
X146558000Y-123825000D03*
X149098000Y-123825000D03*
X151638000Y-123825000D03*
X154178000Y-123825000D03*
X156718000Y-123825000D03*
X161798000Y-123825000D03*
X164338000Y-123825000D03*
X166878000Y-123825000D03*
X169418000Y-123825000D03*
X171958000Y-123825000D03*
X174498000Y-123825000D03*
X129794000Y-75565000D03*
X132334000Y-75565000D03*
X134874000Y-75565000D03*
X137414000Y-75565000D03*
X139954000Y-75565000D03*
X142494000Y-75565000D03*
X145034000Y-75565000D03*
X147574000Y-75565000D03*
X150114000Y-75565000D03*
X152654000Y-75565000D03*
X156718000Y-75565000D03*
X159258000Y-75565000D03*
X161798000Y-75565000D03*
X164338000Y-75565000D03*
X166878000Y-75565000D03*
X169418000Y-75565000D03*
X171958000Y-75565000D03*
X174498000Y-75565000D03*
D15*
X149098000Y-89281000D03*
X142494000Y-89281000D03*
X146558000Y-118237000D03*
X154178000Y-118237000D03*
X147486000Y-110021000D03*
X162306000Y-84709000D03*
X162306000Y-109093000D03*
X146050000Y-105029000D03*
X158242000Y-106553000D03*
X145034000Y-104013000D03*
X160274000Y-104013000D03*
X147574000Y-100457000D03*
X147574000Y-78613000D03*
X146050000Y-98933000D03*
X146050000Y-80137000D03*
X146156000Y-86847000D03*
X145034000Y-96393000D03*
X144886000Y-87905000D03*
X156718000Y-93853000D03*
X144018000Y-94869000D03*
X161798000Y-114173000D03*
X146558000Y-114173000D03*
X143676000Y-105195000D03*
X148590000Y-111633000D03*
X164846000Y-111633000D03*
X164846000Y-85217000D03*
D16*
X142346000Y-107489000D02*
X142406000Y-107549000D01*
X142346000Y-92449000D02*
X142346000Y-107489000D01*
X154178000Y-123825000D02*
X151638000Y-123825000D01*
X150676000Y-107549000D02*
X150026000Y-107549000D01*
X151638000Y-108511000D02*
X150676000Y-107549000D01*
X151638000Y-123825000D02*
X151638000Y-108511000D01*
X148756000Y-89623000D02*
X149098000Y-89281000D01*
X148756000Y-92449000D02*
X148756000Y-89623000D01*
X142494000Y-92301000D02*
X142346000Y-92449000D01*
X142494000Y-89281000D02*
X142494000Y-92301000D01*
X146558000Y-123825000D02*
X146558000Y-118237000D01*
X146558000Y-118237000D02*
X146558000Y-118237000D01*
X154178000Y-96601000D02*
X150026000Y-92449000D01*
X154178000Y-118237000D02*
X154178000Y-96601000D01*
D17*
X147486000Y-107549000D02*
X147486000Y-110021000D01*
X162306000Y-108585000D02*
X162306000Y-84709000D01*
X162306000Y-109093000D02*
X162306000Y-108585000D01*
X146216000Y-107549000D02*
X146216000Y-105195000D01*
X146216000Y-105195000D02*
X146050000Y-105029000D01*
X161798000Y-75565000D02*
X161798000Y-78105000D01*
X161798000Y-78105000D02*
X158242000Y-81661000D01*
X158242000Y-81661000D02*
X158242000Y-106553000D01*
X144946000Y-107549000D02*
X144946000Y-104101000D01*
X166878000Y-75565000D02*
X166878000Y-77597000D01*
X166878000Y-77597000D02*
X160274000Y-84201000D01*
X160274000Y-84201000D02*
X160274000Y-104013000D01*
X147574000Y-92597000D02*
X147426000Y-92449000D01*
X147574000Y-100457000D02*
X147574000Y-92597000D01*
X147426000Y-92449000D02*
X147574000Y-78613000D01*
X145034000Y-77597000D02*
X145034000Y-75565000D01*
X146156000Y-78719000D02*
X145034000Y-77597000D01*
X146156000Y-98827000D02*
X146050000Y-98933000D01*
X146156000Y-92449000D02*
X146156000Y-98827000D01*
X146050000Y-78825000D02*
X146156000Y-78719000D01*
X146050000Y-80137000D02*
X146050000Y-78825000D01*
X146156000Y-92449000D02*
X146156000Y-86847000D01*
X145034000Y-92597000D02*
X144886000Y-92449000D01*
X145034000Y-96393000D02*
X145034000Y-92597000D01*
X144886000Y-92449000D02*
X144886000Y-87905000D01*
X156718000Y-83185000D02*
X156718000Y-75565000D01*
X156718000Y-83185000D02*
X156718000Y-93853000D01*
X144018000Y-94869000D02*
X143510000Y-94869000D01*
X143510000Y-92555000D02*
X143616000Y-92449000D01*
X143510000Y-94869000D02*
X143510000Y-92555000D01*
X161798000Y-123825000D02*
X161798000Y-114173000D01*
X143510000Y-107715000D02*
X143676000Y-107549000D01*
X143676000Y-107549000D02*
X143676000Y-105195000D01*
X148590000Y-107715000D02*
X148756000Y-107549000D01*
X148590000Y-111633000D02*
X148590000Y-107715000D01*
X164846000Y-85217000D02*
X164846000Y-87249000D01*
X164846000Y-87249000D02*
X164846000Y-111633000D01*
M02*
