G04 #@! TF.GenerationSoftware,KiCad,Pcbnew,(5.1.9-0-10_14)*
G04 #@! TF.CreationDate,2021-01-31T13:48:18+01:00*
G04 #@! TF.ProjectId,SX1280-Shield,53583132-3830-42d5-9368-69656c642e6b,rev?*
G04 #@! TF.SameCoordinates,Original*
G04 #@! TF.FileFunction,Soldermask,Top*
G04 #@! TF.FilePolarity,Negative*
%FSLAX46Y46*%
G04 Gerber Fmt 4.6, Leading zero omitted, Abs format (unit mm)*
G04 Created by KiCad (PCBNEW (5.1.9-0-10_14)) date 2021-01-31 13:48:18*
%MOMM*%
%LPD*%
G01*
G04 APERTURE LIST*
%ADD10R,0.800000X2.000000*%
%ADD11O,1.700000X1.700000*%
%ADD12R,1.700000X1.700000*%
%ADD13O,2.032000X1.727200*%
%ADD14O,1.727200X2.032000*%
G04 APERTURE END LIST*
D10*
X150026000Y-92449000D03*
X148756000Y-92449000D03*
X147426000Y-92449000D03*
X146156000Y-92449000D03*
X143616000Y-92449000D03*
X144886000Y-92449000D03*
X142346000Y-92449000D03*
X150026000Y-107549000D03*
X148756000Y-107549000D03*
X147486000Y-107549000D03*
X146216000Y-107549000D03*
X144946000Y-107549000D03*
X143676000Y-107549000D03*
X142406000Y-107549000D03*
D11*
X174498000Y-84201000D03*
D12*
X174498000Y-81661000D03*
D13*
X174498000Y-114173000D03*
X174498000Y-111633000D03*
X174498000Y-109093000D03*
X174498000Y-106553000D03*
X174498000Y-104013000D03*
X174498000Y-101473000D03*
X174498000Y-98933000D03*
X174498000Y-96393000D03*
X174498000Y-93853000D03*
X174498000Y-91313000D03*
D14*
X138938000Y-123825000D03*
X141478000Y-123825000D03*
X144018000Y-123825000D03*
X146558000Y-123825000D03*
X149098000Y-123825000D03*
X151638000Y-123825000D03*
X154178000Y-123825000D03*
X156718000Y-123825000D03*
X161798000Y-123825000D03*
X164338000Y-123825000D03*
X166878000Y-123825000D03*
X169418000Y-123825000D03*
X171958000Y-123825000D03*
X174498000Y-123825000D03*
X129794000Y-75565000D03*
X132334000Y-75565000D03*
X134874000Y-75565000D03*
X137414000Y-75565000D03*
X139954000Y-75565000D03*
X142494000Y-75565000D03*
X145034000Y-75565000D03*
X147574000Y-75565000D03*
X150114000Y-75565000D03*
X152654000Y-75565000D03*
X156718000Y-75565000D03*
X159258000Y-75565000D03*
X161798000Y-75565000D03*
X164338000Y-75565000D03*
X166878000Y-75565000D03*
X169418000Y-75565000D03*
X171958000Y-75565000D03*
X174498000Y-75565000D03*
M02*
