G04 #@! TF.GenerationSoftware,KiCad,Pcbnew,(5.1.9-0-10_14)*
G04 #@! TF.CreationDate,2021-01-31T13:48:18+01:00*
G04 #@! TF.ProjectId,SX1280-Shield,53583132-3830-42d5-9368-69656c642e6b,rev?*
G04 #@! TF.SameCoordinates,Original*
G04 #@! TF.FileFunction,Legend,Top*
G04 #@! TF.FilePolarity,Positive*
%FSLAX46Y46*%
G04 Gerber Fmt 4.6, Leading zero omitted, Abs format (unit mm)*
G04 Created by KiCad (PCBNEW (5.1.9-0-10_14)) date 2021-01-31 13:48:18*
%MOMM*%
%LPD*%
G01*
G04 APERTURE LIST*
%ADD10C,0.300000*%
%ADD11C,0.150000*%
%ADD12C,0.010000*%
%ADD13C,0.120000*%
G04 APERTURE END LIST*
D10*
X128870285Y-84041142D02*
X129084571Y-84112571D01*
X129441714Y-84112571D01*
X129584571Y-84041142D01*
X129656000Y-83969714D01*
X129727428Y-83826857D01*
X129727428Y-83684000D01*
X129656000Y-83541142D01*
X129584571Y-83469714D01*
X129441714Y-83398285D01*
X129156000Y-83326857D01*
X129013142Y-83255428D01*
X128941714Y-83184000D01*
X128870285Y-83041142D01*
X128870285Y-82898285D01*
X128941714Y-82755428D01*
X129013142Y-82684000D01*
X129156000Y-82612571D01*
X129513142Y-82612571D01*
X129727428Y-82684000D01*
X130227428Y-82612571D02*
X131227428Y-84112571D01*
X131227428Y-82612571D02*
X130227428Y-84112571D01*
X132584571Y-84112571D02*
X131727428Y-84112571D01*
X132156000Y-84112571D02*
X132156000Y-82612571D01*
X132013142Y-82826857D01*
X131870285Y-82969714D01*
X131727428Y-83041142D01*
X133156000Y-82755428D02*
X133227428Y-82684000D01*
X133370285Y-82612571D01*
X133727428Y-82612571D01*
X133870285Y-82684000D01*
X133941714Y-82755428D01*
X134013142Y-82898285D01*
X134013142Y-83041142D01*
X133941714Y-83255428D01*
X133084571Y-84112571D01*
X134013142Y-84112571D01*
X134870285Y-83255428D02*
X134727428Y-83184000D01*
X134656000Y-83112571D01*
X134584571Y-82969714D01*
X134584571Y-82898285D01*
X134656000Y-82755428D01*
X134727428Y-82684000D01*
X134870285Y-82612571D01*
X135156000Y-82612571D01*
X135298857Y-82684000D01*
X135370285Y-82755428D01*
X135441714Y-82898285D01*
X135441714Y-82969714D01*
X135370285Y-83112571D01*
X135298857Y-83184000D01*
X135156000Y-83255428D01*
X134870285Y-83255428D01*
X134727428Y-83326857D01*
X134656000Y-83398285D01*
X134584571Y-83541142D01*
X134584571Y-83826857D01*
X134656000Y-83969714D01*
X134727428Y-84041142D01*
X134870285Y-84112571D01*
X135156000Y-84112571D01*
X135298857Y-84041142D01*
X135370285Y-83969714D01*
X135441714Y-83826857D01*
X135441714Y-83541142D01*
X135370285Y-83398285D01*
X135298857Y-83326857D01*
X135156000Y-83255428D01*
X136370285Y-82612571D02*
X136513142Y-82612571D01*
X136656000Y-82684000D01*
X136727428Y-82755428D01*
X136798857Y-82898285D01*
X136870285Y-83184000D01*
X136870285Y-83541142D01*
X136798857Y-83826857D01*
X136727428Y-83969714D01*
X136656000Y-84041142D01*
X136513142Y-84112571D01*
X136370285Y-84112571D01*
X136227428Y-84041142D01*
X136156000Y-83969714D01*
X136084571Y-83826857D01*
X136013142Y-83541142D01*
X136013142Y-83184000D01*
X136084571Y-82898285D01*
X136156000Y-82755428D01*
X136227428Y-82684000D01*
X136370285Y-82612571D01*
X138584571Y-84041142D02*
X138798857Y-84112571D01*
X139156000Y-84112571D01*
X139298857Y-84041142D01*
X139370285Y-83969714D01*
X139441714Y-83826857D01*
X139441714Y-83684000D01*
X139370285Y-83541142D01*
X139298857Y-83469714D01*
X139156000Y-83398285D01*
X138870285Y-83326857D01*
X138727428Y-83255428D01*
X138656000Y-83184000D01*
X138584571Y-83041142D01*
X138584571Y-82898285D01*
X138656000Y-82755428D01*
X138727428Y-82684000D01*
X138870285Y-82612571D01*
X139227428Y-82612571D01*
X139441714Y-82684000D01*
X140084571Y-84112571D02*
X140084571Y-82612571D01*
X140727428Y-84112571D02*
X140727428Y-83326857D01*
X140656000Y-83184000D01*
X140513142Y-83112571D01*
X140298857Y-83112571D01*
X140156000Y-83184000D01*
X140084571Y-83255428D01*
X141441714Y-84112571D02*
X141441714Y-83112571D01*
X141441714Y-82612571D02*
X141370285Y-82684000D01*
X141441714Y-82755428D01*
X141513142Y-82684000D01*
X141441714Y-82612571D01*
X141441714Y-82755428D01*
X142727428Y-84041142D02*
X142584571Y-84112571D01*
X142298857Y-84112571D01*
X142156000Y-84041142D01*
X142084571Y-83898285D01*
X142084571Y-83326857D01*
X142156000Y-83184000D01*
X142298857Y-83112571D01*
X142584571Y-83112571D01*
X142727428Y-83184000D01*
X142798857Y-83326857D01*
X142798857Y-83469714D01*
X142084571Y-83612571D01*
X143656000Y-84112571D02*
X143513142Y-84041142D01*
X143441714Y-83898285D01*
X143441714Y-82612571D01*
X144870285Y-84112571D02*
X144870285Y-82612571D01*
X144870285Y-84041142D02*
X144727428Y-84112571D01*
X144441714Y-84112571D01*
X144298857Y-84041142D01*
X144227428Y-83969714D01*
X144156000Y-83826857D01*
X144156000Y-83398285D01*
X144227428Y-83255428D01*
X144298857Y-83184000D01*
X144441714Y-83112571D01*
X144727428Y-83112571D01*
X144870285Y-83184000D01*
X134763142Y-85662571D02*
X135120285Y-86662571D01*
X135477428Y-85662571D01*
X136834571Y-86662571D02*
X135977428Y-86662571D01*
X136406000Y-86662571D02*
X136406000Y-85162571D01*
X136263142Y-85376857D01*
X136120285Y-85519714D01*
X135977428Y-85591142D01*
X137477428Y-86519714D02*
X137548857Y-86591142D01*
X137477428Y-86662571D01*
X137406000Y-86591142D01*
X137477428Y-86519714D01*
X137477428Y-86662571D01*
X138477428Y-85162571D02*
X138620285Y-85162571D01*
X138763142Y-85234000D01*
X138834571Y-85305428D01*
X138906000Y-85448285D01*
X138977428Y-85734000D01*
X138977428Y-86091142D01*
X138906000Y-86376857D01*
X138834571Y-86519714D01*
X138763142Y-86591142D01*
X138620285Y-86662571D01*
X138477428Y-86662571D01*
X138334571Y-86591142D01*
X138263142Y-86519714D01*
X138191714Y-86376857D01*
X138120285Y-86091142D01*
X138120285Y-85734000D01*
X138191714Y-85448285D01*
X138263142Y-85305428D01*
X138334571Y-85234000D01*
X138477428Y-85162571D01*
D11*
X168934000Y-84653380D02*
X168934000Y-83653380D01*
X169172095Y-83653380D01*
X169314952Y-83701000D01*
X169410190Y-83796238D01*
X169457809Y-83891476D01*
X169505428Y-84081952D01*
X169505428Y-84224809D01*
X169457809Y-84415285D01*
X169410190Y-84510523D01*
X169314952Y-84605761D01*
X169172095Y-84653380D01*
X168934000Y-84653380D01*
X169934000Y-84653380D02*
X169934000Y-83653380D01*
X170600666Y-83653380D02*
X170791142Y-83653380D01*
X170886380Y-83701000D01*
X170981619Y-83796238D01*
X171029238Y-83986714D01*
X171029238Y-84320047D01*
X170981619Y-84510523D01*
X170886380Y-84605761D01*
X170791142Y-84653380D01*
X170600666Y-84653380D01*
X170505428Y-84605761D01*
X170410190Y-84510523D01*
X170362571Y-84320047D01*
X170362571Y-83986714D01*
X170410190Y-83796238D01*
X170505428Y-83701000D01*
X170600666Y-83653380D01*
X171362571Y-83653380D02*
X171981619Y-83653380D01*
X171648285Y-84034333D01*
X171791142Y-84034333D01*
X171886380Y-84081952D01*
X171934000Y-84129571D01*
X171981619Y-84224809D01*
X171981619Y-84462904D01*
X171934000Y-84558142D01*
X171886380Y-84605761D01*
X171791142Y-84653380D01*
X171505428Y-84653380D01*
X171410190Y-84605761D01*
X171362571Y-84558142D01*
X168934000Y-82113380D02*
X168934000Y-81113380D01*
X169172095Y-81113380D01*
X169314952Y-81161000D01*
X169410190Y-81256238D01*
X169457809Y-81351476D01*
X169505428Y-81541952D01*
X169505428Y-81684809D01*
X169457809Y-81875285D01*
X169410190Y-81970523D01*
X169314952Y-82065761D01*
X169172095Y-82113380D01*
X168934000Y-82113380D01*
X169934000Y-82113380D02*
X169934000Y-81113380D01*
X170600666Y-81113380D02*
X170791142Y-81113380D01*
X170886380Y-81161000D01*
X170981619Y-81256238D01*
X171029238Y-81446714D01*
X171029238Y-81780047D01*
X170981619Y-81970523D01*
X170886380Y-82065761D01*
X170791142Y-82113380D01*
X170600666Y-82113380D01*
X170505428Y-82065761D01*
X170410190Y-81970523D01*
X170362571Y-81780047D01*
X170362571Y-81446714D01*
X170410190Y-81256238D01*
X170505428Y-81161000D01*
X170600666Y-81113380D01*
X171410190Y-81208619D02*
X171457809Y-81161000D01*
X171553047Y-81113380D01*
X171791142Y-81113380D01*
X171886380Y-81161000D01*
X171934000Y-81208619D01*
X171981619Y-81303857D01*
X171981619Y-81399095D01*
X171934000Y-81541952D01*
X171362571Y-82113380D01*
X171981619Y-82113380D01*
X169076857Y-103941571D02*
X169219714Y-103989190D01*
X169267333Y-104036809D01*
X169314952Y-104132047D01*
X169314952Y-104274904D01*
X169267333Y-104370142D01*
X169219714Y-104417761D01*
X169124476Y-104465380D01*
X168743523Y-104465380D01*
X168743523Y-103465380D01*
X169076857Y-103465380D01*
X169172095Y-103513000D01*
X169219714Y-103560619D01*
X169267333Y-103655857D01*
X169267333Y-103751095D01*
X169219714Y-103846333D01*
X169172095Y-103893952D01*
X169076857Y-103941571D01*
X168743523Y-103941571D01*
X169743523Y-103465380D02*
X169743523Y-104274904D01*
X169791142Y-104370142D01*
X169838761Y-104417761D01*
X169934000Y-104465380D01*
X170124476Y-104465380D01*
X170219714Y-104417761D01*
X170267333Y-104370142D01*
X170314952Y-104274904D01*
X170314952Y-103465380D01*
X170743523Y-104417761D02*
X170886380Y-104465380D01*
X171124476Y-104465380D01*
X171219714Y-104417761D01*
X171267333Y-104370142D01*
X171314952Y-104274904D01*
X171314952Y-104179666D01*
X171267333Y-104084428D01*
X171219714Y-104036809D01*
X171124476Y-103989190D01*
X170934000Y-103941571D01*
X170838761Y-103893952D01*
X170791142Y-103846333D01*
X170743523Y-103751095D01*
X170743523Y-103655857D01*
X170791142Y-103560619D01*
X170838761Y-103513000D01*
X170934000Y-103465380D01*
X171172095Y-103465380D01*
X171314952Y-103513000D01*
X171934000Y-103989190D02*
X171934000Y-104465380D01*
X171600666Y-103465380D02*
X171934000Y-103989190D01*
X172267333Y-103465380D01*
X167664095Y-113958714D02*
X167664095Y-114625380D01*
X167664095Y-114053952D02*
X167711714Y-114006333D01*
X167806952Y-113958714D01*
X167949809Y-113958714D01*
X168045047Y-114006333D01*
X168092666Y-114101571D01*
X168092666Y-114625380D01*
X169140285Y-114625380D02*
X168806952Y-114149190D01*
X168568857Y-114625380D02*
X168568857Y-113625380D01*
X168949809Y-113625380D01*
X169045047Y-113673000D01*
X169092666Y-113720619D01*
X169140285Y-113815857D01*
X169140285Y-113958714D01*
X169092666Y-114053952D01*
X169045047Y-114101571D01*
X168949809Y-114149190D01*
X168568857Y-114149190D01*
X169949809Y-114577761D02*
X169854571Y-114625380D01*
X169664095Y-114625380D01*
X169568857Y-114577761D01*
X169521238Y-114482523D01*
X169521238Y-114101571D01*
X169568857Y-114006333D01*
X169664095Y-113958714D01*
X169854571Y-113958714D01*
X169949809Y-114006333D01*
X169997428Y-114101571D01*
X169997428Y-114196809D01*
X169521238Y-114292047D01*
X170378380Y-114577761D02*
X170473619Y-114625380D01*
X170664095Y-114625380D01*
X170759333Y-114577761D01*
X170806952Y-114482523D01*
X170806952Y-114434904D01*
X170759333Y-114339666D01*
X170664095Y-114292047D01*
X170521238Y-114292047D01*
X170426000Y-114244428D01*
X170378380Y-114149190D01*
X170378380Y-114101571D01*
X170426000Y-114006333D01*
X170521238Y-113958714D01*
X170664095Y-113958714D01*
X170759333Y-114006333D01*
X171616476Y-114577761D02*
X171521238Y-114625380D01*
X171330761Y-114625380D01*
X171235523Y-114577761D01*
X171187904Y-114482523D01*
X171187904Y-114101571D01*
X171235523Y-114006333D01*
X171330761Y-113958714D01*
X171521238Y-113958714D01*
X171616476Y-114006333D01*
X171664095Y-114101571D01*
X171664095Y-114196809D01*
X171187904Y-114292047D01*
X171949809Y-113958714D02*
X172330761Y-113958714D01*
X172092666Y-113625380D02*
X172092666Y-114482523D01*
X172140285Y-114577761D01*
X172235523Y-114625380D01*
X172330761Y-114625380D01*
X168934000Y-112085380D02*
X168934000Y-111085380D01*
X169172095Y-111085380D01*
X169314952Y-111133000D01*
X169410190Y-111228238D01*
X169457809Y-111323476D01*
X169505428Y-111513952D01*
X169505428Y-111656809D01*
X169457809Y-111847285D01*
X169410190Y-111942523D01*
X169314952Y-112037761D01*
X169172095Y-112085380D01*
X168934000Y-112085380D01*
X169934000Y-112085380D02*
X169934000Y-111085380D01*
X170600666Y-111085380D02*
X170791142Y-111085380D01*
X170886380Y-111133000D01*
X170981619Y-111228238D01*
X171029238Y-111418714D01*
X171029238Y-111752047D01*
X170981619Y-111942523D01*
X170886380Y-112037761D01*
X170791142Y-112085380D01*
X170600666Y-112085380D01*
X170505428Y-112037761D01*
X170410190Y-111942523D01*
X170362571Y-111752047D01*
X170362571Y-111418714D01*
X170410190Y-111228238D01*
X170505428Y-111133000D01*
X170600666Y-111085380D01*
X171362571Y-111085380D02*
X171981619Y-111085380D01*
X171648285Y-111466333D01*
X171791142Y-111466333D01*
X171886380Y-111513952D01*
X171934000Y-111561571D01*
X171981619Y-111656809D01*
X171981619Y-111894904D01*
X171934000Y-111990142D01*
X171886380Y-112037761D01*
X171791142Y-112085380D01*
X171505428Y-112085380D01*
X171410190Y-112037761D01*
X171362571Y-111990142D01*
X168934000Y-109545380D02*
X168934000Y-108545380D01*
X169172095Y-108545380D01*
X169314952Y-108593000D01*
X169410190Y-108688238D01*
X169457809Y-108783476D01*
X169505428Y-108973952D01*
X169505428Y-109116809D01*
X169457809Y-109307285D01*
X169410190Y-109402523D01*
X169314952Y-109497761D01*
X169172095Y-109545380D01*
X168934000Y-109545380D01*
X169934000Y-109545380D02*
X169934000Y-108545380D01*
X170600666Y-108545380D02*
X170791142Y-108545380D01*
X170886380Y-108593000D01*
X170981619Y-108688238D01*
X171029238Y-108878714D01*
X171029238Y-109212047D01*
X170981619Y-109402523D01*
X170886380Y-109497761D01*
X170791142Y-109545380D01*
X170600666Y-109545380D01*
X170505428Y-109497761D01*
X170410190Y-109402523D01*
X170362571Y-109212047D01*
X170362571Y-108878714D01*
X170410190Y-108688238D01*
X170505428Y-108593000D01*
X170600666Y-108545380D01*
X171410190Y-108640619D02*
X171457809Y-108593000D01*
X171553047Y-108545380D01*
X171791142Y-108545380D01*
X171886380Y-108593000D01*
X171934000Y-108640619D01*
X171981619Y-108735857D01*
X171981619Y-108831095D01*
X171934000Y-108973952D01*
X171362571Y-109545380D01*
X171981619Y-109545380D01*
X168934000Y-107005380D02*
X168934000Y-106005380D01*
X169172095Y-106005380D01*
X169314952Y-106053000D01*
X169410190Y-106148238D01*
X169457809Y-106243476D01*
X169505428Y-106433952D01*
X169505428Y-106576809D01*
X169457809Y-106767285D01*
X169410190Y-106862523D01*
X169314952Y-106957761D01*
X169172095Y-107005380D01*
X168934000Y-107005380D01*
X169934000Y-107005380D02*
X169934000Y-106005380D01*
X170600666Y-106005380D02*
X170791142Y-106005380D01*
X170886380Y-106053000D01*
X170981619Y-106148238D01*
X171029238Y-106338714D01*
X171029238Y-106672047D01*
X170981619Y-106862523D01*
X170886380Y-106957761D01*
X170791142Y-107005380D01*
X170600666Y-107005380D01*
X170505428Y-106957761D01*
X170410190Y-106862523D01*
X170362571Y-106672047D01*
X170362571Y-106338714D01*
X170410190Y-106148238D01*
X170505428Y-106053000D01*
X170600666Y-106005380D01*
X171981619Y-107005380D02*
X171410190Y-107005380D01*
X171695904Y-107005380D02*
X171695904Y-106005380D01*
X171600666Y-106148238D01*
X171505428Y-106243476D01*
X171410190Y-106291095D01*
X168862571Y-101925380D02*
X168862571Y-100925380D01*
X169195904Y-101639666D01*
X169529238Y-100925380D01*
X169529238Y-101925380D01*
X170005428Y-101925380D02*
X170005428Y-100925380D01*
X170434000Y-101877761D02*
X170576857Y-101925380D01*
X170814952Y-101925380D01*
X170910190Y-101877761D01*
X170957809Y-101830142D01*
X171005428Y-101734904D01*
X171005428Y-101639666D01*
X170957809Y-101544428D01*
X170910190Y-101496809D01*
X170814952Y-101449190D01*
X170624476Y-101401571D01*
X170529238Y-101353952D01*
X170481619Y-101306333D01*
X170434000Y-101211095D01*
X170434000Y-101115857D01*
X170481619Y-101020619D01*
X170529238Y-100973000D01*
X170624476Y-100925380D01*
X170862571Y-100925380D01*
X171005428Y-100973000D01*
X171624476Y-100925380D02*
X171814952Y-100925380D01*
X171910190Y-100973000D01*
X172005428Y-101068238D01*
X172053047Y-101258714D01*
X172053047Y-101592047D01*
X172005428Y-101782523D01*
X171910190Y-101877761D01*
X171814952Y-101925380D01*
X171624476Y-101925380D01*
X171529238Y-101877761D01*
X171434000Y-101782523D01*
X171386380Y-101592047D01*
X171386380Y-101258714D01*
X171434000Y-101068238D01*
X171529238Y-100973000D01*
X171624476Y-100925380D01*
X168862571Y-99385380D02*
X168862571Y-98385380D01*
X169195904Y-99099666D01*
X169529238Y-98385380D01*
X169529238Y-99385380D01*
X170195904Y-98385380D02*
X170386380Y-98385380D01*
X170481619Y-98433000D01*
X170576857Y-98528238D01*
X170624476Y-98718714D01*
X170624476Y-99052047D01*
X170576857Y-99242523D01*
X170481619Y-99337761D01*
X170386380Y-99385380D01*
X170195904Y-99385380D01*
X170100666Y-99337761D01*
X170005428Y-99242523D01*
X169957809Y-99052047D01*
X169957809Y-98718714D01*
X170005428Y-98528238D01*
X170100666Y-98433000D01*
X170195904Y-98385380D01*
X171005428Y-99337761D02*
X171148285Y-99385380D01*
X171386380Y-99385380D01*
X171481619Y-99337761D01*
X171529238Y-99290142D01*
X171576857Y-99194904D01*
X171576857Y-99099666D01*
X171529238Y-99004428D01*
X171481619Y-98956809D01*
X171386380Y-98909190D01*
X171195904Y-98861571D01*
X171100666Y-98813952D01*
X171053047Y-98766333D01*
X171005428Y-98671095D01*
X171005428Y-98575857D01*
X171053047Y-98480619D01*
X171100666Y-98433000D01*
X171195904Y-98385380D01*
X171434000Y-98385380D01*
X171576857Y-98433000D01*
X172005428Y-99385380D02*
X172005428Y-98385380D01*
X169148285Y-96797761D02*
X169291142Y-96845380D01*
X169529238Y-96845380D01*
X169624476Y-96797761D01*
X169672095Y-96750142D01*
X169719714Y-96654904D01*
X169719714Y-96559666D01*
X169672095Y-96464428D01*
X169624476Y-96416809D01*
X169529238Y-96369190D01*
X169338761Y-96321571D01*
X169243523Y-96273952D01*
X169195904Y-96226333D01*
X169148285Y-96131095D01*
X169148285Y-96035857D01*
X169195904Y-95940619D01*
X169243523Y-95893000D01*
X169338761Y-95845380D01*
X169576857Y-95845380D01*
X169719714Y-95893000D01*
X170719714Y-96750142D02*
X170672095Y-96797761D01*
X170529238Y-96845380D01*
X170434000Y-96845380D01*
X170291142Y-96797761D01*
X170195904Y-96702523D01*
X170148285Y-96607285D01*
X170100666Y-96416809D01*
X170100666Y-96273952D01*
X170148285Y-96083476D01*
X170195904Y-95988238D01*
X170291142Y-95893000D01*
X170434000Y-95845380D01*
X170529238Y-95845380D01*
X170672095Y-95893000D01*
X170719714Y-95940619D01*
X171148285Y-96845380D02*
X171148285Y-95845380D01*
X171719714Y-96845380D02*
X171291142Y-96273952D01*
X171719714Y-95845380D02*
X171148285Y-96416809D01*
X169195904Y-94305380D02*
X169195904Y-93305380D01*
X169767333Y-94305380D01*
X169767333Y-93305380D01*
X170195904Y-94257761D02*
X170338761Y-94305380D01*
X170576857Y-94305380D01*
X170672095Y-94257761D01*
X170719714Y-94210142D01*
X170767333Y-94114904D01*
X170767333Y-94019666D01*
X170719714Y-93924428D01*
X170672095Y-93876809D01*
X170576857Y-93829190D01*
X170386380Y-93781571D01*
X170291142Y-93733952D01*
X170243523Y-93686333D01*
X170195904Y-93591095D01*
X170195904Y-93495857D01*
X170243523Y-93400619D01*
X170291142Y-93353000D01*
X170386380Y-93305380D01*
X170624476Y-93305380D01*
X170767333Y-93353000D01*
X171148285Y-94257761D02*
X171291142Y-94305380D01*
X171529238Y-94305380D01*
X171624476Y-94257761D01*
X171672095Y-94210142D01*
X171719714Y-94114904D01*
X171719714Y-94019666D01*
X171672095Y-93924428D01*
X171624476Y-93876809D01*
X171529238Y-93829190D01*
X171338761Y-93781571D01*
X171243523Y-93733952D01*
X171195904Y-93686333D01*
X171148285Y-93591095D01*
X171148285Y-93495857D01*
X171195904Y-93400619D01*
X171243523Y-93353000D01*
X171338761Y-93305380D01*
X171576857Y-93305380D01*
X171719714Y-93353000D01*
X169672095Y-90813000D02*
X169576857Y-90765380D01*
X169434000Y-90765380D01*
X169291142Y-90813000D01*
X169195904Y-90908238D01*
X169148285Y-91003476D01*
X169100666Y-91193952D01*
X169100666Y-91336809D01*
X169148285Y-91527285D01*
X169195904Y-91622523D01*
X169291142Y-91717761D01*
X169434000Y-91765380D01*
X169529238Y-91765380D01*
X169672095Y-91717761D01*
X169719714Y-91670142D01*
X169719714Y-91336809D01*
X169529238Y-91336809D01*
X170148285Y-91765380D02*
X170148285Y-90765380D01*
X170719714Y-91765380D01*
X170719714Y-90765380D01*
X171195904Y-91765380D02*
X171195904Y-90765380D01*
X171434000Y-90765380D01*
X171576857Y-90813000D01*
X171672095Y-90908238D01*
X171719714Y-91003476D01*
X171767333Y-91193952D01*
X171767333Y-91336809D01*
X171719714Y-91527285D01*
X171672095Y-91622523D01*
X171576857Y-91717761D01*
X171434000Y-91765380D01*
X171195904Y-91765380D01*
X139390380Y-120999285D02*
X139390380Y-121570714D01*
X139390380Y-121285000D02*
X138390380Y-121285000D01*
X138533238Y-121380238D01*
X138628476Y-121475476D01*
X138676095Y-121570714D01*
D12*
G36*
X138722100Y-113652300D02*
G01*
X138480800Y-113652300D01*
X138480800Y-111709200D01*
X138722100Y-111709200D01*
X138722100Y-113652300D01*
G37*
X138722100Y-113652300D02*
X138480800Y-113652300D01*
X138480800Y-111709200D01*
X138722100Y-111709200D01*
X138722100Y-113652300D01*
G36*
X141780359Y-112268431D02*
G01*
X141887905Y-112269964D01*
X141976515Y-112272957D01*
X142049418Y-112277768D01*
X142109840Y-112284757D01*
X142161008Y-112294281D01*
X142206149Y-112306699D01*
X142248490Y-112322369D01*
X142284441Y-112338396D01*
X142352918Y-112381855D01*
X142417939Y-112442970D01*
X142472623Y-112514229D01*
X142507917Y-112582367D01*
X142520141Y-112618200D01*
X142528900Y-112656554D01*
X142534981Y-112703291D01*
X142539170Y-112764277D01*
X142541975Y-112836325D01*
X142547624Y-113017300D01*
X141030922Y-113017300D01*
X141039566Y-113109375D01*
X141051317Y-113200851D01*
X141068514Y-113271478D01*
X141093176Y-113325570D01*
X141127320Y-113367447D01*
X141172967Y-113401423D01*
X141177367Y-113404042D01*
X141215729Y-113424151D01*
X141257002Y-113440244D01*
X141304299Y-113452679D01*
X141360727Y-113461813D01*
X141429398Y-113468005D01*
X141513422Y-113471611D01*
X141615909Y-113472988D01*
X141739969Y-113472496D01*
X141770100Y-113472176D01*
X141873498Y-113470923D01*
X141954811Y-113469636D01*
X142017353Y-113468028D01*
X142064435Y-113465811D01*
X142099371Y-113462697D01*
X142125475Y-113458398D01*
X142146060Y-113452628D01*
X142164440Y-113445098D01*
X142182189Y-113436400D01*
X142241073Y-113398822D01*
X142278339Y-113354601D01*
X142297701Y-113298988D01*
X142299752Y-113286075D01*
X142306844Y-113233200D01*
X142544800Y-113233200D01*
X142544800Y-113295103D01*
X142533189Y-113384044D01*
X142499375Y-113463680D01*
X142458530Y-113516851D01*
X142411911Y-113558485D01*
X142358787Y-113591428D01*
X142292649Y-113619052D01*
X142216747Y-113642118D01*
X142186859Y-113649631D01*
X142156523Y-113655647D01*
X142122409Y-113660370D01*
X142081186Y-113664001D01*
X142029526Y-113666741D01*
X141964098Y-113668792D01*
X141881572Y-113670354D01*
X141778618Y-113671630D01*
X141719300Y-113672216D01*
X141616722Y-113672766D01*
X141518644Y-113672523D01*
X141428953Y-113671556D01*
X141351536Y-113669932D01*
X141290282Y-113667720D01*
X141249076Y-113664986D01*
X141239573Y-113663838D01*
X141121474Y-113635744D01*
X141021723Y-113590112D01*
X140940170Y-113526814D01*
X140876667Y-113445720D01*
X140831063Y-113346700D01*
X140816450Y-113296700D01*
X140809541Y-113253833D01*
X140804269Y-113191126D01*
X140800636Y-113113973D01*
X140798644Y-113027765D01*
X140798295Y-112937896D01*
X140799592Y-112849758D01*
X140802421Y-112771955D01*
X141046200Y-112771955D01*
X141046200Y-112814100D01*
X142303500Y-112814100D01*
X142303500Y-112742190D01*
X142294818Y-112667160D01*
X142267360Y-112606831D01*
X142219004Y-112557956D01*
X142160528Y-112523302D01*
X142111463Y-112502446D01*
X142058369Y-112486189D01*
X141997825Y-112474166D01*
X141926411Y-112466013D01*
X141840708Y-112461366D01*
X141737294Y-112459861D01*
X141612752Y-112461133D01*
X141582561Y-112461741D01*
X141469799Y-112464798D01*
X141379242Y-112469010D01*
X141307701Y-112475015D01*
X141251985Y-112483454D01*
X141208905Y-112494966D01*
X141175270Y-112510192D01*
X141147893Y-112529772D01*
X141124140Y-112553708D01*
X141091508Y-112603711D01*
X141065180Y-112667759D01*
X141049176Y-112734598D01*
X141046200Y-112771955D01*
X140802421Y-112771955D01*
X140802538Y-112768745D01*
X140807133Y-112700250D01*
X140813381Y-112649665D01*
X140816179Y-112636300D01*
X140851051Y-112533657D01*
X140900207Y-112450428D01*
X140965746Y-112384558D01*
X141049765Y-112333996D01*
X141154365Y-112296688D01*
X141166800Y-112293412D01*
X141197870Y-112286046D01*
X141229209Y-112280240D01*
X141264264Y-112275812D01*
X141306484Y-112272582D01*
X141359319Y-112270367D01*
X141426215Y-112268988D01*
X141510622Y-112268263D01*
X141615988Y-112268010D01*
X141650651Y-112268000D01*
X141780359Y-112268431D01*
G37*
X141780359Y-112268431D02*
X141887905Y-112269964D01*
X141976515Y-112272957D01*
X142049418Y-112277768D01*
X142109840Y-112284757D01*
X142161008Y-112294281D01*
X142206149Y-112306699D01*
X142248490Y-112322369D01*
X142284441Y-112338396D01*
X142352918Y-112381855D01*
X142417939Y-112442970D01*
X142472623Y-112514229D01*
X142507917Y-112582367D01*
X142520141Y-112618200D01*
X142528900Y-112656554D01*
X142534981Y-112703291D01*
X142539170Y-112764277D01*
X142541975Y-112836325D01*
X142547624Y-113017300D01*
X141030922Y-113017300D01*
X141039566Y-113109375D01*
X141051317Y-113200851D01*
X141068514Y-113271478D01*
X141093176Y-113325570D01*
X141127320Y-113367447D01*
X141172967Y-113401423D01*
X141177367Y-113404042D01*
X141215729Y-113424151D01*
X141257002Y-113440244D01*
X141304299Y-113452679D01*
X141360727Y-113461813D01*
X141429398Y-113468005D01*
X141513422Y-113471611D01*
X141615909Y-113472988D01*
X141739969Y-113472496D01*
X141770100Y-113472176D01*
X141873498Y-113470923D01*
X141954811Y-113469636D01*
X142017353Y-113468028D01*
X142064435Y-113465811D01*
X142099371Y-113462697D01*
X142125475Y-113458398D01*
X142146060Y-113452628D01*
X142164440Y-113445098D01*
X142182189Y-113436400D01*
X142241073Y-113398822D01*
X142278339Y-113354601D01*
X142297701Y-113298988D01*
X142299752Y-113286075D01*
X142306844Y-113233200D01*
X142544800Y-113233200D01*
X142544800Y-113295103D01*
X142533189Y-113384044D01*
X142499375Y-113463680D01*
X142458530Y-113516851D01*
X142411911Y-113558485D01*
X142358787Y-113591428D01*
X142292649Y-113619052D01*
X142216747Y-113642118D01*
X142186859Y-113649631D01*
X142156523Y-113655647D01*
X142122409Y-113660370D01*
X142081186Y-113664001D01*
X142029526Y-113666741D01*
X141964098Y-113668792D01*
X141881572Y-113670354D01*
X141778618Y-113671630D01*
X141719300Y-113672216D01*
X141616722Y-113672766D01*
X141518644Y-113672523D01*
X141428953Y-113671556D01*
X141351536Y-113669932D01*
X141290282Y-113667720D01*
X141249076Y-113664986D01*
X141239573Y-113663838D01*
X141121474Y-113635744D01*
X141021723Y-113590112D01*
X140940170Y-113526814D01*
X140876667Y-113445720D01*
X140831063Y-113346700D01*
X140816450Y-113296700D01*
X140809541Y-113253833D01*
X140804269Y-113191126D01*
X140800636Y-113113973D01*
X140798644Y-113027765D01*
X140798295Y-112937896D01*
X140799592Y-112849758D01*
X140802421Y-112771955D01*
X141046200Y-112771955D01*
X141046200Y-112814100D01*
X142303500Y-112814100D01*
X142303500Y-112742190D01*
X142294818Y-112667160D01*
X142267360Y-112606831D01*
X142219004Y-112557956D01*
X142160528Y-112523302D01*
X142111463Y-112502446D01*
X142058369Y-112486189D01*
X141997825Y-112474166D01*
X141926411Y-112466013D01*
X141840708Y-112461366D01*
X141737294Y-112459861D01*
X141612752Y-112461133D01*
X141582561Y-112461741D01*
X141469799Y-112464798D01*
X141379242Y-112469010D01*
X141307701Y-112475015D01*
X141251985Y-112483454D01*
X141208905Y-112494966D01*
X141175270Y-112510192D01*
X141147893Y-112529772D01*
X141124140Y-112553708D01*
X141091508Y-112603711D01*
X141065180Y-112667759D01*
X141049176Y-112734598D01*
X141046200Y-112771955D01*
X140802421Y-112771955D01*
X140802538Y-112768745D01*
X140807133Y-112700250D01*
X140813381Y-112649665D01*
X140816179Y-112636300D01*
X140851051Y-112533657D01*
X140900207Y-112450428D01*
X140965746Y-112384558D01*
X141049765Y-112333996D01*
X141154365Y-112296688D01*
X141166800Y-112293412D01*
X141197870Y-112286046D01*
X141229209Y-112280240D01*
X141264264Y-112275812D01*
X141306484Y-112272582D01*
X141359319Y-112270367D01*
X141426215Y-112268988D01*
X141510622Y-112268263D01*
X141615988Y-112268010D01*
X141650651Y-112268000D01*
X141780359Y-112268431D01*
G36*
X139153970Y-112753775D02*
G01*
X139154401Y-112896560D01*
X139155630Y-113018297D01*
X139157635Y-113118117D01*
X139160393Y-113195151D01*
X139163879Y-113248530D01*
X139168065Y-113277363D01*
X139197343Y-113337718D01*
X139247192Y-113390086D01*
X139313073Y-113430320D01*
X139351318Y-113444812D01*
X139397175Y-113454241D01*
X139463162Y-113461502D01*
X139544102Y-113466590D01*
X139634816Y-113469501D01*
X139730126Y-113470232D01*
X139824856Y-113468778D01*
X139913827Y-113465134D01*
X139991861Y-113459297D01*
X140053781Y-113451263D01*
X140081000Y-113445398D01*
X140165102Y-113417319D01*
X140228763Y-113382944D01*
X140276778Y-113338849D01*
X140313942Y-113281611D01*
X140315950Y-113277650D01*
X140354050Y-113201450D01*
X140358076Y-112741075D01*
X140362103Y-112280700D01*
X140601700Y-112280700D01*
X140601700Y-113652300D01*
X140373100Y-113652300D01*
X140373052Y-113547525D01*
X140373005Y-113442750D01*
X140349678Y-113480850D01*
X140295220Y-113547115D01*
X140222186Y-113601744D01*
X140136310Y-113640452D01*
X140135777Y-113640625D01*
X140107026Y-113649278D01*
X140078329Y-113656040D01*
X140045956Y-113661197D01*
X140006177Y-113665037D01*
X139955260Y-113667848D01*
X139889475Y-113669916D01*
X139805092Y-113671528D01*
X139719050Y-113672717D01*
X139599657Y-113673704D01*
X139502681Y-113673294D01*
X139425172Y-113671395D01*
X139364181Y-113667914D01*
X139316759Y-113662758D01*
X139296960Y-113659476D01*
X139198959Y-113631874D01*
X139110475Y-113589349D01*
X139037143Y-113535035D01*
X138999472Y-113493850D01*
X138979168Y-113466083D01*
X138962294Y-113439328D01*
X138948535Y-113411001D01*
X138937574Y-113378518D01*
X138929095Y-113339295D01*
X138922780Y-113290749D01*
X138918314Y-113230297D01*
X138915380Y-113155354D01*
X138913662Y-113063338D01*
X138912842Y-112951664D01*
X138912605Y-112817748D01*
X138912600Y-112784691D01*
X138912600Y-112280700D01*
X139153900Y-112280700D01*
X139153970Y-112753775D01*
G37*
X139153970Y-112753775D02*
X139154401Y-112896560D01*
X139155630Y-113018297D01*
X139157635Y-113118117D01*
X139160393Y-113195151D01*
X139163879Y-113248530D01*
X139168065Y-113277363D01*
X139197343Y-113337718D01*
X139247192Y-113390086D01*
X139313073Y-113430320D01*
X139351318Y-113444812D01*
X139397175Y-113454241D01*
X139463162Y-113461502D01*
X139544102Y-113466590D01*
X139634816Y-113469501D01*
X139730126Y-113470232D01*
X139824856Y-113468778D01*
X139913827Y-113465134D01*
X139991861Y-113459297D01*
X140053781Y-113451263D01*
X140081000Y-113445398D01*
X140165102Y-113417319D01*
X140228763Y-113382944D01*
X140276778Y-113338849D01*
X140313942Y-113281611D01*
X140315950Y-113277650D01*
X140354050Y-113201450D01*
X140358076Y-112741075D01*
X140362103Y-112280700D01*
X140601700Y-112280700D01*
X140601700Y-113652300D01*
X140373100Y-113652300D01*
X140373052Y-113547525D01*
X140373005Y-113442750D01*
X140349678Y-113480850D01*
X140295220Y-113547115D01*
X140222186Y-113601744D01*
X140136310Y-113640452D01*
X140135777Y-113640625D01*
X140107026Y-113649278D01*
X140078329Y-113656040D01*
X140045956Y-113661197D01*
X140006177Y-113665037D01*
X139955260Y-113667848D01*
X139889475Y-113669916D01*
X139805092Y-113671528D01*
X139719050Y-113672717D01*
X139599657Y-113673704D01*
X139502681Y-113673294D01*
X139425172Y-113671395D01*
X139364181Y-113667914D01*
X139316759Y-113662758D01*
X139296960Y-113659476D01*
X139198959Y-113631874D01*
X139110475Y-113589349D01*
X139037143Y-113535035D01*
X138999472Y-113493850D01*
X138979168Y-113466083D01*
X138962294Y-113439328D01*
X138948535Y-113411001D01*
X138937574Y-113378518D01*
X138929095Y-113339295D01*
X138922780Y-113290749D01*
X138918314Y-113230297D01*
X138915380Y-113155354D01*
X138913662Y-113063338D01*
X138912842Y-112951664D01*
X138912605Y-112817748D01*
X138912600Y-112784691D01*
X138912600Y-112280700D01*
X139153900Y-112280700D01*
X139153970Y-112753775D01*
G36*
X136855200Y-112436910D02*
G01*
X136891769Y-112386427D01*
X136943284Y-112335803D01*
X136996544Y-112305147D01*
X137015489Y-112296816D01*
X137033444Y-112290142D01*
X137053354Y-112284940D01*
X137078162Y-112281028D01*
X137110812Y-112278222D01*
X137154248Y-112276338D01*
X137211414Y-112275192D01*
X137285252Y-112274602D01*
X137378707Y-112274382D01*
X137490200Y-112274350D01*
X137617386Y-112274563D01*
X137722246Y-112275421D01*
X137807853Y-112277248D01*
X137877279Y-112280371D01*
X137933597Y-112285113D01*
X137979878Y-112291801D01*
X138019196Y-112300761D01*
X138054622Y-112312316D01*
X138089229Y-112326794D01*
X138118850Y-112340925D01*
X138202862Y-112394451D01*
X138267513Y-112463194D01*
X138313999Y-112548748D01*
X138340213Y-112636300D01*
X138349811Y-112697751D01*
X138357064Y-112777595D01*
X138361780Y-112868915D01*
X138363767Y-112964795D01*
X138362833Y-113058317D01*
X138358788Y-113142567D01*
X138355310Y-113181160D01*
X138338415Y-113287705D01*
X138312388Y-113374468D01*
X138275315Y-113446017D01*
X138225282Y-113506925D01*
X138214451Y-113517392D01*
X138167560Y-113558065D01*
X138122896Y-113588068D01*
X138072454Y-113611566D01*
X138008229Y-113632727D01*
X137975234Y-113641915D01*
X137941051Y-113650322D01*
X137905861Y-113656892D01*
X137865735Y-113661912D01*
X137816743Y-113665665D01*
X137754956Y-113668438D01*
X137676445Y-113670515D01*
X137577281Y-113672182D01*
X137553700Y-113672504D01*
X137438131Y-113673557D01*
X137344890Y-113673265D01*
X137270934Y-113671531D01*
X137213221Y-113668256D01*
X137168709Y-113663343D01*
X137145947Y-113659334D01*
X137040554Y-113627745D01*
X136952416Y-113580943D01*
X136889319Y-113526249D01*
X136842500Y-113474426D01*
X136842500Y-113652300D01*
X136613900Y-113652300D01*
X136613900Y-113038595D01*
X136856598Y-113038595D01*
X136858846Y-113124356D01*
X136864808Y-113192304D01*
X136875157Y-113246178D01*
X136890567Y-113289715D01*
X136911712Y-113326655D01*
X136933623Y-113354442D01*
X136965418Y-113387037D01*
X136999597Y-113413208D01*
X137039274Y-113433635D01*
X137087559Y-113448997D01*
X137147564Y-113459975D01*
X137222402Y-113467250D01*
X137315183Y-113471501D01*
X137429020Y-113473410D01*
X137478941Y-113473664D01*
X137568191Y-113473360D01*
X137652953Y-113472047D01*
X137728582Y-113469877D01*
X137790433Y-113467000D01*
X137833860Y-113463568D01*
X137847241Y-113461686D01*
X137940274Y-113434817D01*
X138013111Y-113392716D01*
X138066069Y-113335129D01*
X138099465Y-113261805D01*
X138099960Y-113260093D01*
X138108040Y-113217520D01*
X138114477Y-113155865D01*
X138119084Y-113081406D01*
X138121677Y-113000419D01*
X138122067Y-112919182D01*
X138120069Y-112843971D01*
X138115497Y-112781063D01*
X138114448Y-112772024D01*
X138098531Y-112682633D01*
X138073971Y-112613953D01*
X138037831Y-112561946D01*
X137987168Y-112522570D01*
X137919045Y-112491786D01*
X137907673Y-112487839D01*
X137883901Y-112480792D01*
X137857184Y-112475321D01*
X137824107Y-112471234D01*
X137781250Y-112468340D01*
X137725200Y-112466449D01*
X137652537Y-112465368D01*
X137559846Y-112464908D01*
X137496550Y-112464850D01*
X137376042Y-112465341D01*
X137277816Y-112467143D01*
X137198767Y-112470751D01*
X137135789Y-112476656D01*
X137085778Y-112485353D01*
X137045628Y-112497335D01*
X137012234Y-112513095D01*
X136982490Y-112533127D01*
X136962458Y-112549710D01*
X136929923Y-112580255D01*
X136905147Y-112610015D01*
X136887002Y-112643081D01*
X136874362Y-112683548D01*
X136866099Y-112735505D01*
X136861087Y-112803047D01*
X136858199Y-112890264D01*
X136857392Y-112931284D01*
X136856598Y-113038595D01*
X136613900Y-113038595D01*
X136613900Y-111709200D01*
X136855200Y-111709200D01*
X136855200Y-112436910D01*
G37*
X136855200Y-112436910D02*
X136891769Y-112386427D01*
X136943284Y-112335803D01*
X136996544Y-112305147D01*
X137015489Y-112296816D01*
X137033444Y-112290142D01*
X137053354Y-112284940D01*
X137078162Y-112281028D01*
X137110812Y-112278222D01*
X137154248Y-112276338D01*
X137211414Y-112275192D01*
X137285252Y-112274602D01*
X137378707Y-112274382D01*
X137490200Y-112274350D01*
X137617386Y-112274563D01*
X137722246Y-112275421D01*
X137807853Y-112277248D01*
X137877279Y-112280371D01*
X137933597Y-112285113D01*
X137979878Y-112291801D01*
X138019196Y-112300761D01*
X138054622Y-112312316D01*
X138089229Y-112326794D01*
X138118850Y-112340925D01*
X138202862Y-112394451D01*
X138267513Y-112463194D01*
X138313999Y-112548748D01*
X138340213Y-112636300D01*
X138349811Y-112697751D01*
X138357064Y-112777595D01*
X138361780Y-112868915D01*
X138363767Y-112964795D01*
X138362833Y-113058317D01*
X138358788Y-113142567D01*
X138355310Y-113181160D01*
X138338415Y-113287705D01*
X138312388Y-113374468D01*
X138275315Y-113446017D01*
X138225282Y-113506925D01*
X138214451Y-113517392D01*
X138167560Y-113558065D01*
X138122896Y-113588068D01*
X138072454Y-113611566D01*
X138008229Y-113632727D01*
X137975234Y-113641915D01*
X137941051Y-113650322D01*
X137905861Y-113656892D01*
X137865735Y-113661912D01*
X137816743Y-113665665D01*
X137754956Y-113668438D01*
X137676445Y-113670515D01*
X137577281Y-113672182D01*
X137553700Y-113672504D01*
X137438131Y-113673557D01*
X137344890Y-113673265D01*
X137270934Y-113671531D01*
X137213221Y-113668256D01*
X137168709Y-113663343D01*
X137145947Y-113659334D01*
X137040554Y-113627745D01*
X136952416Y-113580943D01*
X136889319Y-113526249D01*
X136842500Y-113474426D01*
X136842500Y-113652300D01*
X136613900Y-113652300D01*
X136613900Y-113038595D01*
X136856598Y-113038595D01*
X136858846Y-113124356D01*
X136864808Y-113192304D01*
X136875157Y-113246178D01*
X136890567Y-113289715D01*
X136911712Y-113326655D01*
X136933623Y-113354442D01*
X136965418Y-113387037D01*
X136999597Y-113413208D01*
X137039274Y-113433635D01*
X137087559Y-113448997D01*
X137147564Y-113459975D01*
X137222402Y-113467250D01*
X137315183Y-113471501D01*
X137429020Y-113473410D01*
X137478941Y-113473664D01*
X137568191Y-113473360D01*
X137652953Y-113472047D01*
X137728582Y-113469877D01*
X137790433Y-113467000D01*
X137833860Y-113463568D01*
X137847241Y-113461686D01*
X137940274Y-113434817D01*
X138013111Y-113392716D01*
X138066069Y-113335129D01*
X138099465Y-113261805D01*
X138099960Y-113260093D01*
X138108040Y-113217520D01*
X138114477Y-113155865D01*
X138119084Y-113081406D01*
X138121677Y-113000419D01*
X138122067Y-112919182D01*
X138120069Y-112843971D01*
X138115497Y-112781063D01*
X138114448Y-112772024D01*
X138098531Y-112682633D01*
X138073971Y-112613953D01*
X138037831Y-112561946D01*
X137987168Y-112522570D01*
X137919045Y-112491786D01*
X137907673Y-112487839D01*
X137883901Y-112480792D01*
X137857184Y-112475321D01*
X137824107Y-112471234D01*
X137781250Y-112468340D01*
X137725200Y-112466449D01*
X137652537Y-112465368D01*
X137559846Y-112464908D01*
X137496550Y-112464850D01*
X137376042Y-112465341D01*
X137277816Y-112467143D01*
X137198767Y-112470751D01*
X137135789Y-112476656D01*
X137085778Y-112485353D01*
X137045628Y-112497335D01*
X137012234Y-112513095D01*
X136982490Y-112533127D01*
X136962458Y-112549710D01*
X136929923Y-112580255D01*
X136905147Y-112610015D01*
X136887002Y-112643081D01*
X136874362Y-112683548D01*
X136866099Y-112735505D01*
X136861087Y-112803047D01*
X136858199Y-112890264D01*
X136857392Y-112931284D01*
X136856598Y-113038595D01*
X136613900Y-113038595D01*
X136613900Y-111709200D01*
X136855200Y-111709200D01*
X136855200Y-112436910D01*
G36*
X130810000Y-113931700D02*
G01*
X130568700Y-113931700D01*
X130568700Y-113665000D01*
X130810000Y-113665000D01*
X130810000Y-113931700D01*
G37*
X130810000Y-113931700D02*
X130568700Y-113931700D01*
X130568700Y-113665000D01*
X130810000Y-113665000D01*
X130810000Y-113931700D01*
G36*
X139464187Y-114217644D02*
G01*
X139549333Y-114218352D01*
X139615993Y-114219763D01*
X139667625Y-114222066D01*
X139707685Y-114225449D01*
X139739629Y-114230101D01*
X139766914Y-114236210D01*
X139782550Y-114240674D01*
X139889799Y-114283853D01*
X139976667Y-114341709D01*
X140042874Y-114414009D01*
X140084211Y-114490358D01*
X140091171Y-114508471D01*
X140096907Y-114526681D01*
X140101561Y-114547591D01*
X140105274Y-114573803D01*
X140108189Y-114607918D01*
X140110446Y-114652539D01*
X140112187Y-114710267D01*
X140113553Y-114783705D01*
X140114687Y-114875455D01*
X140115728Y-114988118D01*
X140116506Y-115084225D01*
X140120634Y-115608100D01*
X139879171Y-115608100D01*
X139875310Y-115115975D01*
X139874274Y-114990815D01*
X139873226Y-114888445D01*
X139872018Y-114806255D01*
X139870506Y-114741637D01*
X139868543Y-114691979D01*
X139865984Y-114654673D01*
X139862682Y-114627109D01*
X139858492Y-114606678D01*
X139853267Y-114590769D01*
X139846861Y-114576773D01*
X139844945Y-114573050D01*
X139805808Y-114519771D01*
X139748604Y-114477801D01*
X139670244Y-114444926D01*
X139662697Y-114442538D01*
X139622157Y-114434472D01*
X139561361Y-114428091D01*
X139485403Y-114423427D01*
X139399373Y-114420512D01*
X139308363Y-114419380D01*
X139217466Y-114420064D01*
X139131771Y-114422595D01*
X139056372Y-114427007D01*
X138996360Y-114433333D01*
X138969750Y-114438085D01*
X138883473Y-114464299D01*
X138809746Y-114499893D01*
X138754165Y-114542006D01*
X138743117Y-114553977D01*
X138725264Y-114576890D01*
X138710619Y-114600915D01*
X138698869Y-114628726D01*
X138689699Y-114662997D01*
X138682796Y-114706400D01*
X138677846Y-114761610D01*
X138674535Y-114831299D01*
X138672550Y-114918142D01*
X138671576Y-115024811D01*
X138671301Y-115153980D01*
X138671300Y-115165905D01*
X138671300Y-115608100D01*
X138430000Y-115608100D01*
X138430000Y-114236500D01*
X138657531Y-114236500D01*
X138661240Y-114334112D01*
X138664950Y-114431725D01*
X138699590Y-114379264D01*
X138750870Y-114322941D01*
X138823601Y-114277414D01*
X138918803Y-114242056D01*
X138925613Y-114240145D01*
X138954306Y-114233162D01*
X138986035Y-114227735D01*
X139024302Y-114223678D01*
X139072612Y-114220809D01*
X139134467Y-114218942D01*
X139213371Y-114217893D01*
X139312828Y-114217479D01*
X139357100Y-114217450D01*
X139464187Y-114217644D01*
G37*
X139464187Y-114217644D02*
X139549333Y-114218352D01*
X139615993Y-114219763D01*
X139667625Y-114222066D01*
X139707685Y-114225449D01*
X139739629Y-114230101D01*
X139766914Y-114236210D01*
X139782550Y-114240674D01*
X139889799Y-114283853D01*
X139976667Y-114341709D01*
X140042874Y-114414009D01*
X140084211Y-114490358D01*
X140091171Y-114508471D01*
X140096907Y-114526681D01*
X140101561Y-114547591D01*
X140105274Y-114573803D01*
X140108189Y-114607918D01*
X140110446Y-114652539D01*
X140112187Y-114710267D01*
X140113553Y-114783705D01*
X140114687Y-114875455D01*
X140115728Y-114988118D01*
X140116506Y-115084225D01*
X140120634Y-115608100D01*
X139879171Y-115608100D01*
X139875310Y-115115975D01*
X139874274Y-114990815D01*
X139873226Y-114888445D01*
X139872018Y-114806255D01*
X139870506Y-114741637D01*
X139868543Y-114691979D01*
X139865984Y-114654673D01*
X139862682Y-114627109D01*
X139858492Y-114606678D01*
X139853267Y-114590769D01*
X139846861Y-114576773D01*
X139844945Y-114573050D01*
X139805808Y-114519771D01*
X139748604Y-114477801D01*
X139670244Y-114444926D01*
X139662697Y-114442538D01*
X139622157Y-114434472D01*
X139561361Y-114428091D01*
X139485403Y-114423427D01*
X139399373Y-114420512D01*
X139308363Y-114419380D01*
X139217466Y-114420064D01*
X139131771Y-114422595D01*
X139056372Y-114427007D01*
X138996360Y-114433333D01*
X138969750Y-114438085D01*
X138883473Y-114464299D01*
X138809746Y-114499893D01*
X138754165Y-114542006D01*
X138743117Y-114553977D01*
X138725264Y-114576890D01*
X138710619Y-114600915D01*
X138698869Y-114628726D01*
X138689699Y-114662997D01*
X138682796Y-114706400D01*
X138677846Y-114761610D01*
X138674535Y-114831299D01*
X138672550Y-114918142D01*
X138671576Y-115024811D01*
X138671301Y-115153980D01*
X138671300Y-115165905D01*
X138671300Y-115608100D01*
X138430000Y-115608100D01*
X138430000Y-114236500D01*
X138657531Y-114236500D01*
X138661240Y-114334112D01*
X138664950Y-114431725D01*
X138699590Y-114379264D01*
X138750870Y-114322941D01*
X138823601Y-114277414D01*
X138918803Y-114242056D01*
X138925613Y-114240145D01*
X138954306Y-114233162D01*
X138986035Y-114227735D01*
X139024302Y-114223678D01*
X139072612Y-114220809D01*
X139134467Y-114218942D01*
X139213371Y-114217893D01*
X139312828Y-114217479D01*
X139357100Y-114217450D01*
X139464187Y-114217644D01*
G36*
X134734808Y-114061875D02*
G01*
X134735023Y-114172399D01*
X134735442Y-114259845D01*
X134736197Y-114326536D01*
X134737422Y-114374792D01*
X134739249Y-114406937D01*
X134741812Y-114425292D01*
X134745243Y-114432179D01*
X134749675Y-114429920D01*
X134755240Y-114420837D01*
X134755339Y-114420650D01*
X134803422Y-114352581D01*
X134869225Y-114298888D01*
X134954114Y-114258828D01*
X135059457Y-114231659D01*
X135120207Y-114222679D01*
X135182759Y-114217430D01*
X135260726Y-114214162D01*
X135349285Y-114212756D01*
X135443615Y-114213096D01*
X135538894Y-114215061D01*
X135630300Y-114218535D01*
X135713011Y-114223398D01*
X135782204Y-114229534D01*
X135833059Y-114236823D01*
X135848978Y-114240535D01*
X135943250Y-114276833D01*
X136024985Y-114326748D01*
X136088488Y-114386702D01*
X136095227Y-114395203D01*
X136115528Y-114422859D01*
X136132400Y-114449532D01*
X136146158Y-114477802D01*
X136157119Y-114510252D01*
X136165599Y-114549462D01*
X136171914Y-114598013D01*
X136176382Y-114658487D01*
X136179317Y-114733465D01*
X136181037Y-114825529D01*
X136181857Y-114937258D01*
X136182094Y-115071235D01*
X136182100Y-115104108D01*
X136182100Y-115608100D01*
X135940800Y-115608100D01*
X135940729Y-115135025D01*
X135940347Y-115008355D01*
X135939278Y-114895410D01*
X135937576Y-114798327D01*
X135935294Y-114719239D01*
X135932488Y-114660284D01*
X135929210Y-114623597D01*
X135927541Y-114614719D01*
X135904616Y-114559022D01*
X135868534Y-114513333D01*
X135817610Y-114477110D01*
X135750159Y-114449811D01*
X135664496Y-114430895D01*
X135558936Y-114419819D01*
X135431793Y-114416043D01*
X135315015Y-114417865D01*
X135187155Y-114423918D01*
X135081750Y-114434090D01*
X134996044Y-114449374D01*
X134927285Y-114470762D01*
X134872719Y-114499245D01*
X134829594Y-114535818D01*
X134795155Y-114581471D01*
X134778750Y-114611150D01*
X134740650Y-114687350D01*
X134732596Y-115608100D01*
X134493000Y-115608100D01*
X134493000Y-113665000D01*
X134734300Y-113665000D01*
X134734808Y-114061875D01*
G37*
X134734808Y-114061875D02*
X134735023Y-114172399D01*
X134735442Y-114259845D01*
X134736197Y-114326536D01*
X134737422Y-114374792D01*
X134739249Y-114406937D01*
X134741812Y-114425292D01*
X134745243Y-114432179D01*
X134749675Y-114429920D01*
X134755240Y-114420837D01*
X134755339Y-114420650D01*
X134803422Y-114352581D01*
X134869225Y-114298888D01*
X134954114Y-114258828D01*
X135059457Y-114231659D01*
X135120207Y-114222679D01*
X135182759Y-114217430D01*
X135260726Y-114214162D01*
X135349285Y-114212756D01*
X135443615Y-114213096D01*
X135538894Y-114215061D01*
X135630300Y-114218535D01*
X135713011Y-114223398D01*
X135782204Y-114229534D01*
X135833059Y-114236823D01*
X135848978Y-114240535D01*
X135943250Y-114276833D01*
X136024985Y-114326748D01*
X136088488Y-114386702D01*
X136095227Y-114395203D01*
X136115528Y-114422859D01*
X136132400Y-114449532D01*
X136146158Y-114477802D01*
X136157119Y-114510252D01*
X136165599Y-114549462D01*
X136171914Y-114598013D01*
X136176382Y-114658487D01*
X136179317Y-114733465D01*
X136181037Y-114825529D01*
X136181857Y-114937258D01*
X136182094Y-115071235D01*
X136182100Y-115104108D01*
X136182100Y-115608100D01*
X135940800Y-115608100D01*
X135940729Y-115135025D01*
X135940347Y-115008355D01*
X135939278Y-114895410D01*
X135937576Y-114798327D01*
X135935294Y-114719239D01*
X135932488Y-114660284D01*
X135929210Y-114623597D01*
X135927541Y-114614719D01*
X135904616Y-114559022D01*
X135868534Y-114513333D01*
X135817610Y-114477110D01*
X135750159Y-114449811D01*
X135664496Y-114430895D01*
X135558936Y-114419819D01*
X135431793Y-114416043D01*
X135315015Y-114417865D01*
X135187155Y-114423918D01*
X135081750Y-114434090D01*
X134996044Y-114449374D01*
X134927285Y-114470762D01*
X134872719Y-114499245D01*
X134829594Y-114535818D01*
X134795155Y-114581471D01*
X134778750Y-114611150D01*
X134740650Y-114687350D01*
X134732596Y-115608100D01*
X134493000Y-115608100D01*
X134493000Y-113665000D01*
X134734300Y-113665000D01*
X134734808Y-114061875D01*
G36*
X130810000Y-115608100D02*
G01*
X130568700Y-115608100D01*
X130568700Y-114236500D01*
X130810000Y-114236500D01*
X130810000Y-115608100D01*
G37*
X130810000Y-115608100D02*
X130568700Y-115608100D01*
X130568700Y-114236500D01*
X130810000Y-114236500D01*
X130810000Y-115608100D01*
G36*
X128981200Y-114744500D02*
G01*
X129032413Y-114744500D01*
X129047967Y-114743179D01*
X129066346Y-114738347D01*
X129089818Y-114728699D01*
X129120653Y-114712931D01*
X129161119Y-114689738D01*
X129213485Y-114657815D01*
X129280020Y-114615858D01*
X129362992Y-114562561D01*
X129464672Y-114496621D01*
X129473738Y-114490724D01*
X129863850Y-114236949D01*
X130051175Y-114236724D01*
X130116856Y-114237253D01*
X130172447Y-114238861D01*
X130213527Y-114241327D01*
X130235675Y-114244431D01*
X130238289Y-114246025D01*
X130227889Y-114254653D01*
X130198236Y-114275467D01*
X130151512Y-114307025D01*
X130089899Y-114347885D01*
X130015580Y-114396606D01*
X129930736Y-114451748D01*
X129837550Y-114511869D01*
X129774136Y-114552553D01*
X129310194Y-114849556D01*
X129860066Y-115216110D01*
X129965903Y-115286848D01*
X130065203Y-115353574D01*
X130155980Y-115414929D01*
X130236246Y-115469553D01*
X130304015Y-115516085D01*
X130357299Y-115553165D01*
X130394111Y-115579434D01*
X130412465Y-115593532D01*
X130414177Y-115595382D01*
X130403748Y-115600751D01*
X130369422Y-115604728D01*
X130312667Y-115607212D01*
X130234953Y-115608099D01*
X130232145Y-115608100D01*
X130045873Y-115608100D01*
X129554629Y-115277900D01*
X129434497Y-115197375D01*
X129333557Y-115130258D01*
X129250117Y-115075500D01*
X129182485Y-115032050D01*
X129128969Y-114998860D01*
X129087877Y-114974879D01*
X129057516Y-114959058D01*
X129036196Y-114950348D01*
X129022292Y-114947700D01*
X128981200Y-114947700D01*
X128981200Y-115608100D01*
X128739900Y-115608100D01*
X128739900Y-113665000D01*
X128981200Y-113665000D01*
X128981200Y-114744500D01*
G37*
X128981200Y-114744500D02*
X129032413Y-114744500D01*
X129047967Y-114743179D01*
X129066346Y-114738347D01*
X129089818Y-114728699D01*
X129120653Y-114712931D01*
X129161119Y-114689738D01*
X129213485Y-114657815D01*
X129280020Y-114615858D01*
X129362992Y-114562561D01*
X129464672Y-114496621D01*
X129473738Y-114490724D01*
X129863850Y-114236949D01*
X130051175Y-114236724D01*
X130116856Y-114237253D01*
X130172447Y-114238861D01*
X130213527Y-114241327D01*
X130235675Y-114244431D01*
X130238289Y-114246025D01*
X130227889Y-114254653D01*
X130198236Y-114275467D01*
X130151512Y-114307025D01*
X130089899Y-114347885D01*
X130015580Y-114396606D01*
X129930736Y-114451748D01*
X129837550Y-114511869D01*
X129774136Y-114552553D01*
X129310194Y-114849556D01*
X129860066Y-115216110D01*
X129965903Y-115286848D01*
X130065203Y-115353574D01*
X130155980Y-115414929D01*
X130236246Y-115469553D01*
X130304015Y-115516085D01*
X130357299Y-115553165D01*
X130394111Y-115579434D01*
X130412465Y-115593532D01*
X130414177Y-115595382D01*
X130403748Y-115600751D01*
X130369422Y-115604728D01*
X130312667Y-115607212D01*
X130234953Y-115608099D01*
X130232145Y-115608100D01*
X130045873Y-115608100D01*
X129554629Y-115277900D01*
X129434497Y-115197375D01*
X129333557Y-115130258D01*
X129250117Y-115075500D01*
X129182485Y-115032050D01*
X129128969Y-114998860D01*
X129087877Y-114974879D01*
X129057516Y-114959058D01*
X129036196Y-114950348D01*
X129022292Y-114947700D01*
X128981200Y-114947700D01*
X128981200Y-115608100D01*
X128739900Y-115608100D01*
X128739900Y-113665000D01*
X128981200Y-113665000D01*
X128981200Y-114744500D01*
G36*
X137431444Y-114216710D02*
G01*
X137531578Y-114219323D01*
X137621627Y-114223426D01*
X137697217Y-114229020D01*
X137753969Y-114236103D01*
X137773559Y-114240114D01*
X137885611Y-114276377D01*
X137978281Y-114324718D01*
X138052620Y-114386696D01*
X138109681Y-114463870D01*
X138150514Y-114557801D01*
X138176172Y-114670047D01*
X138187706Y-114802168D01*
X138188604Y-114855625D01*
X138188700Y-114973100D01*
X136677400Y-114973100D01*
X136677400Y-115053344D01*
X136684971Y-115143505D01*
X136706458Y-115224506D01*
X136740020Y-115290224D01*
X136754052Y-115308225D01*
X136789854Y-115341775D01*
X136834268Y-115369191D01*
X136889607Y-115390876D01*
X136958186Y-115407232D01*
X137042321Y-115418661D01*
X137144325Y-115425565D01*
X137266513Y-115428347D01*
X137411201Y-115427408D01*
X137437095Y-115426930D01*
X137543552Y-115424136D01*
X137634538Y-115420373D01*
X137707524Y-115415795D01*
X137759983Y-115410560D01*
X137788054Y-115405262D01*
X137849723Y-115373460D01*
X137899626Y-115323193D01*
X137931910Y-115260698D01*
X137935535Y-115248091D01*
X137950415Y-115189000D01*
X138192253Y-115189000D01*
X138184891Y-115260333D01*
X138166300Y-115351494D01*
X138130116Y-115427775D01*
X138075075Y-115490341D01*
X137999910Y-115540357D01*
X137903355Y-115578988D01*
X137814050Y-115601623D01*
X137766886Y-115608506D01*
X137698894Y-115614576D01*
X137614635Y-115619731D01*
X137518670Y-115623870D01*
X137415562Y-115626891D01*
X137309872Y-115628692D01*
X137206162Y-115629173D01*
X137108992Y-115628232D01*
X137022925Y-115625767D01*
X136952522Y-115621677D01*
X136944100Y-115620963D01*
X136815832Y-115601355D01*
X136707636Y-115566812D01*
X136618594Y-115516701D01*
X136547788Y-115450393D01*
X136494301Y-115367255D01*
X136464179Y-115290849D01*
X136455451Y-115247810D01*
X136448683Y-115184642D01*
X136443864Y-115106279D01*
X136440983Y-115017657D01*
X136440029Y-114923711D01*
X136440991Y-114829378D01*
X136442890Y-114769900D01*
X136674515Y-114769900D01*
X137947400Y-114769900D01*
X137947400Y-114714645D01*
X137937360Y-114633519D01*
X137906851Y-114565594D01*
X137855289Y-114510306D01*
X137782088Y-114467094D01*
X137686663Y-114435393D01*
X137648410Y-114427012D01*
X137610675Y-114422493D01*
X137553351Y-114419239D01*
X137480782Y-114417184D01*
X137397310Y-114416267D01*
X137307277Y-114416425D01*
X137215026Y-114417593D01*
X137124899Y-114419709D01*
X137041240Y-114422709D01*
X136968390Y-114426531D01*
X136910692Y-114431110D01*
X136872489Y-114436385D01*
X136864377Y-114438431D01*
X136799863Y-114469676D01*
X136749818Y-114518360D01*
X136713125Y-114586153D01*
X136688663Y-114674730D01*
X136682977Y-114709575D01*
X136674515Y-114769900D01*
X136442890Y-114769900D01*
X136443859Y-114739592D01*
X136448622Y-114659290D01*
X136455268Y-114593407D01*
X136463788Y-114546878D01*
X136465824Y-114539996D01*
X136509619Y-114445078D01*
X136573115Y-114365858D01*
X136655552Y-114302989D01*
X136756166Y-114257125D01*
X136815778Y-114240128D01*
X136863959Y-114232314D01*
X136932690Y-114225989D01*
X137017597Y-114221154D01*
X137114302Y-114217808D01*
X137218430Y-114215952D01*
X137325602Y-114215586D01*
X137431444Y-114216710D01*
G37*
X137431444Y-114216710D02*
X137531578Y-114219323D01*
X137621627Y-114223426D01*
X137697217Y-114229020D01*
X137753969Y-114236103D01*
X137773559Y-114240114D01*
X137885611Y-114276377D01*
X137978281Y-114324718D01*
X138052620Y-114386696D01*
X138109681Y-114463870D01*
X138150514Y-114557801D01*
X138176172Y-114670047D01*
X138187706Y-114802168D01*
X138188604Y-114855625D01*
X138188700Y-114973100D01*
X136677400Y-114973100D01*
X136677400Y-115053344D01*
X136684971Y-115143505D01*
X136706458Y-115224506D01*
X136740020Y-115290224D01*
X136754052Y-115308225D01*
X136789854Y-115341775D01*
X136834268Y-115369191D01*
X136889607Y-115390876D01*
X136958186Y-115407232D01*
X137042321Y-115418661D01*
X137144325Y-115425565D01*
X137266513Y-115428347D01*
X137411201Y-115427408D01*
X137437095Y-115426930D01*
X137543552Y-115424136D01*
X137634538Y-115420373D01*
X137707524Y-115415795D01*
X137759983Y-115410560D01*
X137788054Y-115405262D01*
X137849723Y-115373460D01*
X137899626Y-115323193D01*
X137931910Y-115260698D01*
X137935535Y-115248091D01*
X137950415Y-115189000D01*
X138192253Y-115189000D01*
X138184891Y-115260333D01*
X138166300Y-115351494D01*
X138130116Y-115427775D01*
X138075075Y-115490341D01*
X137999910Y-115540357D01*
X137903355Y-115578988D01*
X137814050Y-115601623D01*
X137766886Y-115608506D01*
X137698894Y-115614576D01*
X137614635Y-115619731D01*
X137518670Y-115623870D01*
X137415562Y-115626891D01*
X137309872Y-115628692D01*
X137206162Y-115629173D01*
X137108992Y-115628232D01*
X137022925Y-115625767D01*
X136952522Y-115621677D01*
X136944100Y-115620963D01*
X136815832Y-115601355D01*
X136707636Y-115566812D01*
X136618594Y-115516701D01*
X136547788Y-115450393D01*
X136494301Y-115367255D01*
X136464179Y-115290849D01*
X136455451Y-115247810D01*
X136448683Y-115184642D01*
X136443864Y-115106279D01*
X136440983Y-115017657D01*
X136440029Y-114923711D01*
X136440991Y-114829378D01*
X136442890Y-114769900D01*
X136674515Y-114769900D01*
X137947400Y-114769900D01*
X137947400Y-114714645D01*
X137937360Y-114633519D01*
X137906851Y-114565594D01*
X137855289Y-114510306D01*
X137782088Y-114467094D01*
X137686663Y-114435393D01*
X137648410Y-114427012D01*
X137610675Y-114422493D01*
X137553351Y-114419239D01*
X137480782Y-114417184D01*
X137397310Y-114416267D01*
X137307277Y-114416425D01*
X137215026Y-114417593D01*
X137124899Y-114419709D01*
X137041240Y-114422709D01*
X136968390Y-114426531D01*
X136910692Y-114431110D01*
X136872489Y-114436385D01*
X136864377Y-114438431D01*
X136799863Y-114469676D01*
X136749818Y-114518360D01*
X136713125Y-114586153D01*
X136688663Y-114674730D01*
X136682977Y-114709575D01*
X136674515Y-114769900D01*
X136442890Y-114769900D01*
X136443859Y-114739592D01*
X136448622Y-114659290D01*
X136455268Y-114593407D01*
X136463788Y-114546878D01*
X136465824Y-114539996D01*
X136509619Y-114445078D01*
X136573115Y-114365858D01*
X136655552Y-114302989D01*
X136756166Y-114257125D01*
X136815778Y-114240128D01*
X136863959Y-114232314D01*
X136932690Y-114225989D01*
X137017597Y-114221154D01*
X137114302Y-114217808D01*
X137218430Y-114215952D01*
X137325602Y-114215586D01*
X137431444Y-114216710D01*
G36*
X133626936Y-114214417D02*
G01*
X133733939Y-114219587D01*
X133824014Y-114228877D01*
X133899934Y-114242721D01*
X133964471Y-114261552D01*
X134020395Y-114285803D01*
X134070480Y-114315906D01*
X134090185Y-114330204D01*
X134145434Y-114386585D01*
X134190161Y-114460988D01*
X134221315Y-114547162D01*
X134235018Y-114627025D01*
X134242683Y-114719100D01*
X134010400Y-114719100D01*
X134010121Y-114665125D01*
X133999135Y-114594375D01*
X133969344Y-114530716D01*
X133924383Y-114481332D01*
X133912971Y-114473197D01*
X133882623Y-114455916D01*
X133848370Y-114442179D01*
X133807201Y-114431668D01*
X133756104Y-114424067D01*
X133692065Y-114419058D01*
X133612072Y-114416325D01*
X133513112Y-114415551D01*
X133392173Y-114416418D01*
X133375400Y-114416625D01*
X133264364Y-114418304D01*
X133175454Y-114420587D01*
X133105394Y-114424088D01*
X133050909Y-114429417D01*
X133008723Y-114437185D01*
X132975563Y-114448004D01*
X132948153Y-114462484D01*
X132923217Y-114481238D01*
X132897482Y-114504877D01*
X132896259Y-114506058D01*
X132869129Y-114535900D01*
X132848197Y-114568847D01*
X132832713Y-114608528D01*
X132821928Y-114658572D01*
X132815091Y-114722607D01*
X132811452Y-114804262D01*
X132810263Y-114907166D01*
X132810250Y-114922300D01*
X132810432Y-115008652D01*
X132811245Y-115073861D01*
X132813087Y-115122180D01*
X132816355Y-115157864D01*
X132821448Y-115185169D01*
X132828763Y-115208348D01*
X132838699Y-115231657D01*
X132839310Y-115232985D01*
X132859967Y-115273578D01*
X132880609Y-115307590D01*
X132890110Y-115320083D01*
X132929333Y-115351096D01*
X132986016Y-115380144D01*
X133052265Y-115403755D01*
X133110453Y-115416997D01*
X133156232Y-115421969D01*
X133221199Y-115425723D01*
X133300009Y-115428263D01*
X133387318Y-115429595D01*
X133477779Y-115429721D01*
X133566046Y-115428648D01*
X133646775Y-115426379D01*
X133714620Y-115422919D01*
X133764236Y-115418272D01*
X133775889Y-115416443D01*
X133869146Y-115389939D01*
X133942264Y-115348911D01*
X133994741Y-115293876D01*
X134026074Y-115225351D01*
X134035800Y-115149004D01*
X134035800Y-115100100D01*
X134268051Y-115100100D01*
X134259544Y-115202108D01*
X134244413Y-115305477D01*
X134217168Y-115389331D01*
X134176440Y-115457173D01*
X134147046Y-115489655D01*
X134110711Y-115522501D01*
X134074336Y-115549497D01*
X134034990Y-115571251D01*
X133989740Y-115588368D01*
X133935652Y-115601456D01*
X133869795Y-115611123D01*
X133789235Y-115617976D01*
X133691041Y-115622621D01*
X133572278Y-115625666D01*
X133483350Y-115627067D01*
X133384029Y-115627956D01*
X133288499Y-115628015D01*
X133201003Y-115627303D01*
X133125789Y-115625876D01*
X133067099Y-115623793D01*
X133029181Y-115621111D01*
X133026954Y-115620845D01*
X132906602Y-115595647D01*
X132804208Y-115552720D01*
X132719943Y-115492176D01*
X132653975Y-115414126D01*
X132621006Y-115354100D01*
X132599431Y-115298644D01*
X132583376Y-115237030D01*
X132572426Y-115165458D01*
X132566164Y-115080131D01*
X132564174Y-114977249D01*
X132566041Y-114853016D01*
X132566056Y-114852450D01*
X132570125Y-114743600D01*
X132576527Y-114656038D01*
X132586318Y-114585682D01*
X132600555Y-114528452D01*
X132620294Y-114480267D01*
X132646590Y-114437045D01*
X132680500Y-114394707D01*
X132686182Y-114388320D01*
X132728017Y-114345756D01*
X132771655Y-114310835D01*
X132820115Y-114282767D01*
X132876417Y-114260765D01*
X132943581Y-114244040D01*
X133024627Y-114231803D01*
X133122574Y-114223266D01*
X133240443Y-114217639D01*
X133351062Y-114214706D01*
X133500235Y-114212934D01*
X133626936Y-114214417D01*
G37*
X133626936Y-114214417D02*
X133733939Y-114219587D01*
X133824014Y-114228877D01*
X133899934Y-114242721D01*
X133964471Y-114261552D01*
X134020395Y-114285803D01*
X134070480Y-114315906D01*
X134090185Y-114330204D01*
X134145434Y-114386585D01*
X134190161Y-114460988D01*
X134221315Y-114547162D01*
X134235018Y-114627025D01*
X134242683Y-114719100D01*
X134010400Y-114719100D01*
X134010121Y-114665125D01*
X133999135Y-114594375D01*
X133969344Y-114530716D01*
X133924383Y-114481332D01*
X133912971Y-114473197D01*
X133882623Y-114455916D01*
X133848370Y-114442179D01*
X133807201Y-114431668D01*
X133756104Y-114424067D01*
X133692065Y-114419058D01*
X133612072Y-114416325D01*
X133513112Y-114415551D01*
X133392173Y-114416418D01*
X133375400Y-114416625D01*
X133264364Y-114418304D01*
X133175454Y-114420587D01*
X133105394Y-114424088D01*
X133050909Y-114429417D01*
X133008723Y-114437185D01*
X132975563Y-114448004D01*
X132948153Y-114462484D01*
X132923217Y-114481238D01*
X132897482Y-114504877D01*
X132896259Y-114506058D01*
X132869129Y-114535900D01*
X132848197Y-114568847D01*
X132832713Y-114608528D01*
X132821928Y-114658572D01*
X132815091Y-114722607D01*
X132811452Y-114804262D01*
X132810263Y-114907166D01*
X132810250Y-114922300D01*
X132810432Y-115008652D01*
X132811245Y-115073861D01*
X132813087Y-115122180D01*
X132816355Y-115157864D01*
X132821448Y-115185169D01*
X132828763Y-115208348D01*
X132838699Y-115231657D01*
X132839310Y-115232985D01*
X132859967Y-115273578D01*
X132880609Y-115307590D01*
X132890110Y-115320083D01*
X132929333Y-115351096D01*
X132986016Y-115380144D01*
X133052265Y-115403755D01*
X133110453Y-115416997D01*
X133156232Y-115421969D01*
X133221199Y-115425723D01*
X133300009Y-115428263D01*
X133387318Y-115429595D01*
X133477779Y-115429721D01*
X133566046Y-115428648D01*
X133646775Y-115426379D01*
X133714620Y-115422919D01*
X133764236Y-115418272D01*
X133775889Y-115416443D01*
X133869146Y-115389939D01*
X133942264Y-115348911D01*
X133994741Y-115293876D01*
X134026074Y-115225351D01*
X134035800Y-115149004D01*
X134035800Y-115100100D01*
X134268051Y-115100100D01*
X134259544Y-115202108D01*
X134244413Y-115305477D01*
X134217168Y-115389331D01*
X134176440Y-115457173D01*
X134147046Y-115489655D01*
X134110711Y-115522501D01*
X134074336Y-115549497D01*
X134034990Y-115571251D01*
X133989740Y-115588368D01*
X133935652Y-115601456D01*
X133869795Y-115611123D01*
X133789235Y-115617976D01*
X133691041Y-115622621D01*
X133572278Y-115625666D01*
X133483350Y-115627067D01*
X133384029Y-115627956D01*
X133288499Y-115628015D01*
X133201003Y-115627303D01*
X133125789Y-115625876D01*
X133067099Y-115623793D01*
X133029181Y-115621111D01*
X133026954Y-115620845D01*
X132906602Y-115595647D01*
X132804208Y-115552720D01*
X132719943Y-115492176D01*
X132653975Y-115414126D01*
X132621006Y-115354100D01*
X132599431Y-115298644D01*
X132583376Y-115237030D01*
X132572426Y-115165458D01*
X132566164Y-115080131D01*
X132564174Y-114977249D01*
X132566041Y-114853016D01*
X132566056Y-114852450D01*
X132570125Y-114743600D01*
X132576527Y-114656038D01*
X132586318Y-114585682D01*
X132600555Y-114528452D01*
X132620294Y-114480267D01*
X132646590Y-114437045D01*
X132680500Y-114394707D01*
X132686182Y-114388320D01*
X132728017Y-114345756D01*
X132771655Y-114310835D01*
X132820115Y-114282767D01*
X132876417Y-114260765D01*
X132943581Y-114244040D01*
X133024627Y-114231803D01*
X133122574Y-114223266D01*
X133240443Y-114217639D01*
X133351062Y-114214706D01*
X133500235Y-114212934D01*
X133626936Y-114214417D01*
G36*
X131514850Y-113912650D02*
G01*
X131521958Y-114236500D01*
X132422900Y-114236500D01*
X132422900Y-114439700D01*
X131521200Y-114439700D01*
X131521757Y-114830225D01*
X131522190Y-114955964D01*
X131523517Y-115059004D01*
X131526371Y-115142044D01*
X131531385Y-115207781D01*
X131539191Y-115258916D01*
X131550422Y-115298147D01*
X131565711Y-115328173D01*
X131585690Y-115351693D01*
X131610993Y-115371407D01*
X131642251Y-115390012D01*
X131654550Y-115396673D01*
X131676931Y-115407349D01*
X131700768Y-115414825D01*
X131731000Y-115419659D01*
X131772564Y-115422405D01*
X131830399Y-115423622D01*
X131895850Y-115423869D01*
X131971829Y-115423509D01*
X132027617Y-115422020D01*
X132068418Y-115418819D01*
X132099435Y-115413329D01*
X132125870Y-115404967D01*
X132147170Y-115395842D01*
X132188940Y-115370848D01*
X132220061Y-115337278D01*
X132242127Y-115291349D01*
X132256736Y-115229277D01*
X132265483Y-115147281D01*
X132267587Y-115110438D01*
X132274097Y-114973100D01*
X132461000Y-114973100D01*
X132461000Y-115142244D01*
X132459159Y-115239086D01*
X132453476Y-115313685D01*
X132443705Y-115368945D01*
X132441099Y-115378401D01*
X132405548Y-115455233D01*
X132350026Y-115520438D01*
X132279012Y-115569279D01*
X132247784Y-115582980D01*
X132177853Y-115602504D01*
X132088541Y-115617090D01*
X131985470Y-115626274D01*
X131874263Y-115629592D01*
X131760543Y-115626582D01*
X131737100Y-115625118D01*
X131631713Y-115610727D01*
X131535248Y-115583729D01*
X131451998Y-115545933D01*
X131386257Y-115499151D01*
X131354016Y-115463508D01*
X131335153Y-115436020D01*
X131319778Y-115408866D01*
X131307537Y-115379178D01*
X131298077Y-115344091D01*
X131291043Y-115300739D01*
X131286083Y-115246255D01*
X131282842Y-115177772D01*
X131280967Y-115092426D01*
X131280104Y-114987349D01*
X131279900Y-114862844D01*
X131279900Y-114439700D01*
X130975100Y-114439700D01*
X130975100Y-114236500D01*
X131279900Y-114236500D01*
X131279900Y-113905346D01*
X131514850Y-113912650D01*
G37*
X131514850Y-113912650D02*
X131521958Y-114236500D01*
X132422900Y-114236500D01*
X132422900Y-114439700D01*
X131521200Y-114439700D01*
X131521757Y-114830225D01*
X131522190Y-114955964D01*
X131523517Y-115059004D01*
X131526371Y-115142044D01*
X131531385Y-115207781D01*
X131539191Y-115258916D01*
X131550422Y-115298147D01*
X131565711Y-115328173D01*
X131585690Y-115351693D01*
X131610993Y-115371407D01*
X131642251Y-115390012D01*
X131654550Y-115396673D01*
X131676931Y-115407349D01*
X131700768Y-115414825D01*
X131731000Y-115419659D01*
X131772564Y-115422405D01*
X131830399Y-115423622D01*
X131895850Y-115423869D01*
X131971829Y-115423509D01*
X132027617Y-115422020D01*
X132068418Y-115418819D01*
X132099435Y-115413329D01*
X132125870Y-115404967D01*
X132147170Y-115395842D01*
X132188940Y-115370848D01*
X132220061Y-115337278D01*
X132242127Y-115291349D01*
X132256736Y-115229277D01*
X132265483Y-115147281D01*
X132267587Y-115110438D01*
X132274097Y-114973100D01*
X132461000Y-114973100D01*
X132461000Y-115142244D01*
X132459159Y-115239086D01*
X132453476Y-115313685D01*
X132443705Y-115368945D01*
X132441099Y-115378401D01*
X132405548Y-115455233D01*
X132350026Y-115520438D01*
X132279012Y-115569279D01*
X132247784Y-115582980D01*
X132177853Y-115602504D01*
X132088541Y-115617090D01*
X131985470Y-115626274D01*
X131874263Y-115629592D01*
X131760543Y-115626582D01*
X131737100Y-115625118D01*
X131631713Y-115610727D01*
X131535248Y-115583729D01*
X131451998Y-115545933D01*
X131386257Y-115499151D01*
X131354016Y-115463508D01*
X131335153Y-115436020D01*
X131319778Y-115408866D01*
X131307537Y-115379178D01*
X131298077Y-115344091D01*
X131291043Y-115300739D01*
X131286083Y-115246255D01*
X131282842Y-115177772D01*
X131280967Y-115092426D01*
X131280104Y-114987349D01*
X131279900Y-114862844D01*
X131279900Y-114439700D01*
X130975100Y-114439700D01*
X130975100Y-114236500D01*
X131279900Y-114236500D01*
X131279900Y-113905346D01*
X131514850Y-113912650D01*
G36*
X140608050Y-114242892D02*
G01*
X140630607Y-114246152D01*
X140674570Y-114252269D01*
X140736170Y-114260725D01*
X140811636Y-114271005D01*
X140897199Y-114282595D01*
X140982700Y-114294119D01*
X141202821Y-114323890D01*
X141423637Y-114354087D01*
X141643429Y-114384458D01*
X141860476Y-114414750D01*
X142073059Y-114444713D01*
X142279457Y-114474095D01*
X142477950Y-114502643D01*
X142666818Y-114530107D01*
X142844342Y-114556235D01*
X143008801Y-114580775D01*
X143158475Y-114603475D01*
X143291645Y-114624085D01*
X143406589Y-114642351D01*
X143501589Y-114658023D01*
X143574924Y-114670849D01*
X143624875Y-114680577D01*
X143626429Y-114680913D01*
X143728681Y-114708423D01*
X143809467Y-114742875D01*
X143872286Y-114786516D01*
X143920634Y-114841593D01*
X143947162Y-114886991D01*
X143961461Y-114919519D01*
X143971904Y-114953767D01*
X143978135Y-114991699D01*
X143979797Y-115035280D01*
X143976532Y-115086475D01*
X143967985Y-115147248D01*
X143953797Y-115219564D01*
X143933612Y-115305389D01*
X143907074Y-115406687D01*
X143873824Y-115525423D01*
X143833507Y-115663562D01*
X143785765Y-115823068D01*
X143764143Y-115894504D01*
X143723868Y-116026394D01*
X143680273Y-116167629D01*
X143634016Y-116316174D01*
X143585758Y-116469993D01*
X143536156Y-116627053D01*
X143485870Y-116785317D01*
X143435559Y-116942750D01*
X143385881Y-117097317D01*
X143337496Y-117246984D01*
X143291062Y-117389714D01*
X143247238Y-117523474D01*
X143206684Y-117646228D01*
X143170058Y-117755940D01*
X143138019Y-117850576D01*
X143111227Y-117928101D01*
X143090339Y-117986479D01*
X143076016Y-118023675D01*
X143071468Y-118033800D01*
X143011708Y-118125607D01*
X142935844Y-118197914D01*
X142843772Y-118250773D01*
X142735391Y-118284239D01*
X142610597Y-118298364D01*
X142564356Y-118298770D01*
X142508972Y-118297441D01*
X142460057Y-118295383D01*
X142425551Y-118292963D01*
X142417800Y-118292013D01*
X142370673Y-118283726D01*
X142315259Y-118272374D01*
X142250275Y-118257601D01*
X142174438Y-118239053D01*
X142086465Y-118216372D01*
X141985073Y-118189204D01*
X141868980Y-118157194D01*
X141736904Y-118119984D01*
X141587560Y-118077221D01*
X141419668Y-118028547D01*
X141231943Y-117973608D01*
X141023103Y-117912048D01*
X140791867Y-117843511D01*
X140677900Y-117809625D01*
X140375450Y-117719293D01*
X140080255Y-117630481D01*
X139793399Y-117543534D01*
X139515965Y-117458800D01*
X139249039Y-117376625D01*
X138993703Y-117297354D01*
X138751042Y-117221336D01*
X138522140Y-117148915D01*
X138308081Y-117080440D01*
X138109950Y-117016255D01*
X137928830Y-116956708D01*
X137765806Y-116902144D01*
X137621961Y-116852911D01*
X137498380Y-116809355D01*
X137396147Y-116771823D01*
X137316346Y-116740660D01*
X137267950Y-116719892D01*
X137180305Y-116672978D01*
X137116161Y-116622427D01*
X137073652Y-116565916D01*
X137050913Y-116501119D01*
X137045700Y-116442949D01*
X137058198Y-116361896D01*
X137095354Y-116278495D01*
X137156654Y-116193820D01*
X137172464Y-116176068D01*
X137232695Y-116110564D01*
X137428122Y-116169128D01*
X137467868Y-116181075D01*
X137529961Y-116199790D01*
X137612440Y-116224678D01*
X137713341Y-116255147D01*
X137830702Y-116290603D01*
X137962561Y-116330454D01*
X138106954Y-116374106D01*
X138261920Y-116420966D01*
X138425496Y-116470440D01*
X138595719Y-116521937D01*
X138770627Y-116574861D01*
X138868150Y-116604375D01*
X139056713Y-116661402D01*
X139249994Y-116719778D01*
X139445115Y-116778636D01*
X139639199Y-116837113D01*
X139829368Y-116894343D01*
X140012744Y-116949462D01*
X140186450Y-117001604D01*
X140347607Y-117049904D01*
X140493339Y-117093499D01*
X140620767Y-117131522D01*
X140727014Y-117163108D01*
X140735050Y-117165490D01*
X140864043Y-117203783D01*
X140992229Y-117241954D01*
X141116245Y-117278994D01*
X141232728Y-117313893D01*
X141338316Y-117345643D01*
X141429646Y-117373233D01*
X141503355Y-117395656D01*
X141556081Y-117411901D01*
X141556267Y-117411959D01*
X141714994Y-117459946D01*
X141852890Y-117498071D01*
X141972418Y-117526605D01*
X142076042Y-117545814D01*
X142166223Y-117555967D01*
X142245426Y-117557332D01*
X142316113Y-117550176D01*
X142380746Y-117534769D01*
X142441788Y-117511377D01*
X142447134Y-117508916D01*
X142496627Y-117483318D01*
X142541646Y-117453806D01*
X142583499Y-117418294D01*
X142623494Y-117374695D01*
X142662942Y-117320922D01*
X142703149Y-117254888D01*
X142745426Y-117174507D01*
X142791080Y-117077692D01*
X142841421Y-116962356D01*
X142897757Y-116826413D01*
X142938334Y-116725700D01*
X142977701Y-116626090D01*
X143022017Y-116512035D01*
X143070333Y-116386115D01*
X143121700Y-116250909D01*
X143175169Y-116108996D01*
X143229790Y-115962956D01*
X143284615Y-115815369D01*
X143338693Y-115668814D01*
X143391075Y-115525872D01*
X143440813Y-115389121D01*
X143486957Y-115261141D01*
X143528557Y-115144512D01*
X143564664Y-115041813D01*
X143594329Y-114955624D01*
X143616603Y-114888525D01*
X143628389Y-114850573D01*
X143638542Y-114800136D01*
X143632394Y-114764237D01*
X143607148Y-114738281D01*
X143560004Y-114717676D01*
X143544450Y-114712816D01*
X143518085Y-114706591D01*
X143471962Y-114697765D01*
X143405638Y-114686270D01*
X143318670Y-114672041D01*
X143210614Y-114655010D01*
X143081027Y-114635111D01*
X142929465Y-114612277D01*
X142755484Y-114586441D01*
X142558641Y-114557536D01*
X142338492Y-114525497D01*
X142094595Y-114490256D01*
X141826504Y-114451746D01*
X141533778Y-114409901D01*
X141471650Y-114401042D01*
X141322972Y-114379805D01*
X141181429Y-114359499D01*
X141049063Y-114340422D01*
X140927917Y-114322874D01*
X140820036Y-114307153D01*
X140727462Y-114293557D01*
X140652238Y-114282385D01*
X140596409Y-114273937D01*
X140562016Y-114268509D01*
X140551255Y-114266526D01*
X140540000Y-114258213D01*
X140547910Y-114249622D01*
X140568908Y-114243280D01*
X140596914Y-114241718D01*
X140608050Y-114242892D01*
G37*
X140608050Y-114242892D02*
X140630607Y-114246152D01*
X140674570Y-114252269D01*
X140736170Y-114260725D01*
X140811636Y-114271005D01*
X140897199Y-114282595D01*
X140982700Y-114294119D01*
X141202821Y-114323890D01*
X141423637Y-114354087D01*
X141643429Y-114384458D01*
X141860476Y-114414750D01*
X142073059Y-114444713D01*
X142279457Y-114474095D01*
X142477950Y-114502643D01*
X142666818Y-114530107D01*
X142844342Y-114556235D01*
X143008801Y-114580775D01*
X143158475Y-114603475D01*
X143291645Y-114624085D01*
X143406589Y-114642351D01*
X143501589Y-114658023D01*
X143574924Y-114670849D01*
X143624875Y-114680577D01*
X143626429Y-114680913D01*
X143728681Y-114708423D01*
X143809467Y-114742875D01*
X143872286Y-114786516D01*
X143920634Y-114841593D01*
X143947162Y-114886991D01*
X143961461Y-114919519D01*
X143971904Y-114953767D01*
X143978135Y-114991699D01*
X143979797Y-115035280D01*
X143976532Y-115086475D01*
X143967985Y-115147248D01*
X143953797Y-115219564D01*
X143933612Y-115305389D01*
X143907074Y-115406687D01*
X143873824Y-115525423D01*
X143833507Y-115663562D01*
X143785765Y-115823068D01*
X143764143Y-115894504D01*
X143723868Y-116026394D01*
X143680273Y-116167629D01*
X143634016Y-116316174D01*
X143585758Y-116469993D01*
X143536156Y-116627053D01*
X143485870Y-116785317D01*
X143435559Y-116942750D01*
X143385881Y-117097317D01*
X143337496Y-117246984D01*
X143291062Y-117389714D01*
X143247238Y-117523474D01*
X143206684Y-117646228D01*
X143170058Y-117755940D01*
X143138019Y-117850576D01*
X143111227Y-117928101D01*
X143090339Y-117986479D01*
X143076016Y-118023675D01*
X143071468Y-118033800D01*
X143011708Y-118125607D01*
X142935844Y-118197914D01*
X142843772Y-118250773D01*
X142735391Y-118284239D01*
X142610597Y-118298364D01*
X142564356Y-118298770D01*
X142508972Y-118297441D01*
X142460057Y-118295383D01*
X142425551Y-118292963D01*
X142417800Y-118292013D01*
X142370673Y-118283726D01*
X142315259Y-118272374D01*
X142250275Y-118257601D01*
X142174438Y-118239053D01*
X142086465Y-118216372D01*
X141985073Y-118189204D01*
X141868980Y-118157194D01*
X141736904Y-118119984D01*
X141587560Y-118077221D01*
X141419668Y-118028547D01*
X141231943Y-117973608D01*
X141023103Y-117912048D01*
X140791867Y-117843511D01*
X140677900Y-117809625D01*
X140375450Y-117719293D01*
X140080255Y-117630481D01*
X139793399Y-117543534D01*
X139515965Y-117458800D01*
X139249039Y-117376625D01*
X138993703Y-117297354D01*
X138751042Y-117221336D01*
X138522140Y-117148915D01*
X138308081Y-117080440D01*
X138109950Y-117016255D01*
X137928830Y-116956708D01*
X137765806Y-116902144D01*
X137621961Y-116852911D01*
X137498380Y-116809355D01*
X137396147Y-116771823D01*
X137316346Y-116740660D01*
X137267950Y-116719892D01*
X137180305Y-116672978D01*
X137116161Y-116622427D01*
X137073652Y-116565916D01*
X137050913Y-116501119D01*
X137045700Y-116442949D01*
X137058198Y-116361896D01*
X137095354Y-116278495D01*
X137156654Y-116193820D01*
X137172464Y-116176068D01*
X137232695Y-116110564D01*
X137428122Y-116169128D01*
X137467868Y-116181075D01*
X137529961Y-116199790D01*
X137612440Y-116224678D01*
X137713341Y-116255147D01*
X137830702Y-116290603D01*
X137962561Y-116330454D01*
X138106954Y-116374106D01*
X138261920Y-116420966D01*
X138425496Y-116470440D01*
X138595719Y-116521937D01*
X138770627Y-116574861D01*
X138868150Y-116604375D01*
X139056713Y-116661402D01*
X139249994Y-116719778D01*
X139445115Y-116778636D01*
X139639199Y-116837113D01*
X139829368Y-116894343D01*
X140012744Y-116949462D01*
X140186450Y-117001604D01*
X140347607Y-117049904D01*
X140493339Y-117093499D01*
X140620767Y-117131522D01*
X140727014Y-117163108D01*
X140735050Y-117165490D01*
X140864043Y-117203783D01*
X140992229Y-117241954D01*
X141116245Y-117278994D01*
X141232728Y-117313893D01*
X141338316Y-117345643D01*
X141429646Y-117373233D01*
X141503355Y-117395656D01*
X141556081Y-117411901D01*
X141556267Y-117411959D01*
X141714994Y-117459946D01*
X141852890Y-117498071D01*
X141972418Y-117526605D01*
X142076042Y-117545814D01*
X142166223Y-117555967D01*
X142245426Y-117557332D01*
X142316113Y-117550176D01*
X142380746Y-117534769D01*
X142441788Y-117511377D01*
X142447134Y-117508916D01*
X142496627Y-117483318D01*
X142541646Y-117453806D01*
X142583499Y-117418294D01*
X142623494Y-117374695D01*
X142662942Y-117320922D01*
X142703149Y-117254888D01*
X142745426Y-117174507D01*
X142791080Y-117077692D01*
X142841421Y-116962356D01*
X142897757Y-116826413D01*
X142938334Y-116725700D01*
X142977701Y-116626090D01*
X143022017Y-116512035D01*
X143070333Y-116386115D01*
X143121700Y-116250909D01*
X143175169Y-116108996D01*
X143229790Y-115962956D01*
X143284615Y-115815369D01*
X143338693Y-115668814D01*
X143391075Y-115525872D01*
X143440813Y-115389121D01*
X143486957Y-115261141D01*
X143528557Y-115144512D01*
X143564664Y-115041813D01*
X143594329Y-114955624D01*
X143616603Y-114888525D01*
X143628389Y-114850573D01*
X143638542Y-114800136D01*
X143632394Y-114764237D01*
X143607148Y-114738281D01*
X143560004Y-114717676D01*
X143544450Y-114712816D01*
X143518085Y-114706591D01*
X143471962Y-114697765D01*
X143405638Y-114686270D01*
X143318670Y-114672041D01*
X143210614Y-114655010D01*
X143081027Y-114635111D01*
X142929465Y-114612277D01*
X142755484Y-114586441D01*
X142558641Y-114557536D01*
X142338492Y-114525497D01*
X142094595Y-114490256D01*
X141826504Y-114451746D01*
X141533778Y-114409901D01*
X141471650Y-114401042D01*
X141322972Y-114379805D01*
X141181429Y-114359499D01*
X141049063Y-114340422D01*
X140927917Y-114322874D01*
X140820036Y-114307153D01*
X140727462Y-114293557D01*
X140652238Y-114282385D01*
X140596409Y-114273937D01*
X140562016Y-114268509D01*
X140551255Y-114266526D01*
X140540000Y-114258213D01*
X140547910Y-114249622D01*
X140568908Y-114243280D01*
X140596914Y-114241718D01*
X140608050Y-114242892D01*
D11*
X135916000Y-107549000D02*
X135916000Y-92549000D01*
X152916000Y-107549000D02*
X152916000Y-92549000D01*
X128916000Y-92549000D02*
X152916000Y-92549000D01*
X128916000Y-107549000D02*
X128916000Y-92549000D01*
X152916000Y-107549000D02*
X128916000Y-107549000D01*
D13*
X173168000Y-85531000D02*
X175828000Y-85531000D01*
X173168000Y-82931000D02*
X173168000Y-85531000D01*
X175828000Y-82931000D02*
X175828000Y-85531000D01*
X173168000Y-82931000D02*
X175828000Y-82931000D01*
X173168000Y-81661000D02*
X173168000Y-80331000D01*
X173168000Y-80331000D02*
X174498000Y-80331000D01*
D11*
X173228000Y-92583000D02*
X173228000Y-115443000D01*
X173228000Y-115443000D02*
X175768000Y-115443000D01*
X175768000Y-115443000D02*
X175768000Y-92583000D01*
X172948000Y-89763000D02*
X172948000Y-91313000D01*
X173228000Y-92583000D02*
X175768000Y-92583000D01*
X176048000Y-91313000D02*
X176048000Y-89763000D01*
X176048000Y-89763000D02*
X172948000Y-89763000D01*
X137388000Y-122275000D02*
X137388000Y-125375000D01*
X138938000Y-122275000D02*
X137388000Y-122275000D01*
X140208000Y-125095000D02*
X140208000Y-122555000D01*
X137388000Y-125375000D02*
X138938000Y-125375000D01*
X157988000Y-122555000D02*
X140208000Y-122555000D01*
X157988000Y-125095000D02*
X157988000Y-122555000D01*
X140208000Y-125095000D02*
X157988000Y-125095000D01*
X160248000Y-122275000D02*
X160248000Y-125375000D01*
X161798000Y-122275000D02*
X160248000Y-122275000D01*
X163068000Y-125095000D02*
X163068000Y-122555000D01*
X160248000Y-125375000D02*
X161798000Y-125375000D01*
X175768000Y-122555000D02*
X163068000Y-122555000D01*
X175768000Y-125095000D02*
X175768000Y-122555000D01*
X163068000Y-125095000D02*
X175768000Y-125095000D01*
X128244000Y-74015000D02*
X128244000Y-77115000D01*
X129794000Y-74015000D02*
X128244000Y-74015000D01*
X131064000Y-76835000D02*
X131064000Y-74295000D01*
X128244000Y-77115000D02*
X129794000Y-77115000D01*
X153924000Y-74295000D02*
X131064000Y-74295000D01*
X153924000Y-76835000D02*
X153924000Y-74295000D01*
X131064000Y-76835000D02*
X153924000Y-76835000D01*
X155168000Y-74015000D02*
X155168000Y-77115000D01*
X156718000Y-74015000D02*
X155168000Y-74015000D01*
X157988000Y-76835000D02*
X157988000Y-74295000D01*
X155168000Y-77115000D02*
X156718000Y-77115000D01*
X175768000Y-74295000D02*
X157988000Y-74295000D01*
X175768000Y-76835000D02*
X175768000Y-74295000D01*
X157988000Y-76835000D02*
X175768000Y-76835000D01*
X139954095Y-99401380D02*
X139954095Y-100210904D01*
X140001714Y-100306142D01*
X140049333Y-100353761D01*
X140144571Y-100401380D01*
X140335047Y-100401380D01*
X140430285Y-100353761D01*
X140477904Y-100306142D01*
X140525523Y-100210904D01*
X140525523Y-99401380D01*
X141525523Y-100401380D02*
X140954095Y-100401380D01*
X141239809Y-100401380D02*
X141239809Y-99401380D01*
X141144571Y-99544238D01*
X141049333Y-99639476D01*
X140954095Y-99687095D01*
X174164666Y-78783380D02*
X174164666Y-79497666D01*
X174117047Y-79640523D01*
X174021809Y-79735761D01*
X173878952Y-79783380D01*
X173783714Y-79783380D01*
X174593238Y-78878619D02*
X174640857Y-78831000D01*
X174736095Y-78783380D01*
X174974190Y-78783380D01*
X175069428Y-78831000D01*
X175117047Y-78878619D01*
X175164666Y-78973857D01*
X175164666Y-79069095D01*
X175117047Y-79211952D01*
X174545619Y-79783380D01*
X175164666Y-79783380D01*
X174164666Y-88225380D02*
X174164666Y-88939666D01*
X174117047Y-89082523D01*
X174021809Y-89177761D01*
X173878952Y-89225380D01*
X173783714Y-89225380D01*
X175164666Y-89225380D02*
X174593238Y-89225380D01*
X174878952Y-89225380D02*
X174878952Y-88225380D01*
X174783714Y-88368238D01*
X174688476Y-88463476D01*
X174593238Y-88511095D01*
X147089904Y-121737380D02*
X147089904Y-120737380D01*
X147470857Y-120737380D01*
X147566095Y-120785000D01*
X147613714Y-120832619D01*
X147661333Y-120927857D01*
X147661333Y-121070714D01*
X147613714Y-121165952D01*
X147566095Y-121213571D01*
X147470857Y-121261190D01*
X147089904Y-121261190D01*
X148613714Y-121737380D02*
X148042285Y-121737380D01*
X148328000Y-121737380D02*
X148328000Y-120737380D01*
X148232761Y-120880238D01*
X148137523Y-120975476D01*
X148042285Y-121023095D01*
X167663904Y-121737380D02*
X167663904Y-120737380D01*
X168044857Y-120737380D01*
X168140095Y-120785000D01*
X168187714Y-120832619D01*
X168235333Y-120927857D01*
X168235333Y-121070714D01*
X168187714Y-121165952D01*
X168140095Y-121213571D01*
X168044857Y-121261190D01*
X167663904Y-121261190D01*
X168616285Y-120832619D02*
X168663904Y-120785000D01*
X168759142Y-120737380D01*
X168997238Y-120737380D01*
X169092476Y-120785000D01*
X169140095Y-120832619D01*
X169187714Y-120927857D01*
X169187714Y-121023095D01*
X169140095Y-121165952D01*
X168568666Y-121737380D01*
X169187714Y-121737380D01*
X140485904Y-78811380D02*
X140485904Y-77811380D01*
X140866857Y-77811380D01*
X140962095Y-77859000D01*
X141009714Y-77906619D01*
X141057333Y-78001857D01*
X141057333Y-78144714D01*
X141009714Y-78239952D01*
X140962095Y-78287571D01*
X140866857Y-78335190D01*
X140485904Y-78335190D01*
X141390666Y-77811380D02*
X142009714Y-77811380D01*
X141676380Y-78192333D01*
X141819238Y-78192333D01*
X141914476Y-78239952D01*
X141962095Y-78287571D01*
X142009714Y-78382809D01*
X142009714Y-78620904D01*
X141962095Y-78716142D01*
X141914476Y-78763761D01*
X141819238Y-78811380D01*
X141533523Y-78811380D01*
X141438285Y-78763761D01*
X141390666Y-78716142D01*
X164869904Y-78811380D02*
X164869904Y-77811380D01*
X165250857Y-77811380D01*
X165346095Y-77859000D01*
X165393714Y-77906619D01*
X165441333Y-78001857D01*
X165441333Y-78144714D01*
X165393714Y-78239952D01*
X165346095Y-78287571D01*
X165250857Y-78335190D01*
X164869904Y-78335190D01*
X166298476Y-78144714D02*
X166298476Y-78811380D01*
X166060380Y-77763761D02*
X165822285Y-78478047D01*
X166441333Y-78478047D01*
M02*
