G04 #@! TF.GenerationSoftware,KiCad,Pcbnew,(5.1.9-0-10_14)*
G04 #@! TF.CreationDate,2021-01-31T13:48:18+01:00*
G04 #@! TF.ProjectId,SX1280-Shield,53583132-3830-42d5-9368-69656c642e6b,rev?*
G04 #@! TF.SameCoordinates,Original*
G04 #@! TF.FileFunction,Other,User*
%FSLAX46Y46*%
G04 Gerber Fmt 4.6, Leading zero omitted, Abs format (unit mm)*
G04 Created by KiCad (PCBNEW (5.1.9-0-10_14)) date 2021-01-31 13:48:18*
%MOMM*%
%LPD*%
G01*
G04 APERTURE LIST*
%ADD10C,0.050000*%
G04 APERTURE END LIST*
D10*
X172698000Y-79861000D02*
X172698000Y-86011000D01*
X172698000Y-86011000D02*
X176298000Y-86011000D01*
X176298000Y-86011000D02*
X176298000Y-79861000D01*
X176298000Y-79861000D02*
X172698000Y-79861000D01*
X176248000Y-89563000D02*
X172748000Y-89563000D01*
X176248000Y-115963000D02*
X172748000Y-115963000D01*
X176248000Y-89563000D02*
X176248000Y-115963000D01*
X172748000Y-89563000D02*
X172748000Y-115963000D01*
X137188000Y-125575000D02*
X158488000Y-125575000D01*
X137188000Y-122075000D02*
X158488000Y-122075000D01*
X158488000Y-122075000D02*
X158488000Y-125575000D01*
X137188000Y-122075000D02*
X137188000Y-125575000D01*
X160048000Y-125575000D02*
X176248000Y-125575000D01*
X160048000Y-122075000D02*
X176248000Y-122075000D01*
X176248000Y-122075000D02*
X176248000Y-125575000D01*
X160048000Y-122075000D02*
X160048000Y-125575000D01*
X128044000Y-77315000D02*
X154444000Y-77315000D01*
X128044000Y-73815000D02*
X154444000Y-73815000D01*
X154444000Y-73815000D02*
X154444000Y-77315000D01*
X128044000Y-73815000D02*
X128044000Y-77315000D01*
X154968000Y-77315000D02*
X176268000Y-77315000D01*
X154968000Y-73815000D02*
X176268000Y-73815000D01*
X176268000Y-73815000D02*
X176268000Y-77315000D01*
X154968000Y-73815000D02*
X154968000Y-77315000D01*
M02*
